SplineFontDB: 3.0
FontName: Topmarks-Bold
FullName: Topmarks Bold
FamilyName: Topmarks
Weight: Bold
Copyright: Copyright (c) 2012-13 by vernon adams. All rights reserved.
Version: 1
ItalicAngle: 0
UnderlinePosition: 0
UnderlineWidth: 0
Ascent: 800
Descent: 200
UFOAscent: 1638
UFODescent: -410
LayerCount: 2
Layer: 0 0 "Back"  1
Layer: 1 0 "Fore"  0
OS2Version: 0
OS2_WeightWidthSlopeOnly: 0
OS2_UseTypoMetrics: 0
CreationTime: 1359158445
ModificationTime: 1359158572
PfmFamily: 0
TTFWeight: 700
TTFWidth: 5
LineGap: 0
VLineGap: 0
OS2TypoAscent: 0
OS2TypoAOffset: 1
OS2TypoDescent: 0
OS2TypoDOffset: 1
OS2TypoLinegap: 0
OS2WinAscent: 0
OS2WinAOffset: 1
OS2WinDescent: 0
OS2WinDOffset: 1
HheadAscent: 0
HheadAOffset: 1
HheadDescent: 0
HheadDOffset: 1
OS2Vendor: 'PfEd'
MarkAttachClasses: 1
DEI: 91125
LangName: 1033 "" "" "" "" "" "" "" "" "vernon adams" "vernon adams" "Copyright (c) 2011 by vernon adams. All rights reserved." 
Encoding: UnicodeBmp
UnicodeInterp: none
NameList: AGL For New Fonts
DisplaySize: -48
AntiAlias: 1
FitToEm: 1
WinInfo: 64 16 4
BeginPrivate: 4
BlueValues 47 [-26 0 1026 1051 1438 1453 1456 1483 1490 1526]
OtherBlues 11 [-464 -427]
StemSnapH 20 [20 125 137 142 148]
StemSnapV 9 [165 172]
EndPrivate
BeginChars: 65546 333

StartChar: A
Encoding: 65 65 1
Width: 712
VWidth: 0
Flags: HW
LayerCount: 2
UndoRedoHistory
Layer: 0
Undoes
EndUndoes
Redoes
EndRedoes
EndUndoRedoHistory
UndoRedoHistory
Layer: 1
Undoes
EndUndoes
Redoes
EndRedoes
EndUndoRedoHistory
Fore
SplineSet
298 728 m 1
 13 0 l 1
 160 0 l 1
 292 364 l 1
 356 550 l 1
 424 364 l 1
 551 0 l 1
 703 0 l 1
 420 728 l 1
 298 728 l 1
188 268 m 1
 188 168 l 1
 538 168 l 1
 538 268 l 1
 188 268 l 1
641 5 m 0
356 0 m 0
EndSplineSet
EndChar

StartChar: AE
Encoding: 198 198 2
Width: 1014
VWidth: 0
Flags: HW
LayerCount: 2
UndoRedoHistory
Layer: 0
Undoes
EndUndoes
Redoes
EndRedoes
EndUndoRedoHistory
UndoRedoHistory
Layer: 1
Undoes
EndUndoes
Redoes
EndRedoes
EndUndoRedoHistory
Fore
SplineSet
418 728 m 1
 2 0 l 1
 100 0 l 1
 214 199 l 1
 536 199 l 1
 552 0 l 1
 950 0 l 1
 950 74 l 1
 628 74 l 1
 608 336 l 1
 918 336 l 1
 918 410 l 1
 598 410 l 1
 580 654 l 1
 939 654 l 1
 939 728 l 1
 418 728 l 1
527 273 m 1
 253 273 l 1
 472 654 l 1
 497 654 l 1
 527 273 l 1
507 0 m 0
EndSplineSet
EndChar

StartChar: Aacute
Encoding: 193 193 3
Width: 712
VWidth: 0
Flags: HW
LayerCount: 2
UndoRedoHistory
Layer: 0
Undoes
EndUndoes
Redoes
EndRedoes
EndUndoRedoHistory
UndoRedoHistory
Layer: 1
Undoes
EndUndoes
Redoes
EndRedoes
EndUndoRedoHistory
Fore
SplineSet
308 728 m 1
 6 0 l 1
 100 0 l 1
 178 198 l 1
 526 198 l 1
 608 0 l 1
 704 0 l 1
 401 728 l 1
 308 728 l 1
380 575 m 1
 497 272 l 1
 205 272 l 1
 328 574 l 1
 336 595 346 626 354 649 c 1
 361 626 371 596 380 575 c 1
429 961 m 1
 316 801 l 1
 381 801 l 1
 535 961 l 1
 429 961 l 1
EndSplineSet
EndChar

StartChar: Abreve
Encoding: 258 258 4
Width: 712
VWidth: 0
Flags: HW
LayerCount: 2
UndoRedoHistory
Layer: 0
Undoes
EndUndoes
Redoes
EndRedoes
EndUndoRedoHistory
UndoRedoHistory
Layer: 1
Undoes
EndUndoes
Redoes
EndRedoes
EndUndoRedoHistory
Fore
SplineSet
308 728 m 1
 6 0 l 1
 100 0 l 1
 178 198 l 1
 526 198 l 1
 608 0 l 1
 704 0 l 1
 401 728 l 1
 308 728 l 1
380 575 m 1
 497 272 l 1
 205 272 l 1
 328 574 l 1
 336 595 346 626 354 649 c 1
 361 626 371 596 380 575 c 1
454 942 m 1
 444 900 405 878 354 878 c 0
 303 878 267 898 259 942 c 1
 216 942 l 1
 222 862 272 824 358 824 c 0
 441 824 492 865 498 942 c 1
 454 942 l 1
EndSplineSet
EndChar

StartChar: Acircumflex
Encoding: 194 194 5
Width: 712
VWidth: 0
Flags: HW
LayerCount: 2
UndoRedoHistory
Layer: 0
Undoes
EndUndoes
Redoes
EndRedoes
EndUndoRedoHistory
UndoRedoHistory
Layer: 1
Undoes
EndUndoes
Redoes
EndRedoes
EndUndoRedoHistory
Fore
SplineSet
308 728 m 1
 6 0 l 1
 100 0 l 1
 178 198 l 1
 526 198 l 1
 608 0 l 1
 704 0 l 1
 401 728 l 1
 308 728 l 1
380 575 m 1
 497 272 l 1
 205 272 l 1
 328 574 l 1
 336 595 346 626 354 649 c 1
 361 626 371 596 380 575 c 1
317 962 m 1
 203 800 l 1
 266 800 l 1
 355 908 l 1
 444 800 l 1
 510 800 l 1
 396 962 l 1
 317 962 l 1
EndSplineSet
EndChar

StartChar: Adieresis
Encoding: 196 196 6
Width: 712
VWidth: 0
Flags: HW
LayerCount: 2
UndoRedoHistory
Layer: 0
Undoes
EndUndoes
Redoes
EndRedoes
EndUndoRedoHistory
UndoRedoHistory
Layer: 1
Undoes
EndUndoes
Redoes
EndRedoes
EndUndoRedoHistory
Fore
SplineSet
308 728 m 1
 6 0 l 1
 100 0 l 1
 178 198 l 1
 526 198 l 1
 608 0 l 1
 704 0 l 1
 401 728 l 1
 308 728 l 1
380 575 m 1
 497 272 l 1
 205 272 l 1
 328 574 l 1
 336 595 346 626 354 649 c 1
 361 626 371 596 380 575 c 1
232 888 m 1
 232 806 l 1
 314 806 l 1
 314 888 l 1
 232 888 l 1
398 888 m 1
 398 806 l 1
 480 806 l 1
 480 888 l 1
 398 888 l 1
EndSplineSet
EndChar

StartChar: Agrave
Encoding: 192 192 7
Width: 712
VWidth: 0
Flags: HW
LayerCount: 2
UndoRedoHistory
Layer: 0
Undoes
EndUndoes
Redoes
EndRedoes
EndUndoRedoHistory
UndoRedoHistory
Layer: 1
Undoes
EndUndoes
Redoes
EndRedoes
EndUndoRedoHistory
Fore
SplineSet
308 728 m 1
 6 0 l 1
 100 0 l 1
 178 198 l 1
 526 198 l 1
 608 0 l 1
 704 0 l 1
 401 728 l 1
 308 728 l 1
380 575 m 1
 497 272 l 1
 205 272 l 1
 328 574 l 1
 336 595 346 626 354 649 c 1
 361 626 371 596 380 575 c 1
173 961 m 1
 339 801 l 1
 404 801 l 1
 280 961 l 1
 173 961 l 1
EndSplineSet
EndChar

StartChar: Amacron
Encoding: 256 256 8
Width: 712
VWidth: 0
Flags: HW
LayerCount: 2
UndoRedoHistory
Layer: 0
Undoes
EndUndoes
Redoes
EndRedoes
EndUndoRedoHistory
UndoRedoHistory
Layer: 1
Undoes
EndUndoes
Redoes
EndRedoes
EndUndoRedoHistory
Fore
SplineSet
308 728 m 1
 6 0 l 1
 100 0 l 1
 178 198 l 1
 526 198 l 1
 608 0 l 1
 704 0 l 1
 401 728 l 1
 308 728 l 1
380 575 m 1
 497 272 l 1
 205 272 l 1
 328 574 l 1
 336 595 346 626 354 649 c 1
 361 626 371 596 380 575 c 1
214 874 m 1
 214 806 l 1
 500 806 l 1
 500 874 l 1
 214 874 l 1
EndSplineSet
EndChar

StartChar: Aogonek
Encoding: 260 260 9
Width: 712
VWidth: 0
Flags: HW
LayerCount: 2
UndoRedoHistory
Layer: 0
Undoes
EndUndoes
Redoes
EndRedoes
EndUndoRedoHistory
UndoRedoHistory
Layer: 1
Undoes
EndUndoes
Redoes
EndRedoes
EndUndoRedoHistory
Fore
SplineSet
308 728 m 1
 6 0 l 1
 100 0 l 1
 178 198 l 1
 526 198 l 1
 608 0 l 1
 704 0 l 1
 401 728 l 1
 308 728 l 1
533 -44 m 0
 517 -60 500 -83 500 -112 c 0
 500 -126 502 -138 508 -148 c 0
 525 -178 561 -195 608 -195 c 0
 640 -195 674 -190 697 -180 c 1
 697 -125 l 1
 674 -134 652 -140 620 -140 c 0
 594 -140 570 -126 570 -100 c 0
 570 -92 573 -84 578 -76 c 0
 599 -44 638 -21 672 0 c 1
 607 6 l 1
 580 -7 553 -24 533 -44 c 0
380 575 m 1
 497 272 l 1
 205 272 l 1
 328 574 l 1
 336 595 346 626 354 649 c 1
 361 626 371 596 380 575 c 1
EndSplineSet
EndChar

StartChar: Aring
Encoding: 197 197 10
Width: 712
VWidth: 0
Flags: HW
LayerCount: 2
UndoRedoHistory
Layer: 0
Undoes
EndUndoes
Redoes
EndRedoes
EndUndoRedoHistory
UndoRedoHistory
Layer: 1
Undoes
EndUndoes
Redoes
EndRedoes
EndUndoRedoHistory
Fore
SplineSet
308 728 m 1
 6 0 l 1
 100 0 l 1
 178 198 l 1
 526 198 l 1
 608 0 l 1
 704 0 l 1
 401 728 l 1
 308 728 l 1
380 575 m 1
 497 272 l 1
 205 272 l 1
 328 574 l 1
 336 595 346 626 354 649 c 1
 361 626 371 596 380 575 c 1
316 973 m 0
 282 960 252 930 252 884 c 0
 252 870 254 859 260 847 c 0
 276 815 309 790 357 790 c 0
 371 790 385 792 397 797 c 0
 431 810 462 839 462 885 c 0
 462 898 460 910 454 922 c 0
 439 955 404 980 356 980 c 0
 342 980 328 978 316 973 c 0
412 885 m 0
 412 855 386 832 356 832 c 0
 324 832 301 853 301 885 c 0
 301 915 326 938 356 938 c 0
 387 938 412 916 412 885 c 0
EndSplineSet
EndChar

StartChar: Atilde
Encoding: 195 195 11
Width: 712
VWidth: 0
Flags: HW
LayerCount: 2
UndoRedoHistory
Layer: 0
Undoes
EndUndoes
Redoes
EndRedoes
EndUndoRedoHistory
UndoRedoHistory
Layer: 1
Undoes
EndUndoes
Redoes
EndRedoes
EndUndoRedoHistory
Fore
SplineSet
308 728 m 1
 6 0 l 1
 100 0 l 1
 178 198 l 1
 526 198 l 1
 608 0 l 1
 704 0 l 1
 401 728 l 1
 308 728 l 1
380 575 m 1
 497 272 l 1
 205 272 l 1
 328 574 l 1
 336 595 346 626 354 649 c 1
 361 626 371 596 380 575 c 1
464 932 m 1
 460 906 446 888 420 888 c 0
 410 888 400 889 390 893 c 0
 361 903 333 922 295 922 c 0
 233 922 201 874 196 816 c 1
 248 816 l 1
 252 844 267 859 294 859 c 0
 342 859 372 825 420 825 c 0
 482 825 512 876 518 932 c 1
 464 932 l 1
EndSplineSet
EndChar

StartChar: B
Encoding: 66 66 12
Width: 720
VWidth: 0
Flags: HW
LayerCount: 2
UndoRedoHistory
Layer: 0
Undoes
EndUndoes
Redoes
EndRedoes
EndUndoRedoHistory
UndoRedoHistory
Layer: 1
Undoes
EndUndoes
Redoes
EndRedoes
EndUndoRedoHistory
Fore
SplineSet
83 728 m 1
 83 0 l 1
 362 0 l 2
 570 0 659 63 659 211 c 0
 659 318 613 372 507 390 c 1
 591 414 628 462 628 552 c 0
 628 675 538 728 329 728 c 2
 83 728 l 1
536 218 m 0
 536 135 483 101 359 101 c 2
 213 101 l 1
 213 330 l 1
 351 330 l 2
 480 330 536 297 536 218 c 0
504 534 m 0
 504 456 454 422 336 422 c 2
 213 422 l 1
 213 627 l 1
 329 627 l 2
 451 627 504 601 504 534 c 0
EndSplineSet
EndChar

StartChar: C
Encoding: 67 67 13
Width: 741
VWidth: 0
Flags: HW
LayerCount: 2
UndoRedoHistory
Layer: 0
Undoes
EndUndoes
Redoes
EndRedoes
EndUndoRedoHistory
UndoRedoHistory
Layer: 1
Undoes
EndUndoes
Redoes
EndRedoes
EndUndoRedoHistory
Fore
SplineSet
50 363 m 0
 50 139 204 -11 436 -11 c 0
 524 -11 621 20 676 64 c 1
 638 172 l 1
 588 132 509 107 441 107 c 0
 289 107 186 208 186 362 c 0
 186 519 290 624 442 624 c 0
 505 624 578 598 624 560 c 1
 669 666 l 1
 613 712 520 742 438 742 c 0
 205 742 50 590 50 363 c 0
384 0 m 0
384 0 m 0
EndSplineSet
EndChar

StartChar: Cacute
Encoding: 262 262 14
Width: 714
VWidth: 0
Flags: HW
LayerCount: 2
UndoRedoHistory
Layer: 0
Undoes
EndUndoes
Redoes
EndRedoes
EndUndoRedoHistory
UndoRedoHistory
Layer: 1
Undoes
EndUndoes
Redoes
EndRedoes
EndUndoRedoHistory
Fore
SplineSet
58 363 m 0
 58 143 190 -11 410 -11 c 0
 510 -11 590 16 650 64 c 1
 621 134 l 1
 571 90 502 62 412 62 c 0
 234 62 150 190 150 362 c 0
 150 538 243 667 420 667 c 0
 488 667 553 641 603 603 c 1
 642 666 l 1
 587 707 521 742 411 742 c 0
 197 742 58 584 58 363 c 0
475 961 m 1
 362 801 l 1
 427 801 l 1
 581 961 l 1
 475 961 l 1
EndSplineSet
EndChar

StartChar: Ccaron
Encoding: 268 268 15
Width: 714
VWidth: 0
Flags: HW
LayerCount: 2
UndoRedoHistory
Layer: 0
Undoes
EndUndoes
Redoes
EndRedoes
EndUndoRedoHistory
UndoRedoHistory
Layer: 1
Undoes
EndUndoes
Redoes
EndRedoes
EndUndoRedoHistory
Fore
SplineSet
58 363 m 0
 58 143 190 -11 410 -11 c 0
 510 -11 590 16 650 64 c 1
 621 134 l 1
 571 90 502 62 412 62 c 0
 234 62 150 190 150 362 c 0
 150 538 243 667 420 667 c 0
 488 667 553 641 603 603 c 1
 642 666 l 1
 587 707 521 742 411 742 c 0
 197 742 58 584 58 363 c 0
484 962 m 1
 400 854 l 1
 318 962 l 1
 244 962 l 1
 364 800 l 1
 442 800 l 1
 560 962 l 1
 484 962 l 1
EndSplineSet
EndChar

StartChar: Ccedilla
Encoding: 199 199 16
Width: 714
VWidth: 0
Flags: HW
LayerCount: 2
UndoRedoHistory
Layer: 0
Undoes
EndUndoes
Redoes
EndRedoes
EndUndoRedoHistory
UndoRedoHistory
Layer: 1
Undoes
EndUndoes
Redoes
EndRedoes
EndUndoRedoHistory
Fore
SplineSet
58 363 m 0
 58 143 190 -11 410 -11 c 0
 510 -11 590 16 650 64 c 1
 621 134 l 1
 571 90 502 62 412 62 c 0
 234 62 150 190 150 362 c 0
 150 538 243 667 420 667 c 0
 488 667 553 641 603 603 c 1
 642 666 l 1
 587 707 521 742 411 742 c 0
 197 742 58 584 58 363 c 0
383 8 m 1
 366 -86 l 1
 382 -86 l 2
 388 -86 397 -84 401 -84 c 0
 431 -84 456 -90 456 -120 c 0
 456 -148 431 -156 398 -156 c 0
 371 -156 348 -150 323 -144 c 1
 319 -187 l 1
 346 -193 376 -198 406 -198 c 0
 466 -198 527 -180 527 -120 c 0
 527 -66 479 -47 427 -45 c 1
 422 -45 l 1
 432 8 l 1
 383 8 l 1
EndSplineSet
EndChar

StartChar: D
Encoding: 68 68 17
Width: 784
VWidth: 0
Flags: HW
LayerCount: 2
UndoRedoHistory
Layer: 0
Undoes
EndUndoes
Redoes
EndRedoes
EndUndoRedoHistory
UndoRedoHistory
Layer: 1
Undoes
EndUndoes
Redoes
EndRedoes
EndUndoRedoHistory
Fore
SplineSet
81 728 m 1
 81 0 l 1
 308 0 l 2
 607 0 736 111 736 371 c 0
 736 621 599 728 279 728 c 2
 81 728 l 1
600 370 m 0
 600 188 515 106 316 106 c 2
 215 106 l 1
 215 622 l 1
 296 622 l 2
 509 622 600 544 600 370 c 0
388 0 m 0
388 0 m 0
EndSplineSet
EndChar

StartChar: Delta
Encoding: 916 916 18
Width: 657
VWidth: 0
Flags: HW
LayerCount: 2
UndoRedoHistory
Layer: 0
Undoes
EndUndoes
Redoes
EndRedoes
EndUndoRedoHistory
UndoRedoHistory
Layer: 1
Undoes
EndUndoes
Redoes
EndRedoes
EndUndoRedoHistory
Fore
SplineSet
280 714 m 1
 20 40 l 1
 20 0 l 1
 632 0 l 1
 632 40 l 1
 372 714 l 1
 280 714 l 1
340 556 m 1
 516 81 l 1
 134 81 l 1
 308 556 l 1
 324 609 l 1
 340 556 l 1
EndSplineSet
EndChar

StartChar: E
Encoding: 69 69 19
Width: 612
VWidth: 0
Flags: HW
LayerCount: 2
UndoRedoHistory
Layer: 0
Undoes
EndUndoes
Redoes
EndRedoes
EndUndoRedoHistory
UndoRedoHistory
Layer: 1
Undoes
EndUndoes
Redoes
EndRedoes
EndUndoRedoHistory
Fore
SplineSet
83 728 m 1
 83 0 l 1
 564 0 l 1
 564 106 l 1
 213 106 l 1
 213 323 l 1
 520 323 l 1
 520 421 l 1
 213 421 l 1
 213 622 l 1
 539 622 l 1
 539 728 l 1
 83 728 l 1
552 5 m 0
309 0 m 0
309 0 m 0
EndSplineSet
EndChar

StartChar: Eacute
Encoding: 201 201 20
Width: 606
VWidth: 0
Flags: HW
LayerCount: 2
UndoRedoHistory
Layer: 0
Undoes
EndUndoes
Redoes
EndRedoes
EndUndoRedoHistory
UndoRedoHistory
Layer: 1
Undoes
EndUndoes
Redoes
EndRedoes
EndUndoRedoHistory
Fore
SplineSet
100 728 m 1
 100 0 l 1
 558 0 l 1
 558 74 l 1
 186 74 l 1
 186 336 l 1
 514 336 l 1
 514 410 l 1
 186 410 l 1
 186 654 l 1
 534 654 l 1
 534 728 l 1
 100 728 l 1
407 961 m 1
 294 801 l 1
 359 801 l 1
 513 961 l 1
 407 961 l 1
EndSplineSet
EndChar

StartChar: Ecircumflex
Encoding: 202 202 21
Width: 606
VWidth: 0
Flags: HW
LayerCount: 2
UndoRedoHistory
Layer: 0
Undoes
EndUndoes
Redoes
EndRedoes
EndUndoRedoHistory
UndoRedoHistory
Layer: 1
Undoes
EndUndoes
Redoes
EndRedoes
EndUndoRedoHistory
Fore
SplineSet
100 728 m 1
 100 0 l 1
 558 0 l 1
 558 74 l 1
 186 74 l 1
 186 336 l 1
 514 336 l 1
 514 410 l 1
 186 410 l 1
 186 654 l 1
 534 654 l 1
 534 728 l 1
 100 728 l 1
295 962 m 1
 181 800 l 1
 244 800 l 1
 333 908 l 1
 422 800 l 1
 488 800 l 1
 374 962 l 1
 295 962 l 1
EndSplineSet
EndChar

StartChar: Edieresis
Encoding: 203 203 22
Width: 606
VWidth: 0
Flags: HW
LayerCount: 2
UndoRedoHistory
Layer: 0
Undoes
EndUndoes
Redoes
EndRedoes
EndUndoRedoHistory
UndoRedoHistory
Layer: 1
Undoes
EndUndoes
Redoes
EndRedoes
EndUndoRedoHistory
Fore
SplineSet
100 728 m 1
 100 0 l 1
 558 0 l 1
 558 74 l 1
 186 74 l 1
 186 336 l 1
 514 336 l 1
 514 410 l 1
 186 410 l 1
 186 654 l 1
 534 654 l 1
 534 728 l 1
 100 728 l 1
210 888 m 1
 210 806 l 1
 292 806 l 1
 292 888 l 1
 210 888 l 1
376 888 m 1
 376 806 l 1
 458 806 l 1
 458 888 l 1
 376 888 l 1
EndSplineSet
EndChar

StartChar: Egrave
Encoding: 200 200 23
Width: 606
VWidth: 0
Flags: HW
LayerCount: 2
UndoRedoHistory
Layer: 0
Undoes
EndUndoes
Redoes
EndRedoes
EndUndoRedoHistory
UndoRedoHistory
Layer: 1
Undoes
EndUndoes
Redoes
EndRedoes
EndUndoRedoHistory
Fore
SplineSet
100 728 m 1
 100 0 l 1
 558 0 l 1
 558 74 l 1
 186 74 l 1
 186 336 l 1
 514 336 l 1
 514 410 l 1
 186 410 l 1
 186 654 l 1
 534 654 l 1
 534 728 l 1
 100 728 l 1
151 961 m 1
 317 801 l 1
 382 801 l 1
 258 961 l 1
 151 961 l 1
EndSplineSet
EndChar

StartChar: Emacron
Encoding: 274 274 24
Width: 606
VWidth: 0
Flags: HW
LayerCount: 2
UndoRedoHistory
Layer: 0
Undoes
EndUndoes
Redoes
EndRedoes
EndUndoRedoHistory
UndoRedoHistory
Layer: 1
Undoes
EndUndoes
Redoes
EndRedoes
EndUndoRedoHistory
Fore
SplineSet
100 728 m 1
 100 0 l 1
 558 0 l 1
 558 74 l 1
 186 74 l 1
 186 336 l 1
 514 336 l 1
 514 410 l 1
 186 410 l 1
 186 654 l 1
 534 654 l 1
 534 728 l 1
 100 728 l 1
192 874 m 1
 192 806 l 1
 478 806 l 1
 478 874 l 1
 192 874 l 1
EndSplineSet
EndChar

StartChar: Eogonek
Encoding: 280 280 25
Width: 606
VWidth: 0
Flags: HW
LayerCount: 2
UndoRedoHistory
Layer: 0
Undoes
EndUndoes
Redoes
EndRedoes
EndUndoRedoHistory
UndoRedoHistory
Layer: 1
Undoes
EndUndoes
Redoes
EndRedoes
EndUndoRedoHistory
Fore
SplineSet
100 728 m 1
 100 0 l 1
 558 0 l 1
 558 74 l 1
 186 74 l 1
 186 336 l 1
 514 336 l 1
 514 410 l 1
 186 410 l 1
 186 654 l 1
 534 654 l 1
 534 728 l 1
 100 728 l 1
438 -44 m 0
 422 -60 404 -83 404 -112 c 0
 404 -126 406 -138 412 -148 c 0
 429 -178 466 -195 513 -195 c 0
 545 -195 579 -190 602 -180 c 1
 602 -125 l 1
 579 -134 556 -140 524 -140 c 0
 498 -140 474 -126 474 -100 c 0
 474 -92 477 -84 482 -76 c 0
 503 -44 542 -21 576 0 c 1
 512 6 l 1
 485 -7 458 -24 438 -44 c 0
EndSplineSet
EndChar

StartChar: Eth
Encoding: 208 208 26
Width: 773
VWidth: 0
Flags: HW
LayerCount: 2
UndoRedoHistory
Layer: 0
Undoes
EndUndoes
Redoes
EndRedoes
EndUndoRedoHistory
UndoRedoHistory
Layer: 1
Undoes
EndUndoes
Redoes
EndRedoes
EndUndoRedoHistory
Fore
SplineSet
96 728 m 1
 96 398 l 1
 -0 398 l 1
 -0 329 l 1
 96 329 l 1
 96 0 l 1
 305 0 l 2
 369 0 427 9 478 26 c 0
 617 72 715 180 715 362 c 0
 715 636 528 728 254 728 c 2
 96 728 l 1
420 639 m 0
 554 609 624 524 624 360 c 0
 624 318 617 280 605 245 c 0
 565 134 465 74 313 74 c 2
 182 74 l 1
 182 329 l 1
 286 329 l 1
 286 398 l 1
 182 398 l 1
 182 654 l 1
 264 654 l 2
 323 654 375 649 420 639 c 0
EndSplineSet
EndChar

StartChar: Euro
Encoding: 8364 8364 27
Width: 595
VWidth: 0
Flags: HW
LayerCount: 2
UndoRedoHistory
Layer: 0
Undoes
EndUndoes
Redoes
EndRedoes
EndUndoRedoHistory
UndoRedoHistory
Layer: 1
Undoes
EndUndoes
Redoes
EndRedoes
EndUndoRedoHistory
Fore
SplineSet
284 704 m 0
 188 664 130 577 109 461 c 1
 48 461 l 1
 38 392 l 1
 100 392 l 1
 100 380 98 371 98 360 c 0
 98 348 99 336 100 327 c 1
 49 327 l 1
 39 258 l 1
 106 258 l 1
 125 104 204 -10 376 -10 c 0
 446 -10 498 8 542 38 c 1
 542 126 l 1
 498 92 450 62 384 62 c 0
 260 62 211 148 196 258 c 1
 467 258 l 1
 476 327 l 1
 189 327 l 1
 188 351 l 2
 188 360 188 370 188 380 c 1
 188 386 l 2
 188 388 188 390 188 392 c 1
 484 392 l 1
 494 461 l 1
 198 461 l 1
 219 558 270 652 388 652 c 0
 457 652 505 616 535 570 c 1
 553 665 l 1
 514 702 464 724 392 724 c 0
 352 724 316 717 284 704 c 0
EndSplineSet
EndChar

StartChar: F
Encoding: 70 70 28
Width: 570
VWidth: 0
Flags: HW
LayerCount: 2
UndoRedoHistory
Layer: 0
Undoes
EndUndoes
Redoes
EndRedoes
EndUndoRedoHistory
UndoRedoHistory
Layer: 1
Undoes
EndUndoes
Redoes
EndRedoes
EndUndoRedoHistory
Fore
SplineSet
75 728 m 1
 75 0 l 1
 205 0 l 1
 205 334 l 1
 504 334 l 1
 504 432 l 1
 205 432 l 1
 205 622 l 1
 522 622 l 1
 522 728 l 1
 75 728 l 1
EndSplineSet
EndChar

StartChar: G
Encoding: 71 71 29
Width: 786
VWidth: 0
Flags: HW
LayerCount: 2
UndoRedoHistory
Layer: 0
Undoes
EndUndoes
Redoes
EndRedoes
EndUndoRedoHistory
UndoRedoHistory
Layer: 1
Undoes
EndUndoes
Redoes
EndRedoes
EndUndoRedoHistory
Fore
SplineSet
50 350 m 0
 50 133 208 -11 446 -11 c 0
 540 -11 646 9 712 40 c 1
 712 394 l 1
 431 394 l 1
 431 304 l 1
 598 304 l 1
 598 123 l 1
 563 109 505 99 453 99 c 0
 293 99 186 202 186 357 c 0
 186 524 299 636 469 636 c 0
 528 636 606 615 664 584 c 1
 705 678 l 1
 638 719 537 746 454 746 c 0
 211 746 50 587 50 350 c 0
404 0 m 0
404 0 m 0
EndSplineSet
EndChar

StartChar: Gcommaaccent
Encoding: 290 290 30
Width: 765
VWidth: 0
Flags: HW
LayerCount: 2
UndoRedoHistory
Layer: 0
Undoes
EndUndoes
Redoes
EndRedoes
EndUndoRedoHistory
UndoRedoHistory
Layer: 1
Undoes
EndUndoes
Redoes
EndRedoes
EndUndoRedoHistory
Fore
SplineSet
58 350 m 0
 58 119 192 -11 424 -11 c 0
 524 -11 604 6 676 40 c 1
 676 378 l 1
 410 378 l 1
 410 304 l 1
 590 304 l 1
 590 86 l 1
 545 68 492 62 432 62 c 0
 246 62 147 172 147 357 c 0
 147 535 250 667 428 667 c 0
 514 667 582 643 628 599 c 1
 664 658 l 1
 606 716 536 742 430 742 c 0
 198 742 58 582 58 350 c 0
362 -81 m 1
 309 -312 l 1
 374 -312 l 1
 456 -81 l 1
 362 -81 l 1
EndSplineSet
EndChar

StartChar: H
Encoding: 72 72 31
Width: 791
VWidth: 0
Flags: HW
LayerCount: 2
UndoRedoHistory
Layer: 0
Undoes
EndUndoes
Redoes
EndRedoes
EndUndoRedoHistory
UndoRedoHistory
Layer: 1
Undoes
EndUndoes
Redoes
EndRedoes
EndUndoRedoHistory
Fore
SplineSet
578 728 m 1
 578 428 l 1
 218 428 l 1
 218 728 l 5
 83 728 l 5
 83 0 l 1
 218 0 l 1
 218 319 l 1
 578 319 l 1
 578 0 l 1
 708 0 l 1
 708 728 l 1
 578 728 l 1
396 0 m 0
396 0 m 0
EndSplineSet
EndChar

StartChar: I
Encoding: 73 73 32
Width: 296
VWidth: 0
Flags: HW
LayerCount: 2
UndoRedoHistory
Layer: 0
Undoes
EndUndoes
Redoes
EndRedoes
EndUndoRedoHistory
UndoRedoHistory
Layer: 1
Undoes
EndUndoes
Redoes
EndRedoes
EndUndoRedoHistory
Fore
SplineSet
83 728 m 1
 83 0 l 1
 213 0 l 1
 213 728 l 1
 83 728 l 1
266 5 m 0
148 0 m 0
EndSplineSet
EndChar

StartChar: IJ
Encoding: 306 306 33
Width: 765
VWidth: 0
Flags: HW
LayerCount: 2
UndoRedoHistory
Layer: 0
Undoes
EndUndoes
Redoes
EndRedoes
EndUndoRedoHistory
UndoRedoHistory
Layer: 1
Undoes
EndUndoes
Redoes
EndRedoes
EndUndoRedoHistory
Fore
SplineSet
378 728 m 1
 378 657 l 1
 587 657 l 1
 587 147 l 2
 587 34 546 -24 464 -24 c 0
 436 -24 390 -13 342 11 c 1
 316 -57 l 1
 361 -85 421 -106 472 -106 c 0
 605 -106 673 -20 673 148 c 2
 673 657 l 1
 809 657 l 1
 809 728 l 1
 378 728 l 1
105 728 m 1
 105 0 l 1
 191 0 l 1
 191 728 l 1
 105 728 l 1
EndSplineSet
EndChar

StartChar: Iacute
Encoding: 205 205 34
Width: 295
VWidth: 0
Flags: HW
LayerCount: 2
UndoRedoHistory
Layer: 0
Undoes
EndUndoes
Redoes
EndRedoes
EndUndoRedoHistory
UndoRedoHistory
Layer: 1
Undoes
EndUndoes
Redoes
EndRedoes
EndUndoRedoHistory
Fore
SplineSet
105 728 m 1
 105 0 l 1
 191 0 l 1
 191 728 l 1
 105 728 l 1
220 961 m 1
 108 801 l 1
 172 801 l 1
 326 961 l 1
 220 961 l 1
EndSplineSet
EndChar

StartChar: Icircumflex
Encoding: 206 206 35
Width: 295
VWidth: 0
Flags: HW
LayerCount: 2
UndoRedoHistory
Layer: 0
Undoes
EndUndoes
Redoes
EndRedoes
EndUndoRedoHistory
UndoRedoHistory
Layer: 1
Undoes
EndUndoes
Redoes
EndRedoes
EndUndoRedoHistory
Fore
SplineSet
105 728 m 1
 105 0 l 1
 191 0 l 1
 191 728 l 1
 105 728 l 1
108 962 m 1
 -6 800 l 1
 58 800 l 1
 146 908 l 1
 236 800 l 1
 302 800 l 1
 187 962 l 1
 108 962 l 1
EndSplineSet
EndChar

StartChar: Idieresis
Encoding: 207 207 36
Width: 295
VWidth: 0
Flags: HW
LayerCount: 2
UndoRedoHistory
Layer: 0
Undoes
EndUndoes
Redoes
EndRedoes
EndUndoRedoHistory
UndoRedoHistory
Layer: 1
Undoes
EndUndoes
Redoes
EndRedoes
EndUndoRedoHistory
Fore
SplineSet
105 728 m 1
 105 0 l 1
 191 0 l 1
 191 728 l 1
 105 728 l 1
24 888 m 1
 24 806 l 1
 106 806 l 1
 106 888 l 1
 24 888 l 1
190 888 m 1
 190 806 l 1
 272 806 l 1
 272 888 l 1
 190 888 l 1
EndSplineSet
EndChar

StartChar: Igrave
Encoding: 204 204 37
Width: 295
VWidth: 0
Flags: HW
LayerCount: 2
UndoRedoHistory
Layer: 0
Undoes
EndUndoes
Redoes
EndRedoes
EndUndoRedoHistory
UndoRedoHistory
Layer: 1
Undoes
EndUndoes
Redoes
EndRedoes
EndUndoRedoHistory
Fore
SplineSet
105 728 m 1
 105 0 l 1
 191 0 l 1
 191 728 l 1
 105 728 l 1
-36 961 m 1
 130 801 l 1
 195 801 l 1
 72 961 l 1
 -36 961 l 1
EndSplineSet
EndChar

StartChar: Imacron
Encoding: 298 298 38
Width: 295
VWidth: 0
Flags: HW
LayerCount: 2
UndoRedoHistory
Layer: 0
Undoes
EndUndoes
Redoes
EndRedoes
EndUndoRedoHistory
UndoRedoHistory
Layer: 1
Undoes
EndUndoes
Redoes
EndRedoes
EndUndoRedoHistory
Fore
SplineSet
105 728 m 1
 105 0 l 1
 191 0 l 1
 191 728 l 1
 105 728 l 1
5 874 m 1
 5 806 l 1
 291 806 l 1
 291 874 l 1
 5 874 l 1
EndSplineSet
EndChar

StartChar: Iogonek
Encoding: 302 302 39
Width: 295
VWidth: 0
Flags: HW
LayerCount: 2
UndoRedoHistory
Layer: 0
Undoes
EndUndoes
Redoes
EndRedoes
EndUndoRedoHistory
UndoRedoHistory
Layer: 1
Undoes
EndUndoes
Redoes
EndRedoes
EndUndoRedoHistory
Fore
SplineSet
105 728 m 1
 105 0 l 1
 191 0 l 1
 191 728 l 1
 105 728 l 1
58 -44 m 0
 42 -60 25 -83 25 -112 c 0
 25 -126 28 -138 34 -148 c 0
 51 -178 87 -195 134 -195 c 0
 166 -195 199 -190 222 -180 c 1
 222 -125 l 1
 199 -134 178 -140 146 -140 c 0
 120 -140 96 -126 96 -100 c 0
 96 -92 98 -84 103 -76 c 0
 124 -44 163 -21 197 0 c 1
 132 6 l 1
 105 -7 78 -24 58 -44 c 0
EndSplineSet
EndChar

StartChar: Itilde
Encoding: 296 296 40
Width: 295
VWidth: 0
Flags: HW
LayerCount: 2
UndoRedoHistory
Layer: 0
Undoes
EndUndoes
Redoes
EndRedoes
EndUndoRedoHistory
UndoRedoHistory
Layer: 1
Undoes
EndUndoes
Redoes
EndRedoes
EndUndoRedoHistory
Fore
SplineSet
105 728 m 1
 105 0 l 1
 191 0 l 1
 191 728 l 1
 105 728 l 1
255 932 m 1
 251 906 238 888 212 888 c 0
 202 888 192 889 182 893 c 0
 153 903 124 922 86 922 c 0
 24 922 -8 874 -13 816 c 1
 40 816 l 1
 44 844 58 859 85 859 c 0
 133 859 164 825 212 825 c 0
 274 825 303 876 309 932 c 1
 255 932 l 1
EndSplineSet
EndChar

StartChar: J
Encoding: 74 74 41
Width: 469
VWidth: 0
Flags: HW
LayerCount: 2
UndoRedoHistory
Layer: 0
Undoes
EndUndoes
Redoes
EndRedoes
EndUndoRedoHistory
UndoRedoHistory
Layer: 1
Undoes
EndUndoes
Redoes
EndRedoes
EndUndoRedoHistory
Fore
SplineSet
57 728 m 1
 57 622 l 1
 248 622 l 1
 248 147 l 2
 248 7 160 -20 26 46 c 1
 -10 -57 l 1
 156 -159 378 -108 378 148 c 2
 378 622 l 1
 514 622 l 1
 514 728 l 1
 57 728 l 1
235 0 m 0
EndSplineSet
EndChar

StartChar: J.alt
Encoding: 65537 -1 42
Width: 469
VWidth: 0
Flags: HW
LayerCount: 2
UndoRedoHistory
Layer: 0
Undoes
EndUndoes
Redoes
EndRedoes
EndUndoRedoHistory
UndoRedoHistory
Layer: 1
Undoes
EndUndoes
Redoes
EndRedoes
EndUndoRedoHistory
Fore
SplineSet
292 728 m 1
 292 244 l 2
 292 148 259 62 163 62 c 0
 119 62 88 78 61 98 c 1
 36 40 l 1
 66 10 104 -12 160 -12 c 0
 194 -12 224 -6 251 6 c 0
 335 42 378 128 378 250 c 2
 378 728 l 1
 292 728 l 1
235 0 m 0
EndSplineSet
EndChar

StartChar: Jcircumflex
Encoding: 308 308 43
Width: 469
VWidth: 0
Flags: HW
LayerCount: 2
UndoRedoHistory
Layer: 0
Undoes
EndUndoes
Redoes
EndRedoes
EndUndoRedoHistory
UndoRedoHistory
Layer: 1
Undoes
EndUndoes
Redoes
EndRedoes
EndUndoRedoHistory
Fore
SplineSet
82 728 m 1
 82 657 l 1
 292 657 l 1
 292 147 l 2
 292 34 250 -24 168 -24 c 0
 140 -24 94 -13 46 11 c 1
 20 -57 l 1
 65 -85 125 -106 176 -106 c 0
 309 -106 378 -20 378 148 c 2
 378 657 l 1
 514 657 l 1
 514 728 l 1
 82 728 l 1
266 962 m 1
 152 800 l 1
 214 800 l 1
 304 908 l 1
 392 800 l 1
 458 800 l 1
 344 962 l 1
 266 962 l 1
EndSplineSet
EndChar

StartChar: K
Encoding: 75 75 44
Width: 642
VWidth: 0
Flags: HW
LayerCount: 2
UndoRedoHistory
Layer: 0
Undoes
EndUndoes
Redoes
EndRedoes
EndUndoRedoHistory
UndoRedoHistory
Layer: 1
Undoes
EndUndoes
Redoes
EndRedoes
EndUndoRedoHistory
Fore
SplineSet
483 728 m 1
 206 413 l 1
 206 728 l 1
 76 728 l 1
 76 0 l 1
 206 0 l 1
 206 342 l 1
 490 0 l 1
 656 0 l 1
 334 388 l 1
 640 728 l 1
 483 728 l 1
321 0 m 0
321 0 m 0
EndSplineSet
EndChar

StartChar: L
Encoding: 76 76 45
Width: 559
VWidth: 0
Flags: HW
LayerCount: 2
UndoRedoHistory
Layer: 0
Undoes
EndUndoes
Redoes
EndRedoes
EndUndoRedoHistory
UndoRedoHistory
Layer: 1
Undoes
EndUndoes
Redoes
EndRedoes
EndUndoRedoHistory
Fore
SplineSet
81 728 m 1
 81 0 l 1
 536 0 l 1
 536 106 l 1
 211 106 l 1
 211 728 l 1
 81 728 l 1
280 0 m 0
280 0 m 0
EndSplineSet
EndChar

StartChar: Ldot
Encoding: 319 319 46
Width: 559
VWidth: 0
Flags: HW
LayerCount: 2
UndoRedoHistory
Layer: 0
Undoes
EndUndoes
Redoes
EndRedoes
EndUndoRedoHistory
UndoRedoHistory
Layer: 1
Undoes
EndUndoes
Redoes
EndRedoes
EndUndoRedoHistory
Fore
SplineSet
100 728 m 1
 100 0 l 1
 536 0 l 1
 536 74 l 1
 186 74 l 1
 186 728 l 1
 100 728 l 1
333 671 m 1
 333 566 l 1
 442 566 l 1
 442 671 l 1
 333 671 l 1
EndSplineSet
EndChar

StartChar: Lslash
Encoding: 321 321 47
Width: 560
VWidth: 0
Flags: HW
LayerCount: 2
UndoRedoHistory
Layer: 0
Undoes
EndUndoes
Redoes
EndRedoes
EndUndoRedoHistory
UndoRedoHistory
Layer: 1
Undoes
EndUndoes
Redoes
EndRedoes
EndUndoRedoHistory
Fore
SplineSet
101 728 m 1
 101 371 l 1
 8 313 l 1
 8 244 l 1
 101 302 l 1
 101 0 l 1
 536 0 l 1
 536 74 l 1
 187 74 l 1
 187 356 l 1
 330 445 l 1
 330 514 l 1
 187 424 l 1
 187 728 l 1
 101 728 l 1
EndSplineSet
EndChar

StartChar: M
Encoding: 77 77 48
Width: 998
VWidth: 0
Flags: HW
LayerCount: 2
UndoRedoHistory
Layer: 0
Undoes
EndUndoes
Redoes
EndRedoes
EndUndoRedoHistory
UndoRedoHistory
Layer: 1
Undoes
EndUndoes
Redoes
EndRedoes
EndUndoRedoHistory
Fore
SplineSet
756 728 m 1
 542 370 l 1
 500 286 l 1
 456 368 l 1
 244 728 l 1
 89 728 l 1
 89 0 l 1
 220 0 l 1
 220 550 l 1
 274 440 l 1
 467 115 l 1
 530 115 l 1
 725 434 l 1
 779 541 l 1
 779 0 l 1
 905 0 l 1
 905 728 l 1
 756 728 l 1
EndSplineSet
EndChar

StartChar: N
Encoding: 78 78 49
Width: 801
VWidth: 0
Flags: HW
LayerCount: 2
UndoRedoHistory
Layer: 0
Undoes
EndUndoes
Redoes
EndRedoes
EndUndoRedoHistory
UndoRedoHistory
Layer: 1
Undoes
EndUndoes
Redoes
EndRedoes
EndUndoRedoHistory
Fore
SplineSet
616 728 m 1
 616 158 l 1
 552 251 l 1
 203 728 l 1
 70 728 l 1
 70 0 l 1
 186 0 l 1
 186 558 l 1
 247 476 l 1
 597 0 l 1
 731 0 l 1
 731 728 l 1
 616 728 l 1
400 0 m 0
400 0 m 0
EndSplineSet
EndChar

StartChar: Nacute
Encoding: 323 323 50
Width: 801
VWidth: 0
Flags: HW
LayerCount: 2
UndoRedoHistory
Layer: 0
Undoes
EndUndoes
Redoes
EndRedoes
EndUndoRedoHistory
UndoRedoHistory
Layer: 1
Undoes
EndUndoes
Redoes
EndRedoes
EndUndoRedoHistory
Fore
SplineSet
616 728 m 1
 616 108 l 1
 576 171 l 1
 203 728 l 1
 100 728 l 1
 100 0 l 1
 186 0 l 1
 186 618 l 1
 222 556 l 1
 597 0 l 1
 701 0 l 1
 701 728 l 1
 616 728 l 1
473 961 m 1
 360 801 l 1
 425 801 l 1
 579 961 l 1
 473 961 l 1
EndSplineSet
EndChar

StartChar: Ntilde
Encoding: 209 209 51
Width: 801
VWidth: 0
Flags: HW
LayerCount: 2
UndoRedoHistory
Layer: 0
Undoes
EndUndoes
Redoes
EndRedoes
EndUndoRedoHistory
UndoRedoHistory
Layer: 1
Undoes
EndUndoes
Redoes
EndRedoes
EndUndoRedoHistory
Fore
SplineSet
616 728 m 1
 616 108 l 1
 576 171 l 1
 203 728 l 1
 100 728 l 1
 100 0 l 1
 186 0 l 1
 186 618 l 1
 222 556 l 1
 597 0 l 1
 701 0 l 1
 701 728 l 1
 616 728 l 1
508 932 m 1
 504 906 490 888 464 888 c 0
 454 888 444 889 434 893 c 0
 405 903 377 922 339 922 c 0
 277 922 245 874 240 816 c 1
 292 816 l 1
 296 844 311 859 338 859 c 0
 386 859 416 825 464 825 c 0
 526 825 556 876 562 932 c 1
 508 932 l 1
EndSplineSet
EndChar

StartChar: O
Encoding: 79 79 52
Width: 834
VWidth: 0
Flags: HW
LayerCount: 2
UndoRedoHistory
Layer: 0
Undoes
EndUndoes
Redoes
EndRedoes
EndUndoRedoHistory
UndoRedoHistory
Layer: 1
Undoes
EndUndoes
Redoes
EndRedoes
EndUndoRedoHistory
Fore
SplineSet
50 366 m 0
 50 140 197 -11 417 -11 c 0
 637 -11 784 140 784 366 c 0
 784 592 637 743 417 743 c 0
 197 743 50 592 50 366 c 0
648 364 m 0
 648 205 555 99 417 99 c 0
 279 99 186 205 186 364 c 0
 186 526 279 633 417 633 c 0
 555 633 648 526 648 364 c 0
416 0 m 0
EndSplineSet
EndChar

StartChar: OE
Encoding: 338 338 53
Width: 1049
VWidth: 0
Flags: HW
LayerCount: 2
UndoRedoHistory
Layer: 0
Undoes
EndUndoes
Redoes
EndRedoes
EndUndoRedoHistory
UndoRedoHistory
Layer: 1
Undoes
EndUndoes
Redoes
EndRedoes
EndUndoRedoHistory
Fore
SplineSet
266 713 m 0
 140 660 57 541 57 364 c 0
 57 306 66 255 82 209 c 0
 128 77 238 -12 414 -12 c 0
 484 -12 536 16 576 52 c 1
 576 0 l 1
 992 0 l 1
 992 74 l 1
 662 74 l 1
 662 336 l 1
 958 336 l 1
 958 410 l 1
 662 410 l 1
 662 654 l 1
 977 654 l 1
 977 728 l 1
 576 728 l 1
 576 690 l 1
 535 719 484 742 418 742 c 0
 361 742 310 732 266 713 c 0
576 610 m 1
 576 132 l 1
 538 92 487 62 414 62 c 0
 370 62 331 70 298 86 c 0
 204 130 149 226 149 362 c 0
 149 450 176 525 217 576 c 0
 259 628 323 668 415 668 c 0
 486 668 536 644 576 610 c 1
525 0 m 0
EndSplineSet
EndChar

StartChar: Oacute
Encoding: 211 211 54
Width: 831
VWidth: 0
Flags: HW
LayerCount: 2
UndoRedoHistory
Layer: 0
Undoes
EndUndoes
Redoes
EndRedoes
EndUndoRedoHistory
UndoRedoHistory
Layer: 1
Undoes
EndUndoes
Redoes
EndRedoes
EndUndoRedoHistory
Fore
SplineSet
58 365 m 0
 58 109 216 -11 417 -11 c 0
 652 -11 773 169 773 365 c 0
 773 621 617 742 417 742 c 0
 180 742 58 561 58 365 c 0
679 364 m 0
 679 164 553 62 417 62 c 0
 235 62 150 194 150 364 c 0
 150 564 278 667 417 667 c 0
 595 667 679 534 679 364 c 0
488 961 m 1
 375 801 l 1
 440 801 l 1
 594 961 l 1
 488 961 l 1
EndSplineSet
EndChar

StartChar: Ocircumflex
Encoding: 212 212 55
Width: 831
VWidth: 0
Flags: HW
LayerCount: 2
UndoRedoHistory
Layer: 0
Undoes
EndUndoes
Redoes
EndRedoes
EndUndoRedoHistory
UndoRedoHistory
Layer: 1
Undoes
EndUndoes
Redoes
EndRedoes
EndUndoRedoHistory
Fore
SplineSet
58 365 m 0
 58 109 216 -11 417 -11 c 0
 652 -11 773 169 773 365 c 0
 773 621 617 742 417 742 c 0
 180 742 58 561 58 365 c 0
679 364 m 0
 679 164 553 62 417 62 c 0
 235 62 150 194 150 364 c 0
 150 564 278 667 417 667 c 0
 595 667 679 534 679 364 c 0
376 962 m 1
 262 800 l 1
 325 800 l 1
 414 908 l 1
 503 800 l 1
 569 800 l 1
 454 962 l 1
 376 962 l 1
EndSplineSet
EndChar

StartChar: Odieresis
Encoding: 214 214 56
Width: 831
VWidth: 0
Flags: HW
LayerCount: 2
UndoRedoHistory
Layer: 0
Undoes
EndUndoes
Redoes
EndRedoes
EndUndoRedoHistory
UndoRedoHistory
Layer: 1
Undoes
EndUndoes
Redoes
EndRedoes
EndUndoRedoHistory
Fore
SplineSet
58 365 m 0
 58 109 216 -11 417 -11 c 0
 652 -11 773 169 773 365 c 0
 773 621 617 742 417 742 c 0
 180 742 58 561 58 365 c 0
679 364 m 0
 679 164 553 62 417 62 c 0
 235 62 150 194 150 364 c 0
 150 564 278 667 417 667 c 0
 595 667 679 534 679 364 c 0
292 888 m 1
 292 806 l 1
 374 806 l 1
 374 888 l 1
 292 888 l 1
458 888 m 1
 458 806 l 1
 540 806 l 1
 540 888 l 1
 458 888 l 1
EndSplineSet
EndChar

StartChar: Ograve
Encoding: 210 210 57
Width: 831
VWidth: 0
Flags: HW
LayerCount: 2
UndoRedoHistory
Layer: 0
Undoes
EndUndoes
Redoes
EndRedoes
EndUndoRedoHistory
UndoRedoHistory
Layer: 1
Undoes
EndUndoes
Redoes
EndRedoes
EndUndoRedoHistory
Fore
SplineSet
58 365 m 0
 58 109 216 -11 417 -11 c 0
 652 -11 773 169 773 365 c 0
 773 621 617 742 417 742 c 0
 180 742 58 561 58 365 c 0
679 364 m 0
 679 164 553 62 417 62 c 0
 235 62 150 194 150 364 c 0
 150 564 278 667 417 667 c 0
 595 667 679 534 679 364 c 0
232 961 m 1
 398 801 l 1
 462 801 l 1
 339 961 l 1
 232 961 l 1
EndSplineSet
EndChar

StartChar: Oslash
Encoding: 216 216 58
Width: 831
VWidth: 0
Flags: HW
LayerCount: 2
UndoRedoHistory
Layer: 0
Undoes
EndUndoes
Redoes
EndRedoes
EndUndoRedoHistory
UndoRedoHistory
Layer: 1
Undoes
EndUndoes
Redoes
EndRedoes
EndUndoRedoHistory
Fore
SplineSet
58 365 m 0
 58 109 216 -11 417 -11 c 0
 652 -11 773 169 773 365 c 0
 773 621 617 742 417 742 c 0
 180 742 58 561 58 365 c 0
679 364 m 0
 679 164 553 62 417 62 c 0
 235 62 150 194 150 364 c 0
 150 564 278 667 417 667 c 0
 595 667 679 534 679 364 c 0
200 -60 m 1
 260 -82 l 1
 631 790 l 1
 568 812 l 1
 200 -60 l 1
416 0 m 0
EndSplineSet
EndChar

StartChar: Otilde
Encoding: 213 213 59
Width: 831
VWidth: 0
Flags: HW
LayerCount: 2
UndoRedoHistory
Layer: 0
Undoes
EndUndoes
Redoes
EndRedoes
EndUndoRedoHistory
UndoRedoHistory
Layer: 1
Undoes
EndUndoes
Redoes
EndRedoes
EndUndoRedoHistory
Fore
SplineSet
58 365 m 0
 58 109 216 -11 417 -11 c 0
 652 -11 773 169 773 365 c 0
 773 621 617 742 417 742 c 0
 180 742 58 561 58 365 c 0
679 364 m 0
 679 164 553 62 417 62 c 0
 235 62 150 194 150 364 c 0
 150 564 278 667 417 667 c 0
 595 667 679 534 679 364 c 0
522 932 m 1
 518 906 505 888 479 888 c 0
 469 888 460 889 450 893 c 0
 421 903 392 922 354 922 c 0
 292 922 259 874 254 816 c 1
 307 816 l 1
 311 844 325 859 352 859 c 0
 400 859 431 825 479 825 c 0
 541 825 570 876 576 932 c 1
 522 932 l 1
EndSplineSet
EndChar

StartChar: P
Encoding: 80 80 60
Width: 635
VWidth: 0
Flags: HW
LayerCount: 2
UndoRedoHistory
Layer: 0
Undoes
EndUndoes
Redoes
EndRedoes
EndUndoRedoHistory
UndoRedoHistory
Layer: 1
Undoes
EndUndoes
Redoes
EndRedoes
EndUndoRedoHistory
Fore
SplineSet
56 728 m 1
 56 0 l 1
 190 0 l 1
 190 268 l 1
 297 268 l 2
 513 268 606 339 606 504 c 0
 606 661 510 728 284 728 c 2
 56 728 l 1
472 503 m 0
 472 410 422 370 306 370 c 2
 190 370 l 1
 190 629 l 1
 296 629 l 2
 418 629 472 592 472 503 c 0
EndSplineSet
EndChar

StartChar: Q
Encoding: 81 81 61
Width: 830
VWidth: 0
Flags: HW
LayerCount: 2
UndoRedoHistory
Layer: 0
Undoes
EndUndoes
Redoes
EndRedoes
EndUndoRedoHistory
UndoRedoHistory
Layer: 1
Undoes
EndUndoes
Redoes
EndRedoes
EndUndoRedoHistory
Fore
SplineSet
446 -6 m 1
 484 -88 538 -153 596 -211 c 1
 688 -132 l 1
 639 -86 595 -35 563 30 c 1
 446 -6 l 1
EndSplineSet
Refer: 52 79 N 1 0 0 1 0 0 2
EndChar

StartChar: R
Encoding: 82 82 62
Width: 686
VWidth: 0
Flags: HW
LayerCount: 2
UndoRedoHistory
Layer: 0
Undoes
EndUndoes
Redoes
EndRedoes
EndUndoRedoHistory
UndoRedoHistory
Layer: 1
Undoes
EndUndoes
Redoes
EndRedoes
EndUndoRedoHistory
Fore
SplineSet
76 728 m 1
 76 0 l 1
 206 0 l 1
 206 320 l 1
 306 320 l 2
 368 320 405 288 431 210 c 2
 502 0 l 1
 641 0 l 1
 570 205 l 2
 540 293 501 338 442 358 c 1
 558 388 607 441 607 537 c 0
 607 671 519 728 313 728 c 2
 76 728 l 1
481 529 m 0
 481 445 433 410 319 410 c 2
 206 410 l 1
 206 629 l 1
 324 629 l 2
 434 629 481 609 481 529 c 0
343 0 m 0
343 0 m 0
EndSplineSet
EndChar

StartChar: Racute
Encoding: 340 340 63
Width: 686
VWidth: 0
Flags: HW
LayerCount: 2
UndoRedoHistory
Layer: 0
Undoes
EndUndoes
Redoes
EndRedoes
EndUndoRedoHistory
UndoRedoHistory
Layer: 1
Undoes
EndUndoes
Redoes
EndRedoes
EndUndoRedoHistory
Fore
SplineSet
100 728 m 1
 100 0 l 1
 186 0 l 1
 186 326 l 1
 321 326 l 2
 419 326 444 282 470 210 c 2
 547 0 l 1
 641 0 l 1
 560 205 l 2
 533 273 510 336 442 358 c 1
 525 380 597 433 597 537 c 0
 597 705 446 728 278 728 c 2
 100 728 l 1
506 529 m 0
 506 429 417 400 319 400 c 2
 186 400 l 1
 186 654 l 1
 324 654 l 2
 426 654 506 631 506 529 c 0
415 961 m 1
 302 801 l 1
 367 801 l 1
 521 961 l 1
 415 961 l 1
EndSplineSet
EndChar

StartChar: Rcaron
Encoding: 344 344 64
Width: 686
VWidth: 0
Flags: HW
LayerCount: 2
UndoRedoHistory
Layer: 0
Undoes
EndUndoes
Redoes
EndRedoes
EndUndoRedoHistory
UndoRedoHistory
Layer: 1
Undoes
EndUndoes
Redoes
EndRedoes
EndUndoRedoHistory
Fore
SplineSet
100 728 m 1
 100 0 l 1
 186 0 l 1
 186 326 l 1
 321 326 l 2
 419 326 444 282 470 210 c 2
 547 0 l 1
 641 0 l 1
 560 205 l 2
 533 273 510 336 442 358 c 1
 525 380 597 433 597 537 c 0
 597 705 446 728 278 728 c 2
 100 728 l 1
506 529 m 0
 506 429 417 400 319 400 c 2
 186 400 l 1
 186 654 l 1
 324 654 l 2
 426 654 506 631 506 529 c 0
424 962 m 1
 340 854 l 1
 258 962 l 1
 184 962 l 1
 304 800 l 1
 382 800 l 1
 500 962 l 1
 424 962 l 1
EndSplineSet
EndChar

StartChar: Rcommaaccent
Encoding: 342 342 65
Width: 686
VWidth: 0
Flags: HW
LayerCount: 2
UndoRedoHistory
Layer: 0
Undoes
EndUndoes
Redoes
EndRedoes
EndUndoRedoHistory
UndoRedoHistory
Layer: 1
Undoes
EndUndoes
Redoes
EndRedoes
EndUndoRedoHistory
Fore
SplineSet
100 728 m 1
 100 0 l 1
 186 0 l 1
 186 326 l 1
 321 326 l 2
 419 326 444 282 470 210 c 2
 547 0 l 1
 641 0 l 1
 560 205 l 2
 533 273 510 336 442 358 c 1
 525 380 597 433 597 537 c 0
 597 705 446 728 278 728 c 2
 100 728 l 1
322 -81 m 1
 269 -312 l 1
 334 -312 l 1
 416 -81 l 1
 322 -81 l 1
506 529 m 0
 506 429 417 400 319 400 c 2
 186 400 l 1
 186 654 l 1
 324 654 l 2
 426 654 506 631 506 529 c 0
EndSplineSet
EndChar

StartChar: S
Encoding: 83 83 66
Width: 622
VWidth: 0
Flags: HW
LayerCount: 2
UndoRedoHistory
Layer: 0
Undoes
EndUndoes
Redoes
EndRedoes
EndUndoRedoHistory
UndoRedoHistory
Layer: 1
Undoes
EndUndoes
Redoes
EndRedoes
EndUndoRedoHistory
Fore
SplineSet
70 554 m 0
 68 450 112 385 283 336 c 0
 455 286 476 250 476 200 c 0
 476 114 427 62 324 62 c 0
 251 62 153 93 87 144 c 1
 73 62 l 1
 140 18 243 -11 332 -11 c 0
 495 -11 568 84 568 198 c 0
 568 290 526 354 338 408 c 0
 185 452 159 492 162 560 c 0
 165 631 220 667 328 667 c 0
 390 667 460 644 516 609 c 1
 542 680 l 1
 464 728 386 742 318 742 c 0
 172 742 72 669 70 554 c 0
311 0 m 0
311 0 m 0
EndSplineSet
EndChar

StartChar: Sacute
Encoding: 346 346 67
Width: 622
VWidth: 0
Flags: HW
LayerCount: 2
UndoRedoHistory
Layer: 0
Undoes
EndUndoes
Redoes
EndRedoes
EndUndoRedoHistory
UndoRedoHistory
Layer: 1
Undoes
EndUndoes
Redoes
EndRedoes
EndUndoRedoHistory
Fore
SplineSet
70 554 m 0
 68 450 112 385 283 336 c 0
 455 286 476 250 476 200 c 0
 476 114 427 62 324 62 c 0
 251 62 153 93 87 144 c 1
 73 62 l 1
 140 18 243 -11 332 -11 c 0
 495 -11 568 84 568 198 c 0
 568 290 526 354 338 408 c 0
 185 452 159 492 162 560 c 0
 165 631 220 667 328 667 c 0
 390 667 460 644 516 609 c 1
 542 680 l 1
 464 728 386 742 318 742 c 0
 172 742 72 669 70 554 c 0
392 961 m 1
 280 801 l 1
 344 801 l 1
 498 961 l 1
 392 961 l 1
EndSplineSet
EndChar

StartChar: Scaron
Encoding: 352 352 68
Width: 622
VWidth: 0
Flags: HW
LayerCount: 2
UndoRedoHistory
Layer: 0
Undoes
EndUndoes
Redoes
EndRedoes
EndUndoRedoHistory
UndoRedoHistory
Layer: 1
Undoes
EndUndoes
Redoes
EndRedoes
EndUndoRedoHistory
Fore
SplineSet
70 554 m 0
 68 450 112 385 283 336 c 0
 455 286 476 250 476 200 c 0
 476 114 427 62 324 62 c 0
 251 62 153 93 87 144 c 1
 73 62 l 1
 140 18 243 -11 332 -11 c 0
 495 -11 568 84 568 198 c 0
 568 290 526 354 338 408 c 0
 185 452 159 492 162 560 c 0
 165 631 220 667 328 667 c 0
 390 667 460 644 516 609 c 1
 542 680 l 1
 464 728 386 742 318 742 c 0
 172 742 72 669 70 554 c 0
401 962 m 1
 317 854 l 1
 235 962 l 1
 162 962 l 1
 281 800 l 1
 359 800 l 1
 478 962 l 1
 401 962 l 1
EndSplineSet
EndChar

StartChar: Scommaaccent
Encoding: 536 536 69
Width: 622
VWidth: 0
Flags: HW
LayerCount: 2
UndoRedoHistory
Layer: 0
Undoes
EndUndoes
Redoes
EndRedoes
EndUndoRedoHistory
UndoRedoHistory
Layer: 1
Undoes
EndUndoes
Redoes
EndRedoes
EndUndoRedoHistory
Fore
SplineSet
70 554 m 0
 68 450 112 385 283 336 c 0
 455 286 476 250 476 200 c 0
 476 114 427 62 324 62 c 0
 251 62 153 93 87 144 c 1
 73 62 l 1
 140 18 243 -11 332 -11 c 0
 495 -11 568 84 568 198 c 0
 568 290 526 354 338 408 c 0
 185 452 159 492 162 560 c 0
 165 631 220 667 328 667 c 0
 390 667 460 644 516 609 c 1
 542 680 l 1
 464 728 386 742 318 742 c 0
 172 742 72 669 70 554 c 0
291 -81 m 1
 238 -312 l 1
 303 -312 l 1
 384 -81 l 1
 291 -81 l 1
EndSplineSet
EndChar

StartChar: T
Encoding: 84 84 70
Width: 587
VWidth: 0
Flags: HW
LayerCount: 2
UndoRedoHistory
Layer: 0
Undoes
EndUndoes
Redoes
EndRedoes
EndUndoRedoHistory
UndoRedoHistory
Layer: 1
Undoes
EndUndoes
Redoes
EndRedoes
EndUndoRedoHistory
Fore
SplineSet
14 728 m 1
 14 629 l 1
 228 629 l 1
 228 0 l 1
 358 0 l 1
 358 629 l 1
 572 629 l 1
 572 728 l 1
 14 728 l 1
294 0 m 0
294 0 m 0
294 0 m 0
EndSplineSet
EndChar

StartChar: Thorn
Encoding: 222 222 71
Width: 637
VWidth: 0
Flags: HW
LayerCount: 2
UndoRedoHistory
Layer: 0
Undoes
EndUndoes
Redoes
EndRedoes
EndUndoRedoHistory
UndoRedoHistory
Layer: 1
Undoes
EndUndoes
Redoes
EndRedoes
EndUndoRedoHistory
Fore
SplineSet
102 728 m 1
 102 0 l 1
 188 0 l 1
 188 222 l 1
 298 222 l 2
 382 222 457 240 509 273 c 0
 561 305 600 357 600 438 c 0
 600 616 450 656 272 656 c 2
 188 656 l 1
 188 728 l 1
 102 728 l 1
508 437 m 0
 508 413 504 392 494 374 c 0
 465 320 401 296 318 296 c 2
 188 296 l 1
 188 582 l 1
 294 582 l 2
 414 582 508 557 508 437 c 0
EndSplineSet
EndChar

StartChar: U
Encoding: 85 85 72
Width: 766
VWidth: 0
Flags: HW
LayerCount: 2
UndoRedoHistory
Layer: 0
Undoes
EndUndoes
Redoes
EndRedoes
EndUndoRedoHistory
UndoRedoHistory
Layer: 1
Undoes
EndUndoes
Redoes
EndRedoes
EndUndoRedoHistory
Fore
SplineSet
568 728 m 1
 568 272 l 2
 568 166 495 96 387 96 c 0
 273 96 196 168 196 276 c 2
 196 728 l 1
 66 728 l 1
 66 274 l 2
 66 104 195 -11 388 -11 c 0
 574 -11 697 104 697 278 c 2
 697 728 l 1
 568 728 l 1
690 5 m 0
383 0 m 0
EndSplineSet
EndChar

StartChar: Uacute
Encoding: 218 218 73
Width: 766
VWidth: 0
Flags: HW
LayerCount: 2
UndoRedoHistory
Layer: 0
Undoes
EndUndoes
Redoes
EndRedoes
EndUndoRedoHistory
UndoRedoHistory
Layer: 1
Undoes
EndUndoes
Redoes
EndRedoes
EndUndoRedoHistory
Fore
SplineSet
582 728 m 1
 582 270 l 2
 582 140 513 62 387 62 c 0
 251 62 182 130 182 273 c 2
 182 728 l 1
 96 728 l 1
 96 270 l 2
 96 78 196 -11 388 -11 c 0
 569 -11 667 96 668 276 c 1
 668 728 l 1
 582 728 l 1
456 961 m 1
 342 801 l 1
 408 801 l 1
 562 961 l 1
 456 961 l 1
EndSplineSet
EndChar

StartChar: Ucircumflex
Encoding: 219 219 74
Width: 766
VWidth: 0
Flags: HW
LayerCount: 2
UndoRedoHistory
Layer: 0
Undoes
EndUndoes
Redoes
EndRedoes
EndUndoRedoHistory
UndoRedoHistory
Layer: 1
Undoes
EndUndoes
Redoes
EndRedoes
EndUndoRedoHistory
Fore
SplineSet
582 728 m 1
 582 270 l 2
 582 140 513 62 387 62 c 0
 251 62 182 130 182 273 c 2
 182 728 l 1
 96 728 l 1
 96 270 l 2
 96 78 196 -11 388 -11 c 0
 569 -11 667 96 668 276 c 1
 668 728 l 1
 582 728 l 1
344 962 m 1
 230 800 l 1
 292 800 l 1
 382 908 l 1
 470 800 l 1
 536 800 l 1
 422 962 l 1
 344 962 l 1
EndSplineSet
EndChar

StartChar: Udieresis
Encoding: 220 220 75
Width: 766
VWidth: 0
Flags: HW
LayerCount: 2
UndoRedoHistory
Layer: 0
Undoes
EndUndoes
Redoes
EndRedoes
EndUndoRedoHistory
UndoRedoHistory
Layer: 1
Undoes
EndUndoes
Redoes
EndRedoes
EndUndoRedoHistory
Fore
SplineSet
582 728 m 1
 582 270 l 2
 582 140 513 62 387 62 c 0
 251 62 182 130 182 273 c 2
 182 728 l 1
 96 728 l 1
 96 270 l 2
 96 78 196 -11 388 -11 c 0
 569 -11 667 96 668 276 c 1
 668 728 l 1
 582 728 l 1
259 888 m 1
 259 806 l 1
 341 806 l 1
 341 888 l 1
 259 888 l 1
425 888 m 1
 425 806 l 1
 507 806 l 1
 507 888 l 1
 425 888 l 1
EndSplineSet
EndChar

StartChar: Ugrave
Encoding: 217 217 76
Width: 766
VWidth: 0
Flags: HW
LayerCount: 2
UndoRedoHistory
Layer: 0
Undoes
EndUndoes
Redoes
EndRedoes
EndUndoRedoHistory
UndoRedoHistory
Layer: 1
Undoes
EndUndoes
Redoes
EndRedoes
EndUndoRedoHistory
Fore
SplineSet
582 728 m 1
 582 270 l 2
 582 140 513 62 387 62 c 0
 251 62 182 130 182 273 c 2
 182 728 l 1
 96 728 l 1
 96 270 l 2
 96 78 196 -11 388 -11 c 0
 569 -11 667 96 668 276 c 1
 668 728 l 1
 582 728 l 1
200 961 m 1
 366 801 l 1
 430 801 l 1
 306 961 l 1
 200 961 l 1
EndSplineSet
EndChar

StartChar: V
Encoding: 86 86 77
Width: 668
VWidth: 0
Flags: HW
LayerCount: 2
UndoRedoHistory
Layer: 0
Undoes
EndUndoes
Redoes
EndRedoes
EndUndoRedoHistory
UndoRedoHistory
Layer: 1
Undoes
EndUndoes
Redoes
EndRedoes
EndUndoRedoHistory
Fore
SplineSet
572 728 m 1
 359 153 l 1
 335 83 l 1
 312 154 l 1
 100 728 l 1
 4 728 l 1
 285 0 l 1
 380 0 l 1
 662 728 l 1
 572 728 l 1
EndSplineSet
EndChar

StartChar: W
Encoding: 87 87 78
Width: 1051
VWidth: 0
Flags: HW
LayerCount: 2
UndoRedoHistory
Layer: 0
Undoes
EndUndoes
Redoes
EndRedoes
EndUndoRedoHistory
UndoRedoHistory
Layer: 1
Undoes
EndUndoes
Redoes
EndRedoes
EndUndoRedoHistory
Fore
SplineSet
950 728 m 1
 798 174 l 1
 776 95 l 1
 754 172 l 1
 574 728 l 1
 484 728 l 1
 302 174 l 1
 278 94 l 1
 258 174 l 1
 104 728 l 1
 10 728 l 1
 222 0 l 1
 328 0 l 1
 526 624 l 1
 722 0 l 1
 828 0 l 1
 1040 728 l 1
 950 728 l 1
526 0 m 0
EndSplineSet
EndChar

StartChar: X
Encoding: 88 88 79
Width: 652
VWidth: 0
Flags: HW
LayerCount: 2
UndoRedoHistory
Layer: 0
Undoes
EndUndoes
Redoes
EndRedoes
EndUndoRedoHistory
UndoRedoHistory
Layer: 1
Undoes
EndUndoes
Redoes
EndRedoes
EndUndoRedoHistory
Fore
SplineSet
540 728 m 1
 331 427 l 1
 132 728 l 1
 24 728 l 1
 274 370 l 1
 6 0 l 1
 108 0 l 1
 323 315 l 1
 536 0 l 1
 642 0 l 1
 382 371 l 1
 638 728 l 1
 540 728 l 1
EndSplineSet
EndChar

StartChar: Y
Encoding: 89 89 80
Width: 633
VWidth: 0
Flags: HW
LayerCount: 2
UndoRedoHistory
Layer: 0
Undoes
EndUndoes
Redoes
EndRedoes
EndUndoRedoHistory
UndoRedoHistory
Layer: 1
Undoes
EndUndoes
Redoes
EndRedoes
EndUndoRedoHistory
Fore
SplineSet
534 728 m 1
 316 364 l 1
 100 728 l 1
 5 728 l 1
 272 291 l 1
 272 0 l 1
 358 0 l 1
 358 292 l 1
 629 728 l 1
 534 728 l 1
316 0 m 0
EndSplineSet
EndChar

StartChar: Yacute
Encoding: 221 221 81
Width: 633
VWidth: 0
Flags: HW
LayerCount: 2
UndoRedoHistory
Layer: 0
Undoes
EndUndoes
Redoes
EndRedoes
EndUndoRedoHistory
UndoRedoHistory
Layer: 1
Undoes
EndUndoes
Redoes
EndRedoes
EndUndoRedoHistory
Fore
SplineSet
534 728 m 1
 316 364 l 1
 100 728 l 1
 5 728 l 1
 272 291 l 1
 272 0 l 1
 358 0 l 1
 358 292 l 1
 629 728 l 1
 534 728 l 1
389 961 m 1
 276 801 l 1
 341 801 l 1
 495 961 l 1
 389 961 l 1
EndSplineSet
EndChar

StartChar: Ydieresis
Encoding: 376 376 82
Width: 633
VWidth: 0
Flags: HW
LayerCount: 2
UndoRedoHistory
Layer: 0
Undoes
EndUndoes
Redoes
EndRedoes
EndUndoRedoHistory
UndoRedoHistory
Layer: 1
Undoes
EndUndoes
Redoes
EndRedoes
EndUndoRedoHistory
Fore
SplineSet
534 728 m 1
 316 364 l 1
 100 728 l 1
 5 728 l 1
 272 291 l 1
 272 0 l 1
 358 0 l 1
 358 292 l 1
 629 728 l 1
 534 728 l 1
192 888 m 1
 192 806 l 1
 274 806 l 1
 274 888 l 1
 192 888 l 1
358 888 m 1
 358 806 l 1
 440 806 l 1
 440 888 l 1
 358 888 l 1
EndSplineSet
EndChar

StartChar: Z
Encoding: 90 90 83
Width: 611
VWidth: 0
Flags: HW
LayerCount: 2
UndoRedoHistory
Layer: 0
Undoes
EndUndoes
Redoes
EndRedoes
EndUndoRedoHistory
UndoRedoHistory
Layer: 1
Undoes
EndUndoes
Redoes
EndRedoes
EndUndoRedoHistory
Fore
SplineSet
45 728 m 1
 45 654 l 1
 461 654 l 1
 29 46 l 1
 29 0 l 1
 573 0 l 1
 573 74 l 1
 143 74 l 1
 577 684 l 1
 577 728 l 1
 45 728 l 1
306 0 m 0
EndSplineSet
EndChar

StartChar: Zacute
Encoding: 377 377 84
Width: 611
VWidth: 0
Flags: HW
LayerCount: 2
UndoRedoHistory
Layer: 0
Undoes
EndUndoes
Redoes
EndRedoes
EndUndoRedoHistory
UndoRedoHistory
Layer: 1
Undoes
EndUndoes
Redoes
EndRedoes
EndUndoRedoHistory
Fore
SplineSet
45 728 m 1
 45 654 l 1
 461 654 l 1
 29 46 l 1
 29 0 l 1
 573 0 l 1
 573 74 l 1
 143 74 l 1
 577 684 l 1
 577 728 l 1
 45 728 l 1
408 961 m 1
 295 801 l 1
 360 801 l 1
 514 961 l 1
 408 961 l 1
EndSplineSet
EndChar

StartChar: Zcaron
Encoding: 381 381 85
Width: 611
VWidth: 0
Flags: HW
LayerCount: 2
UndoRedoHistory
Layer: 0
Undoes
EndUndoes
Redoes
EndRedoes
EndUndoRedoHistory
UndoRedoHistory
Layer: 1
Undoes
EndUndoes
Redoes
EndRedoes
EndUndoRedoHistory
Fore
SplineSet
45 728 m 1
 45 654 l 1
 461 654 l 1
 29 46 l 1
 29 0 l 1
 573 0 l 1
 573 74 l 1
 143 74 l 1
 577 684 l 1
 577 728 l 1
 45 728 l 1
416 962 m 1
 332 854 l 1
 250 962 l 1
 177 962 l 1
 296 800 l 1
 374 800 l 1
 494 962 l 1
 416 962 l 1
EndSplineSet
EndChar

StartChar: Zdotaccent
Encoding: 379 379 86
Width: 611
VWidth: 0
Flags: HW
LayerCount: 2
UndoRedoHistory
Layer: 0
Undoes
EndUndoes
Redoes
EndRedoes
EndUndoRedoHistory
UndoRedoHistory
Layer: 1
Undoes
EndUndoes
Redoes
EndRedoes
EndUndoRedoHistory
Fore
SplineSet
45 728 m 1
 45 654 l 1
 461 654 l 1
 29 46 l 1
 29 0 l 1
 573 0 l 1
 573 74 l 1
 143 74 l 1
 577 684 l 1
 577 728 l 1
 45 728 l 1
296 920 m 1
 296 838 l 1
 376 838 l 1
 376 920 l 1
 296 920 l 1
EndSplineSet
EndChar

StartChar: a
Encoding: 97 97 87
Width: 550
VWidth: 0
Flags: HW
LayerCount: 2
UndoRedoHistory
Layer: 0
Undoes
EndUndoes
Redoes
EndRedoes
EndUndoRedoHistory
UndoRedoHistory
Layer: 1
Undoes
EndUndoes
Redoes
EndRedoes
EndUndoRedoHistory
Fore
SplineSet
43 179 m 0
 43 68 118 -11 230 -11 c 0
 290 -11 351 21 374 66 c 1
 386 25 436 -4 498 -4 c 1
 537 82 l 1
 486 74 460 102 460 136 c 2
 460 384 l 1
 419 408 348 431 290 431 c 0
 145 431 43 327 43 179 c 0
358 332 m 1
 358 177 l 2
 358 116 308 73 238 73 c 0
 186 73 149 119 149 183 c 0
 149 279 205 346 285 346 c 0
 309 346 340 342 358 332 c 1
561 5 m 0
316 0 m 0
EndSplineSet
EndChar

StartChar: a.alt
Encoding: 65538 -1 88
Width: 609
VWidth: 0
Flags: HW
LayerCount: 2
UndoRedoHistory
Layer: 0
Undoes
EndUndoes
Redoes
EndRedoes
EndUndoRedoHistory
UndoRedoHistory
Layer: 1
Undoes
EndUndoes
Redoes
EndRedoes
EndUndoRedoHistory
Fore
SplineSet
44 247 m 0
 44 96 140 -12 276 -12 c 0
 337 -12 416 7 462 83 c 1
 476 23 534 -2 578 -2 c 1
 596 70 l 1
 570 70 533 85 533 143 c 2
 533 260 l 2
 533 464 432 526 307 526 c 0
 142 526 44 422 44 247 c 0
451 262 m 0
 451 136 414 58 286 58 c 0
 194 58 128 139 128 252 c 0
 128 380 194 456 308 456 c 0
 398 456 451 407 451 262 c 0
548 5 m 0
305 0 m 0
EndSplineSet
EndChar

StartChar: abreve
Encoding: 259 259 90
Width: 609
VWidth: 0
Flags: HW
LayerCount: 2
UndoRedoHistory
Layer: 0
Undoes
EndUndoes
Redoes
EndRedoes
EndUndoRedoHistory
UndoRedoHistory
Layer: 1
Undoes
EndUndoes
Redoes
EndRedoes
EndUndoRedoHistory
Fore
SplineSet
57 219 m 0
 57 81 140 -11 260 -11 c 0
 321 -11 394 7 440 83 c 1
 454 23 512 -2 556 -2 c 1
 574 70 l 1
 548 70 511 85 511 143 c 2
 511 481 l 1
 459 512 398 524 336 524 c 0
 170 524 57 403 57 219 c 0
429 436 m 1
 429 202 l 2
 429 114 351 58 272 58 c 0
 194 58 142 124 142 224 c 0
 142 362 219 454 334 454 c 0
 362 454 401 450 429 436 c 1
420 727 m 1
 410 685 370 662 319 662 c 0
 268 662 232 683 224 727 c 1
 180 727 l 1
 186 647 236 609 322 609 c 0
 405 609 456 650 462 727 c 1
 420 727 l 1
EndSplineSet
EndChar

StartChar: acute
Encoding: 180 180 92
Width: 303
VWidth: 0
Flags: HW
LayerCount: 2
UndoRedoHistory
Layer: 0
Undoes
EndUndoes
Redoes
EndRedoes
EndUndoRedoHistory
UndoRedoHistory
Layer: 1
Undoes
EndUndoes
Redoes
EndRedoes
EndUndoRedoHistory
Fore
SplineSet
200 746 m 1
 88 586 l 1
 182 586 l 1
 336 746 l 1
 200 746 l 1
197 0 m 0
EndSplineSet
EndChar

StartChar: ae
Encoding: 230 230 94
Width: 903
VWidth: 0
Flags: HW
LayerCount: 2
UndoRedoHistory
Layer: 0
Undoes
EndUndoes
Redoes
EndRedoes
EndUndoRedoHistory
UndoRedoHistory
Layer: 1
Undoes
EndUndoes
Redoes
EndRedoes
EndUndoRedoHistory
Fore
SplineSet
439 428 m 1
 435 445 427 460 415 472 c 0
 385 504 335 526 275 526 c 0
 177 526 108 492 74 428 c 1
 119 382 l 1
 149 432 196 458 270 458 c 0
 353 458 386 396 386 314 c 2
 386 308 l 1
 222 308 40 305 40 141 c 0
 40 117 45 95 54 76 c 0
 80 20 138 -14 220 -14 c 0
 320 -14 388 36 427 98 c 1
 459 35 522 -12 616 -12 c 0
 723 -12 791 33 832 103 c 1
 788 146 l 1
 755 96 699 56 621 56 c 0
 515 56 470 127 470 232 c 0
 470 234 471 238 471 240 c 1
 848 240 l 1
 848 262 l 2
 848 422 777 526 616 526 c 0
 532 526 472 486 439 428 c 1
237 54 m 0
 173 54 125 81 125 145 c 0
 125 165 131 182 141 194 c 0
 175 232 244 236 314 238 c 1
 386 240 l 1
 386 132 347 54 237 54 c 0
762 308 m 1
 472 308 l 1
 474 328 478 347 486 365 c 0
 508 417 553 458 625 458 c 0
 720 458 754 395 762 308 c 1
452 0 m 0
EndSplineSet
EndChar

StartChar: amacron
Encoding: 257 257 96
Width: 609
VWidth: 0
Flags: HW
LayerCount: 2
UndoRedoHistory
Layer: 0
Undoes
EndUndoes
Redoes
EndRedoes
EndUndoRedoHistory
UndoRedoHistory
Layer: 1
Undoes
EndUndoes
Redoes
EndRedoes
EndUndoRedoHistory
Fore
SplineSet
57 219 m 0
 57 81 140 -11 260 -11 c 0
 321 -11 394 7 440 83 c 1
 454 23 512 -2 556 -2 c 1
 574 70 l 1
 548 70 511 85 511 143 c 2
 511 481 l 1
 459 512 398 524 336 524 c 0
 170 524 57 403 57 219 c 0
429 436 m 1
 429 202 l 2
 429 114 351 58 272 58 c 0
 194 58 142 124 142 224 c 0
 142 362 219 454 334 454 c 0
 362 454 401 450 429 436 c 1
178 658 m 1
 178 592 l 1
 464 592 l 1
 464 658 l 1
 178 658 l 1
EndSplineSet
EndChar

StartChar: ampersand
Encoding: 38 38 97
Width: 823
VWidth: 0
Flags: HW
LayerCount: 2
UndoRedoHistory
Layer: 0
Undoes
EndUndoes
Redoes
EndRedoes
EndUndoRedoHistory
UndoRedoHistory
Layer: 1
Undoes
EndUndoes
Redoes
EndRedoes
EndUndoRedoHistory
Fore
SplineSet
150 591 m 0
 150 573 152 557 158 543 c 0
 176 494 213 460 247 426 c 1
 200 401 152 372 116 336 c 0
 84 304 58 261 58 201 c 0
 58 167 64 136 78 110 c 0
 120 31 210 -14 330 -14 c 0
 446 -14 523 35 583 93 c 1
 628 50 669 5 743 -6 c 1
 809 43 l 1
 788 47 770 52 754 57 c 0
 700 75 667 104 630 142 c 1
 686 214 728 313 732 432 c 1
 648 442 l 1
 648 421 646 400 642 378 c 0
 630 309 606 247 572 199 c 1
 364 411 l 1
 403 432 443 457 471 488 c 0
 495 514 518 548 518 594 c 0
 518 618 513 639 502 657 c 0
 472 707 410 736 330 736 c 0
 230 736 150 691 150 591 c 0
412 262 m 2
 446 228 483 188 517 156 c 0
 524 150 528 146 529 146 c 1
 481 99 424 58 329 58 c 0
 303 58 278 61 256 69 c 0
 199 88 148 129 148 203 c 0
 148 225 152 244 160 261 c 0
 187 316 243 347 297 375 c 1
 412 262 l 2
432 589 m 0
 432 575 429 562 422 550 c 0
 400 509 354 481 312 459 c 1
 300 469 292 480 282 490 c 0
 259 514 236 543 236 589 c 0
 236 644 279 670 334 670 c 0
 388 670 432 643 432 589 c 0
EndSplineSet
EndChar

StartChar: aogonek
Encoding: 261 261 98
Width: 609
VWidth: 0
Flags: HW
LayerCount: 2
UndoRedoHistory
Layer: 0
Undoes
EndUndoes
Redoes
EndRedoes
EndUndoRedoHistory
UndoRedoHistory
Layer: 1
Undoes
EndUndoes
Redoes
EndRedoes
EndUndoRedoHistory
Fore
SplineSet
57 219 m 0
 57 81 140 -11 260 -11 c 0
 321 -11 394 7 440 83 c 1
 454 23 512 -2 556 -2 c 1
 574 70 l 1
 548 70 511 85 511 143 c 2
 511 481 l 1
 459 512 398 524 336 524 c 0
 170 524 57 403 57 219 c 0
437 -38 m 0
 421 -54 404 -77 404 -106 c 0
 404 -120 406 -132 412 -142 c 0
 429 -172 465 -188 512 -188 c 0
 544 -188 578 -184 601 -174 c 1
 601 -118 l 1
 578 -127 556 -134 524 -134 c 0
 498 -134 474 -119 474 -93 c 0
 474 -85 477 -77 482 -69 c 0
 503 -37 542 -15 576 6 c 1
 511 12 l 1
 484 -1 457 -18 437 -38 c 0
429 436 m 1
 429 202 l 2
 429 114 351 58 272 58 c 0
 194 58 142 124 142 224 c 0
 142 362 219 454 334 454 c 0
 362 454 401 450 429 436 c 1
EndSplineSet
EndChar

StartChar: approxequal
Encoding: 8776 8776 99
Width: 675
VWidth: 0
Flags: HW
LayerCount: 2
UndoRedoHistory
Layer: 0
Undoes
EndUndoes
Redoes
EndRedoes
EndUndoRedoHistory
UndoRedoHistory
Layer: 1
Undoes
EndUndoes
Redoes
EndRedoes
EndUndoRedoHistory
Fore
SplineSet
452 190 m 0
 438 190 422 195 405 203 c 0
 388 211 370 222 351 232 c 0
 317 250 275 273 226 273 c 0
 142 273 95 216 77 144 c 1
 134 130 l 1
 147 174 170 213 224 213 c 0
 238 213 253 210 268 204 c 0
 294 193 329 171 354 158 c 0
 382 144 409 131 449 131 c 0
 536 131 578 187 594 259 c 1
 538 273 l 1
 522 231 502 190 452 190 c 0
451 376 m 0
 437 376 423 380 407 386 c 0
 353 408 299 458 225 458 c 0
 139 458 92 404 76 330 c 1
 134 317 l 1
 147 361 170 400 223 400 c 0
 237 400 252 396 266 390 c 0
 292 378 326 357 352 344 c 0
 380 330 408 317 448 317 c 0
 534 317 577 373 592 445 c 1
 538 459 l 1
 523 416 501 376 451 376 c 0
EndSplineSet
EndChar

StartChar: asciicircum
Encoding: 94 94 101
Width: 728
VWidth: 0
Flags: HW
LayerCount: 2
UndoRedoHistory
Layer: 0
Undoes
EndUndoes
Redoes
EndRedoes
EndUndoRedoHistory
UndoRedoHistory
Layer: 1
Undoes
EndUndoes
Redoes
EndRedoes
EndUndoRedoHistory
Fore
SplineSet
332 716 m 1
 92 275 l 1
 170 275 l 1
 357 630 l 1
 550 275 l 1
 628 275 l 1
 383 716 l 1
 332 716 l 1
EndSplineSet
EndChar

StartChar: asciitilde
Encoding: 126 126 102
Width: 729
VWidth: 0
Flags: HW
LayerCount: 2
UndoRedoHistory
Layer: 0
Undoes
EndUndoes
Redoes
EndRedoes
EndUndoRedoHistory
UndoRedoHistory
Layer: 1
Undoes
EndUndoes
Redoes
EndRedoes
EndUndoRedoHistory
Fore
SplineSet
478 272 m 0
 470 272 461 274 450 278 c 0
 410 293 369 316 329 332 c 0
 305 342 276 352 246 352 c 0
 225 352 205 350 188 342 c 0
 140 321 106 276 94 220 c 1
 152 192 l 1
 162 237 192 286 247 286 c 0
 257 286 269 284 282 280 c 0
 325 266 365 244 405 226 c 0
 426 216 452 205 478 205 c 0
 498 205 516 208 532 215 c 0
 583 237 614 283 628 342 c 1
 566 362 l 1
 556 321 528 272 478 272 c 0
EndSplineSet
EndChar

StartChar: asterisk
Encoding: 42 42 103
Width: 532
VWidth: 0
Flags: HW
LayerCount: 2
UndoRedoHistory
Layer: 0
Undoes
EndUndoes
Redoes
EndRedoes
EndUndoRedoHistory
UndoRedoHistory
Layer: 1
Undoes
EndUndoes
Redoes
EndRedoes
EndUndoRedoHistory
Fore
SplineSet
220 726 m 1
 226 676 234 624 240 574 c 1
 98 636 l 1
 88 568 l 1
 224 529 l 1
 128 410 l 1
 190 372 l 1
 267 502 l 1
 346 368 l 1
 409 405 l 1
 308 530 l 1
 440 574 l 1
 408 637 l 1
 290 576 l 1
 290 726 l 1
 220 726 l 1
EndSplineSet
EndChar

StartChar: at
Encoding: 64 64 104
Width: 947
VWidth: 0
Flags: HW
LayerCount: 2
UndoRedoHistory
Layer: 0
Undoes
EndUndoes
Redoes
EndRedoes
EndUndoRedoHistory
UndoRedoHistory
Layer: 1
Undoes
EndUndoes
Redoes
EndRedoes
EndUndoRedoHistory
Fore
SplineSet
187 623 m 0
 119 559 65 468 65 340 c 0
 65 216 116 122 183 58 c 0
 252 -7 355 -54 484 -54 c 0
 616 -54 719 -9 783 61 c 1
 743 96 l 1
 681 43 595 6 486 6 c 0
 376 6 293 45 236 101 c 0
 181 155 140 234 140 338 c 0
 140 442 184 524 238 579 c 0
 294 635 377 678 483 678 c 0
 581 678 660 647 714 600 c 0
 764 556 804 488 804 398 c 0
 804 336 784 281 758 243 c 0
 736 211 702 175 654 175 c 0
 624 175 613 190 613 218 c 0
 613 234 617 258 625 292 c 0
 633 326 644 371 657 428 c 2
 686 554 l 1
 612 554 l 1
 604 511 l 1
 584 545 542 569 489 569 c 0
 417 569 361 529 323 488 c 0
 284 445 249 381 249 305 c 0
 249 276 253 250 262 228 c 0
 284 173 332 128 407 128 c 0
 465 128 507 156 536 192 c 1
 546 138 582 112 644 112 c 0
 714 112 770 153 806 195 c 0
 847 242 880 312 880 396 c 0
 880 510 830 588 766 642 c 0
 700 698 607 738 486 738 c 0
 355 738 257 689 187 623 c 0
570 410 m 0
 570 350 551 298 526 261 c 0
 503 227 468 192 416 192 c 0
 358 192 328 233 328 291 c 0
 328 347 349 397 373 433 c 0
 397 467 436 504 490 504 c 0
 548 504 570 468 570 410 c 0
EndSplineSet
EndChar

StartChar: b
Encoding: 98 98 106
Width: 566
VWidth: 0
Flags: HW
LayerCount: 2
UndoRedoHistory
Layer: 0
Undoes
EndUndoes
Redoes
EndRedoes
EndUndoRedoHistory
UndoRedoHistory
Layer: 1
Undoes
EndUndoes
Redoes
EndRedoes
EndUndoRedoHistory
Fore
SplineSet
72 616 m 1
 72 28 l 1
 72 28 163 -11 298 -11 c 0
 433 -11 523 83 523 223 c 0
 523 348 447 431 332 431 c 0
 268 431 204 402 176 358 c 1
 176 628 l 1
 72 616 l 1
417 222 m 0
 417 132 367 73 291 73 c 0
 223 73 176 86 176 86 c 1
 176 256 l 1
 208 310 262 347 310 347 c 0
 374 347 417 297 417 222 c 0
EndSplineSet
EndChar

StartChar: backslash
Encoding: 92 92 107
Width: 353
VWidth: 0
Flags: HW
LayerCount: 2
UndoRedoHistory
Layer: 0
Undoes
EndUndoes
Redoes
EndRedoes
EndUndoRedoHistory
UndoRedoHistory
Layer: 1
Undoes
EndUndoes
Redoes
EndRedoes
EndUndoRedoHistory
Fore
SplineSet
-35 726 m 1
 308 -60 l 1
 392 -60 l 1
 49 726 l 1
 -35 726 l 1
EndSplineSet
EndChar

StartChar: bar
Encoding: 124 124 108
Width: 250
VWidth: 0
Flags: HW
LayerCount: 2
UndoRedoHistory
Layer: 0
Undoes
EndUndoes
Redoes
EndRedoes
EndUndoRedoHistory
UndoRedoHistory
Layer: 1
Undoes
EndUndoes
Redoes
EndRedoes
EndUndoRedoHistory
Fore
SplineSet
84 772 m 1
 84 -246 l 1
 162 -246 l 1
 162 772 l 1
 84 772 l 1
EndSplineSet
EndChar

StartChar: braceleft
Encoding: 123 123 109
Width: 313
VWidth: 0
Flags: HW
LayerCount: 2
UndoRedoHistory
Layer: 0
Undoes
EndUndoes
Redoes
EndRedoes
EndUndoRedoHistory
UndoRedoHistory
Layer: 1
Undoes
EndUndoes
Redoes
EndRedoes
EndUndoRedoHistory
Fore
SplineSet
122 572 m 1
 122 551 122 529 122 508 c 0
 122 487 124 466 124 445 c 1
 124 379 103 334 43 328 c 1
 43 267 l 1
 111 260 122 211 122 137 c 2
 122 6 l 2
 122 -91 190 -126 283 -130 c 1
 283 -66 l 1
 267 -66 254 -65 244 -61 c 0
 206 -47 202 0 202 54 c 0
 202 86 202 130 202 162 c 0
 202 227 180 276 134 298 c 1
 176 320 204 368 204 434 c 2
 204 578 l 2
 204 636 227 660 283 662 c 1
 283 726 l 1
 175 726 122 678 122 572 c 1
EndSplineSet
EndChar

StartChar: braceright
Encoding: 125 125 110
Width: 313
VWidth: 0
Flags: HW
LayerCount: 2
UndoRedoHistory
Layer: 0
Undoes
EndUndoes
Redoes
EndRedoes
EndUndoRedoHistory
UndoRedoHistory
Layer: 1
Undoes
EndUndoes
Redoes
EndRedoes
EndUndoRedoHistory
Fore
SplineSet
33 662 m 1
 89 660 112 636 112 578 c 2
 112 434 l 2
 112 368 140 320 182 298 c 1
 136 276 114 227 114 162 c 0
 114 130 114 86 114 54 c 0
 114 30 112 11 110 -5 c 0
 102 -48 83 -66 33 -66 c 1
 33 -130 l 1
 126 -126 194 -91 194 6 c 2
 194 137 l 2
 194 153 194 167 195 182 c 0
 198 233 223 262 273 267 c 1
 274 328 l 1
 214 334 192 379 192 445 c 1
 192 466 194 487 194 508 c 0
 194 529 194 551 194 572 c 1
 194 678 141 726 33 726 c 1
 33 662 l 1
EndSplineSet
EndChar

StartChar: bracketleft
Encoding: 91 91 111
Width: 314
VWidth: 0
Flags: HW
LayerCount: 2
UndoRedoHistory
Layer: 0
Undoes
EndUndoes
Redoes
EndRedoes
EndUndoRedoHistory
UndoRedoHistory
Layer: 1
Undoes
EndUndoes
Redoes
EndRedoes
EndUndoRedoHistory
Fore
SplineSet
96 726 m 1
 96 -130 l 1
 274 -130 l 1
 274 -68 l 1
 177 -68 l 1
 177 664 l 1
 274 664 l 1
 274 726 l 1
 96 726 l 1
EndSplineSet
EndChar

StartChar: bracketright
Encoding: 93 93 112
Width: 314
VWidth: 0
Flags: HW
LayerCount: 2
UndoRedoHistory
Layer: 0
Undoes
EndUndoes
Redoes
EndRedoes
EndUndoRedoHistory
UndoRedoHistory
Layer: 1
Undoes
EndUndoes
Redoes
EndRedoes
EndUndoRedoHistory
Fore
SplineSet
39 726 m 1
 44 664 l 1
 139 664 l 1
 139 -68 l 1
 44 -68 l 1
 44 -130 l 1
 221 -130 l 1
 221 726 l 1
 39 726 l 1
EndSplineSet
EndChar

StartChar: breve
Encoding: 728 728 113
Width: 314
VWidth: 0
Flags: HW
LayerCount: 2
UndoRedoHistory
Layer: 0
Undoes
EndUndoes
Redoes
EndRedoes
EndUndoRedoHistory
UndoRedoHistory
Layer: 1
Undoes
EndUndoes
Redoes
EndRedoes
EndUndoRedoHistory
Fore
SplineSet
255 727 m 1
 245 685 205 662 154 662 c 0
 103 662 68 683 60 727 c 1
 16 727 l 1
 22 647 72 609 158 609 c 0
 241 609 292 650 298 727 c 1
 255 727 l 1
157 0 m 0
EndSplineSet
EndChar

StartChar: brokenbar
Encoding: 166 166 114
Width: 250
VWidth: 0
Flags: HW
LayerCount: 2
UndoRedoHistory
Layer: 0
Undoes
EndUndoes
Redoes
EndRedoes
EndUndoRedoHistory
UndoRedoHistory
Layer: 1
Undoes
EndUndoes
Redoes
EndRedoes
EndUndoRedoHistory
Fore
SplineSet
84 196 m 1
 84 -246 l 1
 162 -246 l 1
 162 196 l 1
 84 196 l 1
84 772 m 1
 84 338 l 1
 162 338 l 1
 162 772 l 1
 84 772 l 1
EndSplineSet
EndChar

StartChar: bullet
Encoding: 8226 8226 115
Width: 494
VWidth: 0
Flags: HW
LayerCount: 2
UndoRedoHistory
Layer: 0
Undoes
EndUndoes
Redoes
EndRedoes
EndUndoRedoHistory
UndoRedoHistory
Layer: 1
Undoes
EndUndoes
Redoes
EndRedoes
EndUndoRedoHistory
Fore
SplineSet
184 492 m 0
 130 470 78 421 78 347 c 0
 78 326 84 306 92 288 c 0
 116 235 170 192 246 192 c 0
 296 192 338 213 366 239 c 0
 393 264 416 302 416 350 c 0
 416 371 412 391 403 410 c 0
 379 462 325 505 249 505 c 0
 227 505 204 500 184 492 c 0
EndSplineSet
EndChar

StartChar: c
Encoding: 99 99 116
Width: 474
VWidth: 0
Flags: HW
LayerCount: 2
UndoRedoHistory
Layer: 0
Undoes
EndUndoes
Redoes
EndRedoes
EndUndoRedoHistory
UndoRedoHistory
Layer: 1
Undoes
EndUndoes
Redoes
EndRedoes
EndUndoRedoHistory
Fore
SplineSet
43 206 m 0
 43 76 141 -11 289 -11 c 0
 348 -11 415 10 456 42 c 1
 422 122 l 1
 390 94 338 76 294 76 c 0
 206 76 149 129 149 208 c 0
 149 291 205 346 290 346 c 0
 330 346 379 330 411 306 c 1
 442 379 l 1
 400 410 336 431 284 431 c 0
 140 431 43 341 43 206 c 0
266 0 m 0
266 0 m 0
EndSplineSet
EndChar

StartChar: cacute
Encoding: 263 263 117
Width: 512
VWidth: 0
Flags: HW
LayerCount: 2
UndoRedoHistory
Layer: 0
Undoes
EndUndoes
Redoes
EndRedoes
EndUndoRedoHistory
UndoRedoHistory
Layer: 1
Undoes
EndUndoes
Redoes
EndRedoes
EndUndoRedoHistory
Fore
SplineSet
45 252 m 0
 45 112 137 -11 306 -11 c 0
 375 -11 432 10 494 58 c 1
 464 119 l 1
 408 79 362 58 308 58 c 0
 214 58 130 130 130 254 c 0
 130 381 218 454 304 454 c 0
 356 454 398 439 443 401 c 1
 478 456 l 1
 428 504 376 524 304 524 c 0
 176 524 45 424 45 252 c 0
386 746 m 1
 272 586 l 1
 338 586 l 1
 492 746 l 1
 386 746 l 1
EndSplineSet
EndChar

StartChar: caron
Encoding: 711 711 118
Width: 349
VWidth: 0
Flags: HW
LayerCount: 2
UndoRedoHistory
Layer: 0
Undoes
EndUndoes
Redoes
EndRedoes
EndUndoRedoHistory
UndoRedoHistory
Layer: 1
Undoes
EndUndoes
Redoes
EndRedoes
EndUndoRedoHistory
Fore
SplineSet
254 746 m 1
 170 639 l 1
 88 746 l 1
 14 746 l 1
 134 585 l 1
 212 585 l 1
 331 746 l 1
 254 746 l 1
173 0 m 0
EndSplineSet
EndChar

StartChar: ccaron
Encoding: 269 269 119
Width: 512
VWidth: 0
Flags: HW
LayerCount: 2
UndoRedoHistory
Layer: 0
Undoes
EndUndoes
Redoes
EndRedoes
EndUndoRedoHistory
UndoRedoHistory
Layer: 1
Undoes
EndUndoes
Redoes
EndRedoes
EndUndoRedoHistory
Fore
SplineSet
45 252 m 0
 45 112 137 -11 306 -11 c 0
 375 -11 432 10 494 58 c 1
 464 119 l 1
 408 79 362 58 308 58 c 0
 214 58 130 130 130 254 c 0
 130 381 218 454 304 454 c 0
 356 454 398 439 443 401 c 1
 478 456 l 1
 428 504 376 524 304 524 c 0
 176 524 45 424 45 252 c 0
390 746 m 1
 306 639 l 1
 224 746 l 1
 150 746 l 1
 270 585 l 1
 348 585 l 1
 466 746 l 1
 390 746 l 1
EndSplineSet
EndChar

StartChar: cedilla
Encoding: 184 184 121
Width: 264
VWidth: 0
Flags: HW
LayerCount: 2
UndoRedoHistory
Layer: 0
Undoes
EndUndoes
Redoes
EndRedoes
EndUndoRedoHistory
UndoRedoHistory
Layer: 1
Undoes
EndUndoes
Redoes
EndRedoes
EndUndoRedoHistory
Fore
SplineSet
90 8 m 1
 74 -86 l 1
 90 -86 l 2
 96 -86 104 -84 108 -84 c 0
 138 -84 162 -90 162 -120 c 0
 162 -148 139 -156 106 -156 c 0
 79 -156 55 -150 30 -144 c 1
 26 -187 l 1
 53 -193 84 -198 114 -198 c 0
 174 -198 234 -180 234 -120 c 0
 234 -66 186 -47 134 -45 c 1
 130 -45 l 1
 138 8 l 1
 90 8 l 1
130 0 m 0
EndSplineSet
EndChar

StartChar: cent
Encoding: 162 162 122
Width: 594
VWidth: 0
Flags: HW
LayerCount: 2
UndoRedoHistory
Layer: 0
Undoes
EndUndoes
Redoes
EndRedoes
EndUndoRedoHistory
UndoRedoHistory
Layer: 1
Undoes
EndUndoes
Redoes
EndRedoes
EndUndoRedoHistory
Fore
SplineSet
47 252 m 0
 47 97 157 -12 304 -12 c 0
 361 -12 424 6 488 44 c 1
 470 112 l 1
 412 72 357 58 308 58 c 0
 206 58 134 129 134 254 c 0
 134 368 195 454 310 454 c 0
 370 454 414 436 442 400 c 1
 480 456 l 1
 446 501 385 526 305 526 c 0
 145 526 47 412 47 252 c 0
276 640 m 1
 276 -118 l 1
 333 -118 l 1
 333 640 l 1
 276 640 l 1
EndSplineSet
EndChar

StartChar: circumflex
Encoding: 710 710 123
Width: 349
VWidth: 0
Flags: HW
LayerCount: 2
UndoRedoHistory
Layer: 0
Undoes
EndUndoes
Redoes
EndRedoes
EndUndoRedoHistory
UndoRedoHistory
Layer: 1
Undoes
EndUndoes
Redoes
EndRedoes
EndUndoRedoHistory
Fore
SplineSet
132 747 m 1
 8 585 l 1
 100 585 l 1
 171 664 l 1
 238 585 l 1
 334 585 l 1
 210 747 l 1
 132 747 l 1
171 0 m 0
EndSplineSet
EndChar

StartChar: colon
Encoding: 58 58 124
Width: 270
VWidth: 0
Flags: HW
LayerCount: 2
UndoRedoHistory
Layer: 0
Undoes
EndUndoes
Redoes
EndRedoes
EndUndoRedoHistory
UndoRedoHistory
Layer: 1
Undoes
EndUndoes
Redoes
EndRedoes
EndUndoRedoHistory
Fore
SplineSet
80 526 m 1
 80 420 l 1
 188 420 l 1
 188 526 l 1
 80 526 l 1
80 100 m 1
 80 -6 l 1
 188 -6 l 1
 188 100 l 1
 80 100 l 1
EndSplineSet
EndChar

StartChar: comma
Encoding: 44 44 125
Width: 270
VWidth: 0
Flags: HW
LayerCount: 2
UndoRedoHistory
Layer: 0
Undoes
EndUndoes
Redoes
EndRedoes
EndUndoRedoHistory
UndoRedoHistory
Layer: 1
Undoes
EndUndoes
Redoes
EndRedoes
EndUndoRedoHistory
Fore
SplineSet
92 104 m 1
 39 -128 l 1
 104 -128 l 1
 186 104 l 1
 92 104 l 1
EndSplineSet
EndChar

StartChar: commaaccentcomb
Encoding: 806 806 126
Width: 270
VWidth: 0
Flags: HW
LayerCount: 2
UndoRedoHistory
Layer: 0
Undoes
EndUndoes
Redoes
EndRedoes
EndUndoRedoHistory
UndoRedoHistory
Layer: 1
Undoes
EndUndoes
Redoes
EndRedoes
EndUndoRedoHistory
Fore
SplineSet
92 -81 m 1
 39 -312 l 1
 104 -312 l 1
 186 -81 l 1
 92 -81 l 1
112 0 m 0
EndSplineSet
EndChar

StartChar: copyright
Encoding: 169 169 127
Width: 914
VWidth: 0
Flags: HW
LayerCount: 2
UndoRedoHistory
Layer: 0
Undoes
EndUndoes
Redoes
EndRedoes
EndUndoRedoHistory
UndoRedoHistory
Layer: 1
Undoes
EndUndoes
Redoes
EndRedoes
EndUndoRedoHistory
Fore
SplineSet
170 630 m 0
 106 570 52 483 52 363 c 0
 52 329 56 295 66 263 c 0
 86 195 123 140 170 96 c 0
 236 34 331 -16 457 -16 c 0
 581 -16 674 34 740 96 c 0
 804 156 858 242 858 362 c 0
 858 396 854 430 844 462 c 0
 824 530 786 585 740 629 c 0
 674 691 580 742 454 742 c 0
 330 742 236 692 170 630 c 0
375 586 m 0
 291 553 230 479 230 364 c 0
 230 330 236 300 248 271 c 0
 282 189 356 124 470 124 c 0
 530 124 581 140 624 170 c 1
 605 230 l 1
 575 206 536 190 486 190 c 0
 456 190 430 195 408 204 c 0
 348 229 306 282 306 366 c 0
 306 390 310 413 318 434 c 0
 340 494 391 540 472 540 c 0
 526 540 571 524 607 492 c 1
 622 552 l 1
 582 586 534 604 476 604 c 0
 439 604 405 598 375 586 c 0
697 590 m 0
 751 538 795 462 795 362 c 0
 795 262 752 186 698 135 c 0
 642 83 560 42 456 42 c 0
 352 42 269 82 213 135 c 0
 159 187 115 264 115 364 c 0
 115 464 159 540 213 591 c 0
 269 643 351 683 454 683 c 0
 558 683 641 642 697 590 c 0
EndSplineSet
EndChar

StartChar: currency
Encoding: 164 164 128
Width: 619
VWidth: 0
Flags: HW
LayerCount: 2
UndoRedoHistory
Layer: 0
Undoes
EndUndoes
Redoes
EndRedoes
EndUndoRedoHistory
UndoRedoHistory
Layer: 1
Undoes
EndUndoes
Redoes
EndRedoes
EndUndoRedoHistory
Fore
SplineSet
88 330 m 0
 88 224 177 137 283 137 c 0
 389 137 476 220 478 326 c 0
 480 432 394 522 288 524 c 0
 182 526 88 436 88 330 c 0
60 116 m 1
 78 98 l 1
 172 194 l 1
 156 214 l 1
 60 116 l 1
53 532 m 1
 150 438 l 1
 171 456 l 1
 72 552 l 1
 53 532 l 1
432 326 m 0
 430 242 366 176 282 176 c 0
 198 176 132 245 132 329 c 0
 132 413 202 484 286 482 c 0
 370 480 434 410 432 326 c 0
400 198 m 1
 497 105 l 1
 516 123 l 1
 418 217 l 1
 400 198 l 1
394 462 m 1
 414 444 l 1
 508 540 l 1
 488 560 l 1
 394 462 l 1
EndSplineSet
EndChar

StartChar: d
Encoding: 100 100 129
Width: 555
VWidth: 0
Flags: HW
LayerCount: 2
UndoRedoHistory
Layer: 0
Undoes
EndUndoes
Redoes
EndRedoes
EndUndoRedoHistory
UndoRedoHistory
Layer: 1
Undoes
EndUndoes
Redoes
EndRedoes
EndUndoRedoHistory
Fore
SplineSet
385 620 m 1
 385 394 l 1
 355 417 311 431 267 431 c 0
 133 431 43 341 43 205 c 0
 43 75 126 -11 250 -11 c 0
 315 -11 370 18 392 60 c 1
 396 42 408 14 422 -8 c 1
 522 10 l 1
 502 38 489 101 489 164 c 2
 489 628 l 1
 385 620 l 1
386 302 m 1
 386 218 l 2
 386 131 334 73 260 73 c 0
 194 73 149 127 149 208 c 0
 149 292 199 346 275 346 c 0
 319 346 366 329 386 302 c 1
312 0 m 0
EndSplineSet
EndChar

StartChar: dagger
Encoding: 8224 8224 130
Width: 511
VWidth: 0
Flags: HW
LayerCount: 2
UndoRedoHistory
Layer: 0
Undoes
EndUndoes
Redoes
EndRedoes
EndUndoRedoHistory
UndoRedoHistory
Layer: 1
Undoes
EndUndoes
Redoes
EndRedoes
EndUndoRedoHistory
Fore
SplineSet
216 726 m 1
 216 533 l 1
 54 533 l 1
 54 467 l 1
 216 467 l 1
 216 56 l 1
 280 56 l 1
 280 467 l 1
 460 467 l 1
 460 533 l 1
 288 533 l 1
 288 726 l 1
 216 726 l 1
EndSplineSet
EndChar

StartChar: daggerdbl
Encoding: 8225 8225 131
Width: 511
VWidth: 0
Flags: HW
LayerCount: 2
UndoRedoHistory
Layer: 0
Undoes
EndUndoes
Redoes
EndRedoes
EndUndoRedoHistory
UndoRedoHistory
Layer: 1
Undoes
EndUndoes
Redoes
EndRedoes
EndUndoRedoHistory
Fore
SplineSet
211 726 m 1
 224 558 l 1
 52 558 l 1
 52 492 l 1
 221 492 l 1
 221 281 l 1
 49 281 l 1
 49 218 l 1
 221 218 l 1
 210 56 l 1
 296 56 l 1
 282 218 l 1
 454 218 l 1
 454 281 l 1
 282 281 l 1
 282 492 l 1
 458 492 l 1
 458 558 l 1
 286 558 l 1
 296 726 l 1
 211 726 l 1
EndSplineSet
EndChar

StartChar: dblgravecmb
Encoding: 783 783 132
Width: 484
VWidth: 0
Flags: HW
LayerCount: 2
UndoRedoHistory
Layer: 0
Undoes
EndUndoes
Redoes
EndRedoes
EndUndoRedoHistory
UndoRedoHistory
Layer: 1
Undoes
EndUndoes
Redoes
EndRedoes
EndUndoRedoHistory
Fore
SplineSet
81 744 m 1
 219 587 l 1
 279 587 l 1
 169 744 l 1
 81 744 l 1
216 744 m 1
 354 587 l 1
 412 587 l 1
 304 744 l 1
 216 744 l 1
247 0 m 0
EndSplineSet
EndChar

StartChar: degree
Encoding: 176 176 133
Width: 422
VWidth: 0
Flags: HW
LayerCount: 2
UndoRedoHistory
Layer: 0
Undoes
EndUndoes
Redoes
EndRedoes
EndUndoRedoHistory
UndoRedoHistory
Layer: 1
Undoes
EndUndoes
Redoes
EndRedoes
EndUndoRedoHistory
Fore
SplineSet
146 710 m 0
 95 690 48 645 48 575 c 0
 48 555 52 536 60 518 c 0
 84 468 135 428 207 428 c 0
 229 428 248 431 268 439 c 0
 319 459 366 505 366 575 c 0
 366 595 362 614 354 632 c 0
 330 682 279 722 207 722 c 0
 185 722 166 718 146 710 c 0
244 657 m 0
 276 645 304 619 304 576 c 0
 304 564 301 551 296 540 c 0
 282 510 251 486 207 486 c 0
 193 486 181 488 169 492 c 0
 137 504 110 532 110 576 c 0
 110 588 113 600 118 611 c 0
 132 641 163 664 207 664 c 0
 220 664 232 661 244 657 c 0
EndSplineSet
EndChar

StartChar: dieresis
Encoding: 168 168 134
Width: 371
VWidth: 0
Flags: HW
LayerCount: 2
UndoRedoHistory
Layer: 0
Undoes
EndUndoes
Redoes
EndRedoes
EndUndoRedoHistory
UndoRedoHistory
Layer: 1
Undoes
EndUndoes
Redoes
EndRedoes
EndUndoRedoHistory
Fore
SplineSet
212 703 m 1
 212 592 l 1
 324 592 l 1
 324 703 l 1
 212 703 l 1
30 703 m 1
 30 592 l 1
 142 592 l 1
 142 703 l 1
 30 703 l 1
184 0 m 0
EndSplineSet
EndChar

StartChar: divide
Encoding: 247 247 135
Width: 729
VWidth: 0
Flags: HW
LayerCount: 2
UndoRedoHistory
Layer: 0
Undoes
EndUndoes
Redoes
EndRedoes
EndUndoRedoHistory
UndoRedoHistory
Layer: 1
Undoes
EndUndoes
Redoes
EndRedoes
EndUndoRedoHistory
Fore
SplineSet
99 312 m 1
 99 242 l 1
 623 242 l 1
 623 312 l 1
 99 312 l 1
310 116 m 1
 310 10 l 1
 418 10 l 1
 418 116 l 1
 310 116 l 1
310 542 m 1
 310 436 l 1
 418 436 l 1
 418 542 l 1
 310 542 l 1
EndSplineSet
EndChar

StartChar: dollar
Encoding: 36 36 136
Width: 595
VWidth: 0
Flags: HW
LayerCount: 2
UndoRedoHistory
Layer: 0
Undoes
EndUndoes
Redoes
EndRedoes
EndUndoRedoHistory
UndoRedoHistory
Layer: 1
Undoes
EndUndoes
Redoes
EndRedoes
EndUndoRedoHistory
Fore
SplineSet
265 788 m 1
 267 718 l 1
 211 714 163 689 130 658 c 0
 98 628 68 582 68 524 c 0
 68 496 74 472 84 452 c 0
 120 386 195 356 267 324 c 1
 266 64 l 1
 211 66 163 87 126 112 c 1
 101 44 l 1
 145 12 196 -6 266 -8 c 1
 268 -86 l 1
 330 -86 l 1
 328 -6 l 1
 356 -4 384 2 410 12 c 0
 479 37 540 88 540 180 c 0
 540 238 519 274 486 302 c 0
 444 338 390 361 328 385 c 1
 329 650 l 1
 391 648 439 631 474 599 c 1
 498 663 l 1
 458 697 398 718 328 720 c 1
 327 788 l 1
 265 788 l 1
450 179 m 0
 450 163 446 148 440 135 c 0
 420 96 379 73 327 66 c 1
 329 302 l 1
 383 279 450 253 450 179 c 0
266 409 m 1
 212 429 163 457 163 530 c 0
 163 597 207 638 267 646 c 1
 266 409 l 1
EndSplineSet
EndChar

StartChar: dotaccent
Encoding: 729 729 137
Width: 262
VWidth: 0
Flags: HW
LayerCount: 2
UndoRedoHistory
Layer: 0
Undoes
EndUndoes
Redoes
EndRedoes
EndUndoRedoHistory
UndoRedoHistory
Layer: 1
Undoes
EndUndoes
Redoes
EndRedoes
EndUndoRedoHistory
Fore
SplineSet
92 704 m 1
 92 623 l 1
 172 623 l 1
 172 704 l 1
 92 704 l 1
132 0 m 0
EndSplineSet
EndChar

StartChar: dotlessi
Encoding: 305 305 138
Width: 301
VWidth: 0
Flags: HW
LayerCount: 2
UndoRedoHistory
Layer: 0
Undoes
EndUndoes
Redoes
EndRedoes
EndUndoRedoHistory
UndoRedoHistory
Layer: 1
Undoes
EndUndoes
Redoes
EndRedoes
EndUndoRedoHistory
Fore
SplineSet
52 513 m 1
 52 139 l 2
 52 50 116 -2 222 -2 c 0
 246 -2 277 4 305 15 c 1
 295 105 l 1
 275 97 254 93 240 93 c 0
 202 93 180 124 180 176 c 2
 180 513 l 1
 52 513 l 1
226 5 m 0
126 0 m 0
EndSplineSet
EndChar

StartChar: e
Encoding: 101 101 139
Width: 492
VWidth: 0
Flags: HW
LayerCount: 2
UndoRedoHistory
Layer: 0
Undoes
EndUndoes
Redoes
EndRedoes
EndUndoRedoHistory
UndoRedoHistory
Layer: 1
Undoes
EndUndoes
Redoes
EndRedoes
EndUndoRedoHistory
Fore
SplineSet
43 211 m 0
 43 77 138 -11 280 -11 c 0
 345 -11 420 16 468 58 c 1
 430 131 l 1
 392 95 334 71 282 71 c 0
 224 71 174 101 157 146 c 1
 329 147 437 212 437 308 c 0
 437 382 371 431 273 431 c 0
 139 431 43 335 43 211 c 0
336 306 m 0
 336 257 264 222 146 218 c 1
 146 298 207 352 276 352 c 0
 312 352 336 334 336 306 c 0
479 5 m 0
265 0 m 0
265 0 m 0
EndSplineSet
EndChar

StartChar: e.alt
Encoding: 65539 -1 140
Width: 536
VWidth: 0
Flags: HW
LayerCount: 2
UndoRedoHistory
Layer: 0
Undoes
EndUndoes
Redoes
EndRedoes
EndUndoRedoHistory
UndoRedoHistory
Layer: 1
Undoes
EndUndoes
Redoes
EndRedoes
EndUndoRedoHistory
Fore
SplineSet
47 258 m 0
 47 88 162 -10 294 -10 c 0
 378 -10 447 23 506 85 c 1
 465 138 l 1
 428 94 368 62 298 62 c 0
 231 62 166 96 144 186 c 1
 327 213 473 254 473 376 c 0
 473 460 404 528 296 528 c 0
 134 528 47 402 47 258 c 0
392 378 m 0
 392 298 281 267 138 245 c 1
 137 253 137 262 137 270 c 0
 137 368 196 456 296 456 c 0
 356 456 392 424 392 378 c 0
483 5 m 0
268 0 m 0
268 0 m 0
EndSplineSet
EndChar

StartChar: eight
Encoding: 56 56 145
Width: 598
VWidth: 0
Flags: HW
LayerCount: 2
UndoRedoHistory
Layer: 0
Undoes
EndUndoes
Redoes
EndRedoes
EndUndoRedoHistory
UndoRedoHistory
Layer: 1
Undoes
EndUndoes
Redoes
EndRedoes
EndUndoRedoHistory
Fore
SplineSet
210 714 m 0
 136 692 70 640 70 546 c 0
 70 450 131 398 210 374 c 1
 120 348 52 290 52 184 c 0
 52 152 58 124 72 100 c 0
 110 31 193 -12 299 -12 c 0
 369 -12 430 9 472 39 c 0
 514 69 546 116 546 184 c 0
 546 290 478 348 388 374 c 1
 467 398 528 450 528 546 c 0
 528 574 522 600 510 622 c 0
 475 688 399 726 299 726 c 0
 267 726 238 722 210 714 c 0
458 190 m 0
 458 168 454 150 446 134 c 0
 422 86 370 60 299 60 c 0
 209 60 140 100 140 190 c 0
 140 210 144 228 152 244 c 0
 178 296 234 323 299 336 c 1
 377 320 458 284 458 190 c 0
442 543 m 0
 442 459 377 424 299 410 c 1
 221 424 156 459 156 543 c 0
 156 561 159 578 167 592 c 0
 189 634 237 658 299 658 c 0
 377 658 442 621 442 543 c 0
EndSplineSet
EndChar

StartChar: ellipsis
Encoding: 8230 8230 146
Width: 810
VWidth: 0
Flags: HW
LayerCount: 2
UndoRedoHistory
Layer: 0
Undoes
EndUndoes
Redoes
EndRedoes
EndUndoRedoHistory
UndoRedoHistory
Layer: 1
Undoes
EndUndoes
Redoes
EndRedoes
EndUndoRedoHistory
Fore
SplineSet
620 100 m 1
 620 -6 l 1
 728 -6 l 1
 728 100 l 1
 620 100 l 1
80 100 m 1
 80 -6 l 1
 188 -6 l 1
 188 100 l 1
 80 100 l 1
350 100 m 1
 350 -6 l 1
 458 -6 l 1
 458 100 l 1
 350 100 l 1
EndSplineSet
EndChar

StartChar: emacron
Encoding: 275 275 147
Width: 537
VWidth: 0
Flags: HW
LayerCount: 2
UndoRedoHistory
Layer: 0
Undoes
EndUndoes
Redoes
EndRedoes
EndUndoRedoHistory
UndoRedoHistory
Layer: 1
Undoes
EndUndoes
Redoes
EndRedoes
EndUndoRedoHistory
Fore
SplineSet
45 258 m 0
 45 94 146 -11 298 -11 c 0
 378 -11 454 21 504 73 c 1
 463 126 l 1
 429 88 368 58 298 58 c 0
 224 58 162 110 142 186 c 1
 325 213 471 254 471 376 c 0
 471 460 402 524 294 524 c 0
 130 524 45 398 45 258 c 0
390 378 m 0
 390 298 279 267 136 245 c 1
 135 253 135 263 135 270 c 0
 135 394 211 454 294 454 c 0
 354 454 390 424 390 378 c 0
140 658 m 1
 140 592 l 1
 426 592 l 1
 426 658 l 1
 140 658 l 1
EndSplineSet
EndChar

StartChar: emdash
Encoding: 8212 8212 148
Width: 1085
VWidth: 0
Flags: HW
LayerCount: 2
UndoRedoHistory
Layer: 0
Undoes
EndUndoes
Redoes
EndRedoes
EndUndoRedoHistory
UndoRedoHistory
Layer: 1
Undoes
EndUndoes
Redoes
EndRedoes
EndUndoRedoHistory
Fore
SplineSet
-2 313 m 1
 -2 244 l 1
 1080 244 l 1
 1080 313 l 1
 -2 313 l 1
EndSplineSet
EndChar

StartChar: endash
Encoding: 8211 8211 149
Width: 542
VWidth: 0
Flags: HW
LayerCount: 2
UndoRedoHistory
Layer: 0
Undoes
EndUndoes
Redoes
EndRedoes
EndUndoRedoHistory
UndoRedoHistory
Layer: 1
Undoes
EndUndoes
Redoes
EndRedoes
EndUndoRedoHistory
Fore
SplineSet
-3 313 m 1
 -3 244 l 1
 542 244 l 1
 542 313 l 1
 -3 313 l 1
EndSplineSet
EndChar

StartChar: eogonek
Encoding: 281 281 150
Width: 537
VWidth: 0
Flags: HW
LayerCount: 2
UndoRedoHistory
Layer: 0
Undoes
EndUndoes
Redoes
EndRedoes
EndUndoRedoHistory
UndoRedoHistory
Layer: 1
Undoes
EndUndoes
Redoes
EndRedoes
EndUndoRedoHistory
Fore
SplineSet
45 258 m 0
 45 94 146 -11 298 -11 c 0
 378 -11 454 21 504 73 c 1
 463 126 l 1
 429 88 368 58 298 58 c 0
 224 58 162 110 142 186 c 1
 325 213 471 254 471 376 c 0
 471 460 402 524 294 524 c 0
 130 524 45 398 45 258 c 0
282 -26 m 0
 266 -42 248 -65 248 -94 c 0
 248 -108 251 -120 257 -130 c 0
 274 -160 311 -177 358 -177 c 0
 390 -177 423 -172 446 -162 c 1
 446 -107 l 1
 423 -116 401 -122 369 -122 c 0
 343 -122 319 -108 319 -82 c 0
 319 -74 321 -66 326 -58 c 0
 347 -26 386 -3 420 18 c 1
 356 24 l 1
 329 11 302 -6 282 -26 c 0
390 378 m 0
 390 298 279 267 136 245 c 1
 135 253 135 263 135 270 c 0
 135 394 211 454 294 454 c 0
 354 454 390 424 390 378 c 0
EndSplineSet
EndChar

StartChar: equal
Encoding: 61 61 151
Width: 729
VWidth: 0
Flags: HW
LayerCount: 2
UndoRedoHistory
Layer: 0
Undoes
EndUndoes
Redoes
EndRedoes
EndUndoRedoHistory
UndoRedoHistory
Layer: 1
Undoes
EndUndoes
Redoes
EndRedoes
EndUndoRedoHistory
Fore
SplineSet
98 414 m 1
 98 344 l 1
 623 344 l 1
 623 414 l 1
 98 414 l 1
99 210 m 1
 99 142 l 1
 624 142 l 1
 624 210 l 1
 99 210 l 1
EndSplineSet
EndChar

StartChar: eth
Encoding: 240 240 152
Width: 595
VWidth: 0
Flags: HW
LayerCount: 2
UndoRedoHistory
Layer: 0
Undoes
EndUndoes
Redoes
EndRedoes
EndUndoRedoHistory
UndoRedoHistory
Layer: 1
Undoes
EndUndoes
Redoes
EndRedoes
EndUndoRedoHistory
Fore
SplineSet
287 703 m 1
 342 672 383 636 413 582 c 1
 310 582 l 1
 310 513 l 1
 441 513 l 1
 453 469 459 423 459 366 c 1
 459 362 l 1
 423 420 362 448 272 448 c 0
 237 448 206 443 178 432 c 0
 100 401 44 331 44 223 c 0
 44 190 49 158 61 130 c 0
 95 46 173 -12 290 -12 c 0
 330 -12 367 -4 399 11 c 0
 503 61 546 180 546 336 c 0
 546 402 537 461 522 513 c 1
 595 513 l 1
 595 582 l 1
 496 582 l 1
 460 658 406 714 326 745 c 1
 287 703 l 1
452 268 m 1
 452 256 l 2
 452 145 398 59 286 59 c 0
 262 59 242 63 223 71 c 0
 169 94 132 145 132 220 c 0
 132 318 186 378 286 378 c 0
 371 378 430 332 452 268 c 1
EndSplineSet
EndChar

StartChar: exclam
Encoding: 33 33 153
Width: 368
VWidth: 0
Flags: HW
LayerCount: 2
UndoRedoHistory
Layer: 0
Undoes
EndUndoes
Redoes
EndRedoes
EndUndoRedoHistory
UndoRedoHistory
Layer: 1
Undoes
EndUndoes
Redoes
EndRedoes
EndUndoRedoHistory
Fore
SplineSet
127 726 m 1
 152 186 l 1
 196 186 l 1
 220 726 l 1
 127 726 l 1
120 53 m 0
 120 23 140 -3 176 -3 c 0
 204 -3 233 17 233 52 c 0
 233 82 212 108 176 108 c 0
 148 108 120 88 120 53 c 0
EndSplineSet
EndChar

StartChar: exclamdown
Encoding: 161 161 154
Width: 368
VWidth: 0
Flags: HW
LayerCount: 2
UndoRedoHistory
Layer: 0
Undoes
EndUndoes
Redoes
EndRedoes
EndUndoRedoHistory
UndoRedoHistory
Layer: 1
Undoes
EndUndoes
Redoes
EndRedoes
EndUndoRedoHistory
Fore
SplineSet
130 347 m 1
 130 -192 l 1
 213 -192 l 1
 213 347 l 1
 130 347 l 1
130 545 m 1
 130 442 l 1
 237 442 l 1
 237 545 l 1
 130 545 l 1
EndSplineSet
EndChar

StartChar: f
Encoding: 102 102 155
Width: 334
VWidth: 0
Flags: HW
LayerCount: 2
UndoRedoHistory
Layer: 0
Undoes
EndUndoes
Redoes
EndRedoes
EndUndoRedoHistory
UndoRedoHistory
Layer: 1
Undoes
EndUndoes
Redoes
EndRedoes
EndUndoRedoHistory
Fore
SplineSet
120 468 m 2
 120 408 l 1
 37 408 l 1
 37 344 l 1
 120 344 l 1
 120 -17 l 2
 120 -75 98 -106 44 -118 c 1
 54 -208 l 1
 173 -192 224 -132 224 -20 c 2
 224 344 l 1
 314 344 l 1
 314 408 l 1
 224 408 l 1
 224 453 l 2
 224 517 254 539 298 539 c 0
 310 539 322 538 336 534 c 1
 346 604 l 1
 323 613 298 618 274 618 c 0
 196 618 120 570 120 468 c 2
EndSplineSet
EndChar

StartChar: five
Encoding: 53 53 156
Width: 595
VWidth: 0
Flags: HW
LayerCount: 2
UndoRedoHistory
Layer: 0
Undoes
EndUndoes
Redoes
EndRedoes
EndUndoRedoHistory
UndoRedoHistory
Layer: 1
Undoes
EndUndoes
Redoes
EndRedoes
EndUndoRedoHistory
Fore
SplineSet
102 712 m 1
 102 326 l 1
 190 329 l 1
 210 359 247 379 296 379 c 0
 320 379 342 375 360 367 c 0
 411 345 446 298 446 226 c 0
 446 204 442 182 434 162 c 0
 412 101 357 60 273 60 c 0
 198 60 148 94 114 144 c 1
 74 86 l 1
 112 27 178 -12 274 -12 c 0
 314 -12 351 -5 383 7 c 0
 468 39 534 110 534 224 c 0
 534 256 529 287 518 315 c 0
 486 397 412 452 300 452 c 0
 248 452 210 440 176 420 c 1
 183 640 l 1
 497 640 l 1
 497 712 l 1
 102 712 l 1
EndSplineSet
EndChar

StartChar: florin
Encoding: 402 402 157
Width: 595
VWidth: 0
Flags: HW
LayerCount: 2
UndoRedoHistory
Layer: 0
Undoes
EndUndoes
Redoes
EndRedoes
EndUndoRedoHistory
UndoRedoHistory
Layer: 1
Undoes
EndUndoes
Redoes
EndRedoes
EndUndoRedoHistory
Fore
SplineSet
267 547 m 1
 256 472 l 1
 171 472 l 1
 166 402 l 1
 244 402 l 1
 218 270 199 130 167 4 c 0
 156 -42 138 -97 82 -97 c 0
 70 -97 56 -95 42 -89 c 1
 36 -158 l 1
 55 -164 72 -166 88 -166 c 0
 118 -166 145 -160 165 -148 c 0
 229 -110 250 -26 266 60 c 1
 330 402 l 1
 436 402 l 1
 441 472 l 1
 341 472 l 1
 359 570 l 2
 368 618 388 647 446 647 c 0
 466 647 484 642 500 636 c 1
 504 708 l 1
 482 714 457 718 432 718 c 0
 321 718 280 644 267 547 c 1
EndSplineSet
EndChar

StartChar: four
Encoding: 52 52 158
Width: 594
VWidth: 0
Flags: HW
LayerCount: 2
UndoRedoHistory
Layer: 0
Undoes
EndUndoes
Redoes
EndRedoes
EndUndoRedoHistory
UndoRedoHistory
Layer: 1
Undoes
EndUndoes
Redoes
EndRedoes
EndUndoRedoHistory
Fore
SplineSet
345 710 m 1
 12 238 l 1
 12 176 l 1
 363 176 l 1
 363 0 l 1
 449 0 l 1
 449 176 l 1
 556 176 l 1
 556 242 l 1
 449 242 l 1
 449 710 l 1
 345 710 l 1
363 242 m 1
 98 242 l 1
 319 573 l 1
 363 646 l 1
 363 242 l 1
EndSplineSet
EndChar

StartChar: fraction
Encoding: 8260 8260 159
Width: 184
VWidth: 0
Flags: HW
LayerCount: 2
UndoRedoHistory
Layer: 0
Undoes
EndUndoes
Redoes
EndRedoes
EndUndoRedoHistory
UndoRedoHistory
Layer: 1
Undoes
EndUndoes
Redoes
EndRedoes
EndUndoRedoHistory
Fore
SplineSet
284 718 m 1
 -168 0 l 1
 -93 0 l 1
 358 718 l 1
 284 718 l 1
EndSplineSet
EndChar

StartChar: g
Encoding: 103 103 160
Width: 510
VWidth: 0
Flags: HW
LayerCount: 2
UndoRedoHistory
Layer: 0
Undoes
EndUndoes
Redoes
EndRedoes
EndUndoRedoHistory
UndoRedoHistory
Layer: 1
Undoes
EndUndoes
Redoes
EndRedoes
EndUndoRedoHistory
Fore
SplineSet
43 179 m 0
 43 68 118 -11 230 -11 c 0
 275 -11 321 8 351 36 c 1
 351 -8 l 2
 351 -88 291 -141 202 -141 c 0
 164 -141 116 -130 82 -112 c 1
 62 -198 l 1
 106 -220 169 -233 221 -233 c 0
 365 -233 460 -141 460 -4 c 2
 460 384 l 1
 419 408 348 431 290 431 c 0
 145 431 43 327 43 179 c 0
358 332 m 1
 358 177 l 2
 358 116 308 73 238 73 c 0
 186 73 149 119 149 183 c 0
 149 279 205 346 285 346 c 0
 309 346 340 342 358 332 c 1
286 0 m 0
EndSplineSet
EndChar

StartChar: gcommaaccent
Encoding: 291 291 161
Width: 571
VWidth: 0
Flags: HW
LayerCount: 2
UndoRedoHistory
Layer: 0
Undoes
EndUndoes
Redoes
EndRedoes
EndUndoRedoHistory
UndoRedoHistory
Layer: 1
Undoes
EndUndoes
Redoes
EndRedoes
EndUndoRedoHistory
Fore
SplineSet
48 211 m 0
 48 77 132 -11 252 -11 c 0
 313 -11 382 18 426 64 c 1
 426 3 l 2
 426 -113 374 -164 252 -164 c 0
 208 -164 146 -148 100 -125 c 1
 90 -202 l 1
 144 -220 212 -232 258 -232 c 0
 432 -232 508 -147 508 52 c 2
 508 477 l 1
 456 508 394 524 332 524 c 0
 164 524 48 400 48 211 c 0
426 436 m 1
 426 144 l 1
 380 93 317 58 268 58 c 0
 186 58 134 122 134 216 c 0
 134 360 211 454 331 454 c 0
 359 454 399 450 426 436 c 1
293 812 m 1
 212 581 l 1
 305 581 l 1
 358 812 l 1
 293 812 l 1
EndSplineSet
EndChar

StartChar: germandbls
Encoding: 223 223 162
Width: 628
VWidth: 0
Flags: HW
LayerCount: 2
UndoRedoHistory
Layer: 0
Undoes
EndUndoes
Redoes
EndRedoes
EndUndoRedoHistory
UndoRedoHistory
Layer: 1
Undoes
EndUndoes
Redoes
EndRedoes
EndUndoRedoHistory
Fore
SplineSet
210 740 m 0
 134 710 87 642 87 536 c 2
 88 0 l 1
 170 0 l 1
 170 50 170 109 170 163 c 0
 170 225 169 294 169 356 c 0
 169 410 168 469 168 519 c 0
 168 614 207 691 302 691 c 0
 366 691 412 660 412 596 c 0
 412 579 408 563 402 548 c 0
 382 501 340 467 294 446 c 1
 286 378 l 1
 336 350 389 321 429 285 c 0
 462 256 493 219 493 161 c 0
 493 99 456 54 394 54 c 0
 340 54 298 87 268 122 c 1
 236 69 l 1
 272 23 324 -12 396 -12 c 0
 420 -12 444 -6 467 2 c 0
 532 26 586 82 586 170 c 0
 586 203 580 232 566 257 c 0
 526 331 448 373 361 399 c 0
 351 402 346 405 346 408 c 0
 346 414 356 417 360 419 c 0
 394 434 426 458 452 484 c 0
 478 510 506 546 506 596 c 0
 506 618 501 638 492 658 c 0
 462 720 394 756 302 756 c 0
 268 756 237 750 210 740 c 0
EndSplineSet
EndChar

StartChar: grave
Encoding: 96 96 163
Width: 296
VWidth: 0
Flags: HW
LayerCount: 2
UndoRedoHistory
Layer: 0
Undoes
EndUndoes
Redoes
EndRedoes
EndUndoRedoHistory
UndoRedoHistory
Layer: 1
Undoes
EndUndoes
Redoes
EndRedoes
EndUndoRedoHistory
Fore
SplineSet
-30 746 m 1
 136 586 l 1
 231 586 l 1
 108 746 l 1
 -30 746 l 1
116 0 m 0
EndSplineSet
EndChar

StartChar: greater
Encoding: 62 62 164
Width: 729
VWidth: 0
Flags: HW
LayerCount: 2
UndoRedoHistory
Layer: 0
Undoes
EndUndoes
Redoes
EndRedoes
EndUndoRedoHistory
UndoRedoHistory
Layer: 1
Undoes
EndUndoes
Redoes
EndRedoes
EndUndoRedoHistory
Fore
SplineSet
110 463 m 1
 502 278 l 1
 108 106 l 1
 108 29 l 1
 612 252 l 1
 612 297 l 1
 110 539 l 1
 110 463 l 1
EndSplineSet
EndChar

StartChar: greaterequal
Encoding: 8805 8805 165
Width: 675
VWidth: 0
Flags: HW
LayerCount: 2
UndoRedoHistory
Layer: 0
Undoes
EndUndoes
Redoes
EndRedoes
EndUndoRedoHistory
UndoRedoHistory
Layer: 1
Undoes
EndUndoes
Redoes
EndRedoes
EndUndoRedoHistory
Fore
SplineSet
98 540 m 1
 487 354 l 1
 96 180 l 1
 96 109 l 1
 576 334 l 1
 576 374 l 1
 98 610 l 1
 98 540 l 1
80 66 m 1
 80 4 l 1
 586 4 l 1
 586 66 l 1
 80 66 l 1
EndSplineSet
EndChar

StartChar: guillemotleft
Encoding: 171 171 166
Width: 578
VWidth: 0
Flags: HW
LayerCount: 2
UndoRedoHistory
Layer: 0
Undoes
EndUndoes
Redoes
EndRedoes
EndUndoRedoHistory
UndoRedoHistory
Layer: 1
Undoes
EndUndoes
Redoes
EndRedoes
EndUndoRedoHistory
Fore
SplineSet
260 457 m 1
 123 270 l 1
 258 86 l 1
 336 86 l 1
 208 270 l 1
 340 457 l 1
 260 457 l 1
445 457 m 1
 308 270 l 1
 442 86 l 1
 521 86 l 1
 393 270 l 1
 524 457 l 1
 445 457 l 1
EndSplineSet
EndChar

StartChar: guillemotright
Encoding: 187 187 167
Width: 578
VWidth: 0
Flags: HW
LayerCount: 2
UndoRedoHistory
Layer: 0
Undoes
EndUndoes
Redoes
EndRedoes
EndUndoRedoHistory
UndoRedoHistory
Layer: 1
Undoes
EndUndoes
Redoes
EndRedoes
EndUndoRedoHistory
Fore
SplineSet
86 457 m 1
 215 271 l 1
 82 86 l 1
 162 86 l 1
 300 271 l 1
 165 457 l 1
 86 457 l 1
285 457 m 1
 412 271 l 1
 282 86 l 1
 360 86 l 1
 498 271 l 1
 363 457 l 1
 285 457 l 1
EndSplineSet
EndChar

StartChar: guilsinglleft
Encoding: 8249 8249 168
Width: 321
VWidth: 0
Flags: HW
LayerCount: 2
UndoRedoHistory
Layer: 0
Undoes
EndUndoes
Redoes
EndRedoes
EndUndoRedoHistory
UndoRedoHistory
Layer: 1
Undoes
EndUndoes
Redoes
EndRedoes
EndUndoRedoHistory
Fore
SplineSet
190 457 m 1
 52 270 l 1
 187 86 l 1
 265 86 l 1
 138 270 l 1
 269 457 l 1
 190 457 l 1
EndSplineSet
EndChar

StartChar: guilsinglright
Encoding: 8250 8250 169
Width: 321
VWidth: 0
Flags: HW
LayerCount: 2
UndoRedoHistory
Layer: 0
Undoes
EndUndoes
Redoes
EndRedoes
EndUndoRedoHistory
UndoRedoHistory
Layer: 1
Undoes
EndUndoes
Redoes
EndRedoes
EndUndoRedoHistory
Fore
SplineSet
56 457 m 1
 182 271 l 1
 52 86 l 1
 130 86 l 1
 268 271 l 1
 133 457 l 1
 56 457 l 1
EndSplineSet
EndChar

StartChar: h
Encoding: 104 104 170
Width: 628
VWidth: 0
Flags: HW
LayerCount: 2
UndoRedoHistory
Layer: 0
Undoes
EndUndoes
Redoes
EndRedoes
EndUndoRedoHistory
UndoRedoHistory
Layer: 1
Undoes
EndUndoes
Redoes
EndRedoes
EndUndoRedoHistory
Fore
SplineSet
137 356 m 1
 164 280 l 1
 194 316 238 341 274 341 c 0
 326 341 360 297 360 232 c 2
 360 114 l 2
 360 34 410 -20 484 -20 c 1
 508 -18 l 1
 519 64 l 1
 485 63 463 91 463 134 c 2
 463 242 l 2
 463 356 395 431 292 431 c 0
 238 431 175 404 137 356 c 1
58 614 m 1
 58 0 l 1
 164 0 l 1
 164 627 l 1
 58 614 l 1
306 0 m 0
306 0 m 0
EndSplineSet
EndChar

StartChar: hbar
Encoding: 295 295 171
Width: 612
VWidth: 0
Flags: HW
LayerCount: 2
UndoRedoHistory
Layer: 0
Undoes
EndUndoes
Redoes
EndRedoes
EndUndoRedoHistory
UndoRedoHistory
Layer: 1
Undoes
EndUndoes
Redoes
EndRedoes
EndUndoRedoHistory
Fore
SplineSet
158 434 m 1
 158 284 l 2
 158 386 240 454 314 454 c 0
 420 454 434 383 434 281 c 1
 433 176 l 1
 433 173 l 2
 433 51 472 -10 570 -12 c 1
 584 53 l 1
 532 63 516 104 516 178 c 2
 516 282 l 2
 518 428 469 524 333 524 c 0
 258 524 192 492 158 434 c 1
76 753 m 1
 76 0 l 1
 158 0 l 1
 158 763 l 1
 76 753 l 1
166 879 m 1
 166 812 l 1
 452 812 l 1
 452 879 l 1
 166 879 l 1
EndSplineSet
EndChar

StartChar: hungarumlaut
Encoding: 733 733 172
Width: 484
VWidth: 0
Flags: HW
LayerCount: 2
UndoRedoHistory
Layer: 0
Undoes
EndUndoes
Redoes
EndRedoes
EndUndoRedoHistory
UndoRedoHistory
Layer: 1
Undoes
EndUndoes
Redoes
EndRedoes
EndUndoRedoHistory
Fore
SplineSet
324 744 m 1
 214 587 l 1
 274 587 l 1
 412 744 l 1
 324 744 l 1
190 744 m 1
 81 587 l 1
 140 587 l 1
 278 744 l 1
 190 744 l 1
247 0 m 0
EndSplineSet
EndChar

StartChar: hyphen
Encoding: 45 45 173
Width: 364
VWidth: 0
Flags: HW
LayerCount: 2
UndoRedoHistory
Layer: 0
Undoes
EndUndoes
Redoes
EndRedoes
EndUndoRedoHistory
UndoRedoHistory
Layer: 1
Undoes
EndUndoes
Redoes
EndRedoes
EndUndoRedoHistory
Fore
SplineSet
40 313 m 1
 40 244 l 1
 326 244 l 1
 326 313 l 1
 40 313 l 1
EndSplineSet
EndChar

StartChar: i
Encoding: 105 105 174
Width: 317
VWidth: 0
Flags: HW
LayerCount: 2
UndoRedoHistory
Layer: 0
Undoes
EndUndoes
Redoes
EndRedoes
EndUndoRedoHistory
UndoRedoHistory
Layer: 1
Undoes
EndUndoes
Redoes
EndRedoes
EndUndoRedoHistory
Fore
SplineSet
62 422 m 1
 62 113 l 2
 62 -15 198 -32 296 12 c 1
 282 90 l 1
 222 69 166 65 166 140 c 2
 166 422 l 1
 62 422 l 1
44 562 m 0
 44 523 74 496 116 496 c 0
 158 496 187 524 187 562 c 0
 187 601 158 628 116 628 c 0
 74 628 44 601 44 562 c 0
EndSplineSet
EndChar

StartChar: ij
Encoding: 307 307 179
Width: 571
VWidth: 0
Flags: HW
LayerCount: 2
UndoRedoHistory
Layer: 0
Undoes
EndUndoes
Redoes
EndRedoes
EndUndoRedoHistory
UndoRedoHistory
Layer: 1
Undoes
EndUndoes
Redoes
EndRedoes
EndUndoRedoHistory
Fore
SplineSet
405 513 m 1
 405 -1 l 2
 405 -127 368 -165 312 -165 c 0
 295 -165 276 -162 256 -156 c 1
 246 -218 l 1
 278 -228 308 -232 334 -232 c 0
 428 -232 487 -166 487 2 c 2
 487 513 l 1
 405 513 l 1
84 513 m 1
 84 139 l 2
 84 33 146 -2 217 -2 c 0
 241 -2 275 5 300 15 c 1
 290 70 l 1
 272 64 243 59 228 59 c 0
 194 59 166 72 166 142 c 2
 166 513 l 1
 84 513 l 1
72 672 m 0
 72 639 99 622 126 622 c 0
 153 622 180 639 180 672 c 0
 180 705 153 722 126 722 c 0
 99 722 72 705 72 672 c 0
393 672 m 0
 393 639 419 622 446 622 c 0
 473 622 500 639 500 672 c 0
 500 705 474 722 447 722 c 0
 420 722 393 705 393 672 c 0
EndSplineSet
EndChar

StartChar: imacron
Encoding: 299 299 180
Width: 251
VWidth: 0
Flags: HW
LayerCount: 2
UndoRedoHistory
Layer: 0
Undoes
EndUndoes
Redoes
EndRedoes
EndUndoRedoHistory
UndoRedoHistory
Layer: 1
Undoes
EndUndoes
Redoes
EndRedoes
EndUndoRedoHistory
Fore
SplineSet
84 513 m 1
 84 139 l 2
 84 33 146 -2 217 -2 c 0
 241 -2 275 5 300 15 c 1
 290 70 l 1
 272 64 243 59 228 59 c 0
 194 59 166 72 166 142 c 2
 166 513 l 1
 84 513 l 1
-17 658 m 1
 -17 592 l 1
 269 592 l 1
 269 658 l 1
 -17 658 l 1
EndSplineSet
EndChar

StartChar: infinity
Encoding: 8734 8734 181
Width: 862
VWidth: 0
Flags: HW
LayerCount: 2
UndoRedoHistory
Layer: 0
Undoes
EndUndoes
Redoes
EndRedoes
EndUndoRedoHistory
UndoRedoHistory
Layer: 1
Undoes
EndUndoes
Redoes
EndRedoes
EndUndoRedoHistory
Fore
SplineSet
572 463 m 0
 510 442 468 394 431 346 c 1
 417 365 402 382 386 398 c 0
 348 436 300 472 228 472 c 0
 176 472 131 450 102 424 c 0
 73 398 48 358 48 306 c 0
 48 280 52 256 61 234 c 0
 86 170 142 118 230 118 c 0
 250 118 269 121 287 127 c 0
 349 149 392 196 430 244 c 1
 463 202 495 171 527 150 c 0
 559 129 593 118 630 118 c 0
 654 118 677 123 699 131 c 0
 761 155 810 213 810 298 c 0
 810 324 806 346 798 368 c 0
 774 430 717 472 631 472 c 0
 609 472 590 469 572 463 c 0
276 405 m 0
 329 384 365 339 396 294 c 1
 374 264 348 234 320 212 c 0
 297 194 270 178 232 178 c 0
 214 178 197 182 183 188 c 0
 145 206 113 242 113 296 c 0
 113 312 116 328 121 342 c 0
 136 384 170 414 226 414 c 0
 244 414 260 411 276 405 c 0
674 406 m 0
 710 391 741 359 741 309 c 0
 741 233 708 178 632 178 c 0
 596 178 571 190 548 208 c 0
 516 232 490 262 464 296 c 1
 484 326 510 356 538 378 c 0
 562 396 591 414 629 414 c 0
 645 414 660 412 674 406 c 0
EndSplineSet
EndChar

StartChar: integral
Encoding: 8747 8747 182
Width: 351
VWidth: 0
Flags: HW
LayerCount: 2
UndoRedoHistory
Layer: 0
Undoes
EndUndoes
Redoes
EndRedoes
EndUndoRedoHistory
UndoRedoHistory
Layer: 1
Undoes
EndUndoes
Redoes
EndRedoes
EndUndoRedoHistory
Fore
SplineSet
196 628 m 2
 196 -24 l 2
 196 -92 184 -132 116 -132 c 0
 98 -132 74 -129 61 -124 c 1
 62 -189 l 1
 86 -195 100 -200 130 -200 c 0
 242 -200 278 -123 278 -12 c 2
 278 640 l 2
 278 708 292 748 360 748 c 0
 378 748 402 745 415 740 c 1
 414 805 l 1
 392 810 374 816 346 816 c 0
 234 816 196 739 196 628 c 2
EndSplineSet
EndChar

StartChar: iogonek
Encoding: 303 303 183
Width: 301
VWidth: 0
Flags: HW
LayerCount: 2
UndoRedoHistory
Layer: 0
Undoes
EndUndoes
Redoes
EndRedoes
EndUndoRedoHistory
UndoRedoHistory
Layer: 1
Undoes
EndUndoes
Redoes
EndRedoes
EndUndoRedoHistory
Fore
SplineSet
84 513 m 1
 84 139 l 2
 84 33 146 -2 217 -2 c 0
 241 -2 275 5 300 15 c 1
 290 70 l 1
 272 64 243 59 228 59 c 0
 194 59 166 72 166 142 c 2
 166 513 l 1
 84 513 l 1
60 -44 m 0
 44 -60 26 -83 26 -112 c 0
 26 -126 28 -138 34 -148 c 0
 51 -178 88 -195 135 -195 c 0
 167 -195 201 -190 224 -180 c 1
 224 -125 l 1
 201 -134 178 -140 146 -140 c 0
 120 -140 96 -126 96 -100 c 0
 96 -92 99 -84 104 -76 c 0
 125 -44 164 -21 198 0 c 1
 134 6 l 1
 107 -7 80 -24 60 -44 c 0
72 672 m 0
 72 639 99 622 126 622 c 0
 153 622 180 639 180 672 c 0
 180 705 153 722 126 722 c 0
 99 722 72 705 72 672 c 0
EndSplineSet
EndChar

StartChar: itilde
Encoding: 297 297 184
Width: 251
VWidth: 0
Flags: HW
LayerCount: 2
UndoRedoHistory
Layer: 0
Undoes
EndUndoes
Redoes
EndRedoes
EndUndoRedoHistory
UndoRedoHistory
Layer: 1
Undoes
EndUndoes
Redoes
EndRedoes
EndUndoRedoHistory
Fore
SplineSet
84 513 m 1
 84 139 l 2
 84 33 146 -2 217 -2 c 0
 241 -2 275 5 300 15 c 1
 290 70 l 1
 272 64 243 59 228 59 c 0
 194 59 166 72 166 142 c 2
 166 513 l 1
 84 513 l 1
233 718 m 1
 229 692 216 672 190 672 c 0
 180 672 170 674 160 678 c 0
 131 688 102 706 64 706 c 0
 2 706 -30 660 -35 602 c 1
 18 602 l 1
 22 630 36 644 63 644 c 0
 111 644 142 610 190 610 c 0
 252 610 281 662 287 718 c 1
 233 718 l 1
EndSplineSet
EndChar

StartChar: j
Encoding: 106 106 185
Width: 269
VWidth: 0
Flags: HW
LayerCount: 2
UndoRedoHistory
Layer: 0
Undoes
EndUndoes
Redoes
EndRedoes
EndUndoRedoHistory
UndoRedoHistory
Layer: 1
Undoes
EndUndoes
Redoes
EndRedoes
EndUndoRedoHistory
Fore
SplineSet
44 422 m 1
 44 -26 l 2
 44 -94 21 -128 -23 -128 c 0
 -25 -128 -40 -126 -68 -122 c 1
 -82 -204 l 1
 -54 -211 -28 -214 -5 -214 c 0
 97 -214 148 -151 148 -22 c 2
 148 422 l 1
 44 422 l 1
20 562 m 0
 20 524 48 496 90 496 c 0
 132 496 162 524 162 562 c 0
 162 602 133 628 91 628 c 0
 49 628 20 601 20 562 c 0
EndSplineSet
EndChar

StartChar: jcircumflex
Encoding: 309 309 186
Width: 251
VWidth: 0
Flags: HW
LayerCount: 2
UndoRedoHistory
Layer: 0
Undoes
EndUndoes
Redoes
EndRedoes
EndUndoRedoHistory
UndoRedoHistory
Layer: 1
Undoes
EndUndoes
Redoes
EndRedoes
EndUndoRedoHistory
Fore
SplineSet
88 513 m 1
 88 16 l 2
 88 -72 69 -142 -9 -142 c 0
 -24 -142 -36 -138 -51 -136 c 1
 -50 -208 l 1
 -31 -212 -12 -214 10 -214 c 0
 33 -214 53 -212 70 -204 c 0
 148 -170 170 -76 170 36 c 2
 170 513 l 1
 88 513 l 1
89 748 m 1
 -25 586 l 1
 38 586 l 1
 127 694 l 1
 216 586 l 1
 282 586 l 1
 168 748 l 1
 89 748 l 1
EndSplineSet
EndChar

StartChar: k
Encoding: 107 107 187
Width: 581
VWidth: 0
Flags: HW
LayerCount: 2
UndoRedoHistory
Layer: 0
Undoes
EndUndoes
Redoes
EndRedoes
EndUndoRedoHistory
UndoRedoHistory
Layer: 1
Undoes
EndUndoes
Redoes
EndRedoes
EndUndoRedoHistory
Fore
SplineSet
58 612 m 1
 58 36 l 2
 58 -19 123 -38 155 7 c 1
 251 129 l 1
 319 50 l 2
 365 -4 412 -30 456 -30 c 1
 505 52 l 1
 452 53 428 74 388 120 c 2
 315 206 l 1
 453 398 l 1
 354 418 l 1
 162 159 l 1
 162 626 l 1
 58 612 l 1
282 0 m 0
EndSplineSet
EndChar

StartChar: k.alt
Encoding: 65540 -1 188
Width: 541
VWidth: 0
Flags: HW
LayerCount: 2
UndoRedoHistory
Layer: 0
Undoes
EndUndoes
Redoes
EndRedoes
EndUndoRedoHistory
UndoRedoHistory
Layer: 1
Undoes
EndUndoes
Redoes
EndRedoes
EndUndoRedoHistory
Fore
SplineSet
89 763 m 1
 89 0 l 1
 152 0 l 1
 268 172 383 342 499 513 c 1
 410 513 l 1
 172 154 l 1
 172 763 l 1
 89 763 l 1
289 242 m 1
 442 0 l 1
 533 0 l 1
 346 292 l 1
 289 242 l 1
270 0 m 0
EndSplineSet
EndChar

StartChar: kcommaaccent
Encoding: 311 311 189
Width: 553
VWidth: 0
Flags: HW
LayerCount: 2
UndoRedoHistory
Layer: 0
Undoes
EndUndoes
Redoes
EndRedoes
EndUndoRedoHistory
UndoRedoHistory
Layer: 1
Undoes
EndUndoes
Redoes
EndRedoes
EndUndoRedoHistory
Fore
SplineSet
76 748 m 1
 76 0 l 1
 138 0 l 1
 301 222 l 1
 382 94 l 2
 424 27 470 -12 522 -22 c 1
 556 40 l 1
 520 44 482 79 446 135 c 2
 347 290 l 1
 490 488 l 1
 416 513 l 1
 158 154 l 1
 158 763 l 1
 76 748 l 1
274 -81 m 1
 220 -312 l 1
 286 -312 l 1
 367 -81 l 1
 274 -81 l 1
EndSplineSet
EndChar

StartChar: kgreenlandic
Encoding: 312 312 190
Width: 541
VWidth: 0
Flags: HW
LayerCount: 2
UndoRedoHistory
Layer: 0
Undoes
EndUndoes
Redoes
EndRedoes
EndUndoRedoHistory
UndoRedoHistory
Layer: 1
Undoes
EndUndoes
Redoes
EndRedoes
EndUndoRedoHistory
Fore
SplineSet
404 513 m 1
 172 278 l 1
 172 513 l 1
 89 513 l 1
 89 0 l 1
 172 0 l 1
 172 236 l 1
 426 0 l 1
 536 0 l 1
 440 87 348 169 252 256 c 1
 517 513 l 1
 404 513 l 1
EndSplineSet
EndChar

StartChar: l
Encoding: 108 108 191
Width: 358
VWidth: 0
Flags: HW
LayerCount: 2
UndoRedoHistory
Layer: 0
Undoes
EndUndoes
Redoes
EndRedoes
EndUndoRedoHistory
UndoRedoHistory
Layer: 1
Undoes
EndUndoes
Redoes
EndRedoes
EndUndoRedoHistory
Fore
SplineSet
58 614 m 1
 58 122 l 2
 58 29 120 -11 205 -11 c 0
 237 -11 273 -4 310 6 c 1
 300 86 l 1
 280 80 247 75 228 75 c 0
 187 75 162 96 162 144 c 2
 162 626 l 1
 58 614 l 1
180 0 m 0
180 0 m 0
348 0 m 0
EndSplineSet
EndChar

StartChar: ldot
Encoding: 320 320 192
Width: 343
VWidth: 0
Flags: HW
LayerCount: 2
UndoRedoHistory
Layer: 0
Undoes
EndUndoes
Redoes
EndRedoes
EndUndoRedoHistory
UndoRedoHistory
Layer: 1
Undoes
EndUndoes
Redoes
EndRedoes
EndUndoRedoHistory
Fore
SplineSet
84 748 m 1
 84 150 l 2
 84 63 132 -6 236 -6 c 0
 263 -6 305 0 345 12 c 1
 332 76 l 1
 308 68 278 62 254 62 c 0
 204 62 166 89 166 146 c 2
 166 763 l 1
 84 748 l 1
259 671 m 1
 259 566 l 1
 368 566 l 1
 368 671 l 1
 259 671 l 1
EndSplineSet
EndChar

StartChar: less
Encoding: 60 60 193
Width: 729
VWidth: 0
Flags: HW
LayerCount: 2
UndoRedoHistory
Layer: 0
Undoes
EndUndoes
Redoes
EndRedoes
EndUndoRedoHistory
UndoRedoHistory
Layer: 1
Undoes
EndUndoes
Redoes
EndRedoes
EndUndoRedoHistory
Fore
SplineSet
110 298 m 1
 110 254 l 1
 612 24 l 1
 612 100 l 1
 219 276 l 1
 614 457 l 1
 614 534 l 1
 110 298 l 1
EndSplineSet
EndChar

StartChar: lessequal
Encoding: 8804 8804 194
Width: 675
VWidth: 0
Flags: HW
LayerCount: 2
UndoRedoHistory
Layer: 0
Undoes
EndUndoes
Redoes
EndRedoes
EndUndoRedoHistory
UndoRedoHistory
Layer: 1
Undoes
EndUndoes
Redoes
EndRedoes
EndUndoRedoHistory
Fore
SplineSet
98 374 m 1
 98 333 l 1
 573 108 l 1
 573 178 l 1
 186 355 l 1
 573 540 l 1
 573 610 l 1
 98 374 l 1
80 66 m 1
 80 4 l 1
 588 4 l 1
 588 66 l 1
 80 66 l 1
EndSplineSet
EndChar

StartChar: logicalnot
Encoding: 172 172 195
Width: 729
VWidth: 0
Flags: HW
LayerCount: 2
UndoRedoHistory
Layer: 0
Undoes
EndUndoes
Redoes
EndRedoes
EndUndoRedoHistory
UndoRedoHistory
Layer: 1
Undoes
EndUndoes
Redoes
EndRedoes
EndUndoRedoHistory
Fore
SplineSet
100 399 m 1
 100 330 l 1
 549 330 l 1
 549 119 l 1
 624 119 l 1
 624 399 l 1
 100 399 l 1
EndSplineSet
EndChar

StartChar: lozenge
Encoding: 9674 9674 196
Width: 624
VWidth: 0
Flags: HW
LayerCount: 2
UndoRedoHistory
Layer: 0
Undoes
EndUndoes
Redoes
EndRedoes
EndUndoRedoHistory
UndoRedoHistory
Layer: 1
Undoes
EndUndoes
Redoes
EndRedoes
EndUndoRedoHistory
Fore
SplineSet
285 735 m 1
 56 356 l 1
 281 -22 l 1
 334 -22 l 1
 565 356 l 1
 338 735 l 1
 285 735 l 1
490 356 m 1
 430 254 366 153 308 49 c 1
 250 153 189 254 130 356 c 1
 190 458 254 557 312 662 c 1
 369 558 431 458 490 356 c 1
EndSplineSet
EndChar

StartChar: lslash
Encoding: 322 322 197
Width: 251
VWidth: 0
Flags: HW
LayerCount: 2
UndoRedoHistory
Layer: 0
Undoes
EndUndoes
Redoes
EndRedoes
EndUndoRedoHistory
UndoRedoHistory
Layer: 1
Undoes
EndUndoes
Redoes
EndRedoes
EndUndoRedoHistory
Fore
SplineSet
84 746 m 1
 84 413 l 1
 0 363 l 1
 0 294 l 1
 84 344 l 1
 84 0 l 1
 166 0 l 1
 166 394 l 1
 252 445 l 1
 252 514 l 1
 166 462 l 1
 166 746 l 1
 84 746 l 1
EndSplineSet
EndChar

StartChar: m
Encoding: 109 109 198
Width: 795
VWidth: 0
Flags: HW
LayerCount: 2
UndoRedoHistory
Layer: 0
Undoes
EndUndoes
Redoes
EndRedoes
EndUndoRedoHistory
UndoRedoHistory
Layer: 1
Undoes
EndUndoes
Redoes
EndRedoes
EndUndoRedoHistory
Fore
SplineSet
420 339 m 1
 446 222 l 1
 446 320 510 344 550 344 c 0
 596 344 623 308 623 222 c 2
 623 116 l 2
 623 6 698 -22 764 -8 c 1
 808 74 l 1
 747 60 726 90 726 136 c 2
 726 232 l 2
 726 358 674 431 570 431 c 0
 497 431 448 397 420 339 c 1
18 384 m 1
 34 363 61 343 61 258 c 2
 61 0 l 1
 167 0 l 1
 167 268 l 1
 162 326 l 1
 162 366 145 398 120 422 c 1
 18 384 l 1
138 339 m 1
 165 255 l 1
 181 321 235 347 275 347 c 0
 328 347 344 307 344 222 c 2
 344 0 l 1
 446 0 l 1
 446 232 l 2
 446 352 394 431 291 431 c 0
 205 431 162 391 138 339 c 1
EndSplineSet
EndChar

StartChar: macron
Encoding: 175 175 199
Width: 364
VWidth: 0
Flags: HW
LayerCount: 2
UndoRedoHistory
Layer: 0
Undoes
EndUndoes
Redoes
EndRedoes
EndUndoRedoHistory
UndoRedoHistory
Layer: 1
Undoes
EndUndoes
Redoes
EndRedoes
EndUndoRedoHistory
Fore
SplineSet
40 658 m 1
 40 592 l 1
 326 592 l 1
 326 658 l 1
 40 658 l 1
182 0 m 0
EndSplineSet
EndChar

StartChar: minus
Encoding: 8722 8722 200
Width: 729
VWidth: 0
Flags: HW
LayerCount: 2
UndoRedoHistory
Layer: 0
Undoes
EndUndoes
Redoes
EndRedoes
EndUndoRedoHistory
UndoRedoHistory
Layer: 1
Undoes
EndUndoes
Redoes
EndRedoes
EndUndoRedoHistory
Fore
SplineSet
99 316 m 1
 99 248 l 1
 624 248 l 1
 624 316 l 1
 99 316 l 1
EndSplineSet
EndChar

StartChar: multiply
Encoding: 215 215 201
Width: 729
VWidth: 0
Flags: HW
LayerCount: 2
UndoRedoHistory
Layer: 0
Undoes
EndUndoes
Redoes
EndRedoes
EndUndoRedoHistory
UndoRedoHistory
Layer: 1
Undoes
EndUndoes
Redoes
EndRedoes
EndUndoRedoHistory
Fore
SplineSet
361 328 m 1
 212 477 l 1
 161 426 l 1
 309 277 l 1
 161 128 l 1
 212 77 l 1
 361 225 l 1
 509 77 l 1
 561 129 l 1
 412 277 l 1
 561 425 l 1
 509 477 l 1
 361 328 l 1
EndSplineSet
EndChar

StartChar: n
Encoding: 110 110 202
Width: 553
VWidth: 0
Flags: HW
LayerCount: 2
UndoRedoHistory
Layer: 0
Undoes
EndUndoes
Redoes
EndRedoes
EndUndoRedoHistory
UndoRedoHistory
Layer: 1
Undoes
EndUndoes
Redoes
EndRedoes
EndUndoRedoHistory
Fore
SplineSet
152 338 m 1
 178 222 l 1
 178 295 237 344 301 344 c 0
 351 344 375 295 375 222 c 2
 375 114 l 2
 375 21 412 -28 518 -10 c 1
 526 72 l 1
 478 61 478 88 478 136 c 2
 478 231 l 2
 478 351 412 431 312 431 c 0
 245 431 178 393 152 338 c 1
29 384 m 1
 55 352 72 301 72 258 c 2
 72 0 l 1
 178 0 l 1
 178 267 l 1
 172 326 l 1
 172 360 156 398 131 422 c 1
 29 384 l 1
330 0 m 0
330 0 m 0
EndSplineSet
EndChar

StartChar: n.alt
Encoding: 65541 -1 203
Width: 631
VWidth: 0
Flags: HW
LayerCount: 2
UndoRedoHistory
Layer: 0
Undoes
EndUndoes
Redoes
EndRedoes
EndUndoRedoHistory
UndoRedoHistory
Layer: 1
Undoes
EndUndoes
Redoes
EndRedoes
EndUndoRedoHistory
Fore
SplineSet
172 442 m 1
 160 513 l 1
 77 513 l 1
 80 489 90 392 90 350 c 2
 90 0 l 1
 172 0 l 1
 172 326 l 2
 172 400 243 456 320 456 c 0
 426 456 442 394 442 292 c 2
 442 286 l 1
 440 132 l 1
 440 124 l 2
 440 31 454 -1 548 -12 c 1
 566 51 l 1
 528 59 523 72 523 128 c 2
 523 135 l 1
 524 284 l 1
 524 288 l 2
 524 433 480 526 334 526 c 0
 250 526 208 494 172 442 c 1
316 0 m 0
316 0 m 0
EndSplineSet
EndChar

StartChar: nacute
Encoding: 324 324 204
Width: 623
VWidth: 0
Flags: HW
LayerCount: 2
UndoRedoHistory
Layer: 0
Undoes
EndUndoes
Redoes
EndRedoes
EndUndoRedoHistory
UndoRedoHistory
Layer: 1
Undoes
EndUndoes
Redoes
EndRedoes
EndUndoRedoHistory
Fore
SplineSet
164 433 m 1
 170 266 l 1
 170 406 256 454 325 454 c 0
 431 454 445 383 445 281 c 1
 444 169 l 1
 444 166 l 2
 444 44 484 -18 582 -20 c 1
 594 46 l 1
 542 56 526 98 526 172 c 2
 528 282 l 2
 530 428 480 524 344 524 c 0
 269 524 198 491 164 433 c 1
70 497 m 1
 80 461 88 412 88 350 c 2
 88 0 l 1
 170 0 l 1
 170 326 l 1
 164 432 l 1
 164 450 154 501 148 513 c 1
 70 497 l 1
417 746 m 1
 304 586 l 1
 369 586 l 1
 523 746 l 1
 417 746 l 1
EndSplineSet
EndChar

StartChar: nine
Encoding: 57 57 205
Width: 624
VWidth: 0
Flags: HW
LayerCount: 2
UndoRedoHistory
Layer: 0
Undoes
EndUndoes
Redoes
EndRedoes
EndUndoRedoHistory
UndoRedoHistory
Layer: 1
Undoes
EndUndoes
Redoes
EndRedoes
EndUndoRedoHistory
Fore
SplineSet
58 498 m 0
 58 362 150 258 304 258 c 0
 359 258 396 285 400 288 c 1
 196 0 l 1
 264 -38 l 1
 498 299 l 2
 544 365 567 433 567 496 c 0
 567 622 488 742 310 742 c 0
 166 742 58 642 58 498 c 0
484 496 m 0
 484 396 428 326 314 326 c 0
 187 326 144 411 144 497 c 0
 144 603 209 667 316 667 c 0
 434 667 484 601 484 496 c 0
EndSplineSet
EndChar

StartChar: nine.alt
Encoding: 65542 -1 206
Width: 595
VWidth: 0
Flags: HW
LayerCount: 2
UndoRedoHistory
Layer: 0
Undoes
EndUndoes
Redoes
EndRedoes
EndUndoRedoHistory
UndoRedoHistory
Layer: 1
Undoes
EndUndoes
Redoes
EndRedoes
EndUndoRedoHistory
Fore
SplineSet
188 708 m 0
 106 676 44 604 44 492 c 0
 44 459 50 429 60 401 c 0
 91 321 162 266 272 266 c 0
 362 266 423 296 459 354 c 1
 459 342 l 1
 457 264 438 193 406 144 c 0
 376 98 329 60 258 60 c 0
 200 60 154 79 118 117 c 1
 92 60 l 1
 126 16 181 -12 257 -12 c 0
 303 -12 344 -2 380 17 c 0
 492 76 546 208 546 379 c 0
 546 435 542 485 530 528 c 0
 500 641 429 726 290 726 c 0
 252 726 218 720 188 708 c 0
357 642 m 0
 411 616 453 563 453 486 c 0
 453 463 449 442 440 424 c 0
 415 372 361 336 286 336 c 0
 186 336 132 396 132 494 c 0
 132 517 135 538 143 558 c 0
 163 614 211 656 286 656 c 0
 312 656 337 652 357 642 c 0
EndSplineSet
EndChar

StartChar: notequal
Encoding: 8800 8800 207
Width: 675
VWidth: 0
Flags: HW
LayerCount: 2
UndoRedoHistory
Layer: 0
Undoes
EndUndoes
Redoes
EndRedoes
EndUndoRedoHistory
UndoRedoHistory
Layer: 1
Undoes
EndUndoes
Redoes
EndRedoes
EndUndoRedoHistory
Fore
SplineSet
364 424 m 1
 80 424 l 1
 85 364 l 1
 336 364 l 1
 262 222 l 1
 80 222 l 1
 85 162 l 1
 232 162 l 1
 168 32 l 1
 228 23 l 1
 298 162 l 1
 591 162 l 1
 586 222 l 1
 328 222 l 1
 402 364 l 1
 591 364 l 1
 586 424 l 1
 431 424 l 1
 494 552 l 1
 432 562 l 1
 364 424 l 1
EndSplineSet
EndChar

StartChar: numbersign
Encoding: 35 35 209
Width: 621
VWidth: 0
Flags: HW
LayerCount: 2
UndoRedoHistory
Layer: 0
Undoes
EndUndoes
Redoes
EndRedoes
EndUndoRedoHistory
UndoRedoHistory
Layer: 1
Undoes
EndUndoes
Redoes
EndRedoes
EndUndoRedoHistory
Fore
SplineSet
438 710 m 1
 400 505 l 1
 269 505 l 1
 308 710 l 1
 234 710 l 1
 195 505 l 1
 60 505 l 1
 54 443 l 1
 184 443 l 1
 176 397 167 353 159 306 c 1
 26 306 l 1
 21 242 l 1
 147 242 l 1
 105 30 l 1
 178 30 l 1
 219 242 l 1
 350 242 l 1
 310 30 l 1
 382 30 l 1
 424 242 l 1
 554 242 l 1
 560 306 l 1
 434 306 l 1
 460 443 l 1
 585 443 l 1
 592 505 l 1
 472 505 l 1
 510 710 l 1
 438 710 l 1
362 306 m 1
 230 306 l 1
 257 443 l 1
 388 443 l 1
 362 306 l 1
EndSplineSet
EndChar

StartChar: o
Encoding: 111 111 210
Width: 538
VWidth: 0
Flags: HW
LayerCount: 2
UndoRedoHistory
Layer: 0
Undoes
EndUndoes
Redoes
EndRedoes
EndUndoRedoHistory
UndoRedoHistory
Layer: 1
Undoes
EndUndoes
Redoes
EndRedoes
EndUndoRedoHistory
Fore
SplineSet
43 210 m 0
 43 78 133 -11 269 -11 c 0
 405 -11 496 78 496 210 c 0
 496 343 404 431 268 431 c 0
 132 431 43 343 43 210 c 0
390 210 m 0
 390 128 342 73 270 73 c 0
 198 73 149 128 149 210 c 0
 149 292 197 346 269 346 c 0
 341 346 390 292 390 210 c 0
314 0 m 0
EndSplineSet
EndChar

StartChar: oe
Encoding: 339 339 214
Width: 985
VWidth: 0
Flags: HW
LayerCount: 2
UndoRedoHistory
Layer: 0
Undoes
EndUndoes
Redoes
EndRedoes
EndUndoRedoHistory
UndoRedoHistory
Layer: 1
Undoes
EndUndoes
Redoes
EndRedoes
EndUndoRedoHistory
Fore
SplineSet
514 410 m 1
 476 482 415 526 310 526 c 0
 268 526 231 519 198 505 c 0
 108 466 46 380 46 254 c 0
 46 217 52 182 64 150 c 0
 98 55 177 -14 305 -14 c 0
 411 -14 481 28 511 104 c 1
 541 30 607 -14 705 -14 c 0
 808 -14 878 31 918 103 c 1
 874 146 l 1
 842 96 786 54 710 54 c 0
 685 54 664 60 645 68 c 0
 591 93 558 148 556 225 c 1
 556 235 l 1
 934 236 l 1
 934 262 l 2
 934 417 862 526 708 526 c 0
 608 526 548 481 514 410 c 1
472 256 m 0
 472 144 422 54 310 54 c 0
 280 54 253 60 231 70 c 0
 169 100 132 164 132 254 c 0
 132 282 136 308 144 332 c 0
 165 402 216 458 306 458 c 0
 423 458 472 373 472 256 c 0
848 304 m 1
 556 304 l 1
 558 324 562 344 570 362 c 0
 592 414 639 458 712 458 c 0
 804 458 848 396 848 304 c 1
492 0 m 0
EndSplineSet
EndChar

StartChar: ogonek
Encoding: 731 731 215
Width: 254
VWidth: 0
Flags: HW
LayerCount: 2
UndoRedoHistory
Layer: 0
Undoes
EndUndoes
Redoes
EndRedoes
EndUndoRedoHistory
UndoRedoHistory
Layer: 1
Undoes
EndUndoes
Redoes
EndRedoes
EndUndoRedoHistory
Fore
SplineSet
58 -44 m 0
 42 -60 24 -83 24 -112 c 0
 24 -126 26 -138 32 -148 c 0
 49 -178 86 -195 133 -195 c 0
 165 -195 199 -190 222 -180 c 1
 222 -125 l 1
 199 -134 176 -140 144 -140 c 0
 118 -140 94 -126 94 -100 c 0
 94 -92 97 -84 102 -76 c 0
 123 -44 162 -21 196 0 c 1
 132 6 l 1
 105 -7 78 -24 58 -44 c 0
222 5 m 0
EndSplineSet
EndChar

StartChar: one
Encoding: 49 49 217
Width: 595
VWidth: 0
Flags: HW
LayerCount: 2
UndoRedoHistory
Layer: 0
Undoes
EndUndoes
Redoes
EndRedoes
EndUndoRedoHistory
UndoRedoHistory
Layer: 1
Undoes
EndUndoes
Redoes
EndRedoes
EndUndoRedoHistory
Fore
SplineSet
280 718 m 1
 246 692 184 656 126 630 c 1
 147 564 l 1
 200 586 243 610 276 635 c 1
 276 0 l 1
 362 0 l 1
 362 719 l 1
 280 718 l 1
EndSplineSet
EndChar

StartChar: onehalf
Encoding: 189 189 218
Width: 1374
VWidth: 0
Flags: HW
LayerCount: 2
UndoRedoHistory
Layer: 0
Undoes
EndUndoes
Redoes
EndRedoes
EndUndoRedoHistory
UndoRedoHistory
Layer: 1
Undoes
EndUndoes
Redoes
EndRedoes
EndUndoRedoHistory
Fore
SplineSet
284 718 m 1
 -168 0 l 1
 -93 0 l 1
 358 718 l 1
 284 718 l 1
330 635 m 1
 372 596 l 1
 388 631 416 662 464 662 c 0
 504 662 534 644 534 606 c 0
 534 592 529 576 519 559 c 0
 509 542 494 523 476 503 c 0
 432 454 379 406 326 358 c 1
 326 302 l 1
 598 302 l 1
 598 361 l 1
 416 361 l 1
 462 401 509 440 546 484 c 0
 573 516 599 554 599 606 c 0
 599 624 595 640 589 654 c 0
 569 694 527 720 468 720 c 0
 399 720 352 685 330 635 c 1
983 706 m 1
 957 690 933 676 899 666 c 1
 898 602 l 1
 923 612 952 624 974 636 c 1
 974 584 l 2
 974 558 975 534 975 504 c 2
 975 362 l 1
 914 362 l 1
 914 302 l 1
 1096 302 l 1
 1096 360 l 1
 1036 360 l 1
 1036 714 l 1
 983 706 l 1
EndSplineSet
EndChar

StartChar: onequarter
Encoding: 188 188 219
Width: 1227
VWidth: 0
Flags: HW
LayerCount: 2
UndoRedoHistory
Layer: 0
Undoes
EndUndoes
Redoes
EndRedoes
EndUndoRedoHistory
UndoRedoHistory
Layer: 1
Undoes
EndUndoes
Redoes
EndRedoes
EndUndoRedoHistory
Fore
SplineSet
284 718 m 1
 -168 0 l 1
 -93 0 l 1
 358 718 l 1
 284 718 l 1
388 706 m 1
 362 690 338 676 304 666 c 1
 304 602 l 1
 329 612 358 624 380 636 c 1
 380 584 l 2
 380 558 380 534 380 504 c 2
 380 362 l 1
 319 362 l 1
 319 302 l 1
 502 302 l 1
 502 360 l 1
 440 360 l 1
 440 714 l 1
 388 706 l 1
951 706 m 1
 768 447 l 1
 768 402 l 1
 957 402 l 1
 957 308 l 1
 1017 308 l 1
 1017 402 l 1
 1078 402 l 1
 1072 455 l 1
 1018 455 l 1
 1018 706 l 1
 951 706 l 1
957 455 m 1
 838 455 l 1
 957 622 l 1
 957 455 l 1
EndSplineSet
EndChar

StartChar: ordfeminine
Encoding: 170 170 220
Width: 372
VWidth: 0
Flags: HW
LayerCount: 2
UndoRedoHistory
Layer: 0
Undoes
EndUndoes
Redoes
EndRedoes
EndUndoRedoHistory
UndoRedoHistory
Layer: 1
Undoes
EndUndoes
Redoes
EndRedoes
EndUndoRedoHistory
Fore
SplineSet
56 675 m 1
 89 638 l 1
 111 670 144 684 194 684 c 0
 249 684 268 665 268 610 c 2
 268 606 l 1
 231 601 191 601 154 596 c 1
 94 587 33 556 33 488 c 0
 33 472 36 458 42 445 c 0
 60 407 102 384 158 384 c 0
 208 384 246 402 268 430 c 1
 272 393 l 1
 337 393 l 1
 335 423 334 435 334 457 c 2
 334 618 l 1
 334 700 279 738 197 738 c 0
 131 738 82 718 56 675 c 1
268 542 m 1
 265 480 234 436 169 436 c 0
 130 436 101 449 101 488 c 0
 101 557 212 544 268 555 c 1
 268 542 l 1
EndSplineSet
EndChar

StartChar: ordmasculine
Encoding: 186 186 221
Width: 412
VWidth: 0
Flags: HW
LayerCount: 2
UndoRedoHistory
Layer: 0
Undoes
EndUndoes
Redoes
EndRedoes
EndUndoRedoHistory
UndoRedoHistory
Layer: 1
Undoes
EndUndoes
Redoes
EndRedoes
EndUndoRedoHistory
Fore
SplineSet
130 724 m 0
 70 699 26 646 26 562 c 0
 26 450 96 384 208 384 c 0
 237 384 263 388 285 398 c 0
 345 423 387 476 387 560 c 0
 387 585 384 608 376 630 c 0
 353 695 296 738 208 738 c 0
 179 738 152 733 130 724 c 0
318 560 m 0
 318 490 278 438 208 438 c 0
 134 438 96 489 96 562 c 0
 96 632 135 684 206 684 c 0
 278 684 318 632 318 560 c 0
EndSplineSet
EndChar

StartChar: oslash
Encoding: 248 248 222
Width: 619
VWidth: 0
Flags: HW
LayerCount: 2
UndoRedoHistory
Layer: 0
Undoes
EndUndoes
Redoes
EndRedoes
EndUndoRedoHistory
UndoRedoHistory
Layer: 1
Undoes
EndUndoes
Redoes
EndRedoes
EndUndoRedoHistory
Fore
SplineSet
128 -114 m 1
 178 -130 l 1
 498 622 l 1
 446 638 l 1
 128 -114 l 1
310 0 m 0
EndSplineSet
Refer: 210 111 N 1 0 0 1 0 0 2
EndChar

StartChar: p
Encoding: 112 112 224
Width: 552
VWidth: 0
Flags: HW
LayerCount: 2
UndoRedoHistory
Layer: 0
Undoes
EndUndoes
Redoes
EndRedoes
EndUndoRedoHistory
UndoRedoHistory
Layer: 1
Undoes
EndUndoes
Redoes
EndRedoes
EndUndoRedoHistory
Fore
SplineSet
152 344 m 1
 61 294 l 1
 163 26 l 1
 196 4 250 -11 292 -11 c 0
 420 -11 509 83 509 215 c 0
 509 349 421 431 302 431 c 0
 248 431 180 401 152 344 c 1
14 384 m 1
 30 362 56 343 56 258 c 2
 56 -213 l 1
 162 -213 l 1
 162 267 l 1
 157 326 l 1
 157 366 141 399 116 422 c 1
 14 384 l 1
403 212 m 0
 403 130 350 72 276 72 c 0
 228 72 180 91 162 118 c 1
 162 176 l 2
 162 276 216 347 291 347 c 0
 362 347 403 294 403 212 c 0
EndSplineSet
EndChar

StartChar: paragraph
Encoding: 182 182 225
Width: 607
VWidth: 0
Flags: HW
LayerCount: 2
UndoRedoHistory
Layer: 0
Undoes
EndUndoes
Redoes
EndRedoes
EndUndoRedoHistory
UndoRedoHistory
Layer: 1
Undoes
EndUndoes
Redoes
EndRedoes
EndUndoRedoHistory
Fore
SplineSet
312 726 m 2
 180 726 54 697 54 565 c 0
 54 539 58 516 67 495 c 0
 91 439 143 394 221 393 c 1
 221 -74 l 1
 292 -74 l 1
 292 664 l 1
 396 664 l 1
 396 -74 l 1
 461 -74 l 1
 461 664 l 1
 504 664 l 1
 504 726 l 1
 312 726 l 2
EndSplineSet
EndChar

StartChar: parenleft
Encoding: 40 40 226
Width: 314
VWidth: 0
Flags: HW
LayerCount: 2
UndoRedoHistory
Layer: 0
Undoes
EndUndoes
Redoes
EndRedoes
EndUndoRedoHistory
UndoRedoHistory
Layer: 1
Undoes
EndUndoes
Redoes
EndRedoes
EndUndoRedoHistory
Fore
SplineSet
215 726 m 1
 194 693 175 659 158 625 c 0
 112 533 76 428 76 294 c 0
 76 256 80 218 88 180 c 0
 112 60 159 -42 216 -130 c 1
 290 -130 l 1
 270 -98 251 -65 235 -30 c 0
 193 60 158 168 158 295 c 0
 158 472 215 608 289 726 c 1
 215 726 l 1
EndSplineSet
EndChar

StartChar: parenright
Encoding: 41 41 227
Width: 314
VWidth: 0
Flags: HW
LayerCount: 2
UndoRedoHistory
Layer: 0
Undoes
EndUndoes
Redoes
EndRedoes
EndUndoRedoHistory
UndoRedoHistory
Layer: 1
Undoes
EndUndoes
Redoes
EndRedoes
EndUndoRedoHistory
Fore
SplineSet
26 726 m 1
 47 693 66 658 82 622 c 0
 123 532 158 427 158 302 c 0
 158 262 154 222 148 184 c 0
 128 62 84 -42 28 -130 c 1
 102 -130 l 1
 174 -16 240 117 240 299 c 0
 240 337 236 375 229 413 c 0
 206 535 157 636 100 726 c 1
 26 726 l 1
EndSplineSet
EndChar

StartChar: partialdiff
Encoding: 8706 8706 228
Width: 583
VWidth: 0
Flags: HW
LayerCount: 2
UndoRedoHistory
Layer: 0
Undoes
EndUndoes
Redoes
EndRedoes
EndUndoRedoHistory
UndoRedoHistory
Layer: 1
Undoes
EndUndoes
Redoes
EndRedoes
EndUndoRedoHistory
Fore
SplineSet
140 721 m 1
 146 652 l 1
 181 676 225 700 282 700 c 0
 308 700 332 694 353 683 c 0
 421 647 452 562 452 456 c 0
 452 446 451 428 451 418 c 1
 416 464 368 501 293 501 c 0
 258 501 225 493 195 478 c 0
 107 434 42 340 42 210 c 0
 42 178 46 149 54 122 c 0
 80 43 142 -12 246 -12 c 0
 278 -12 309 -6 336 6 c 0
 393 30 436 73 466 126 c 0
 510 204 537 306 537 426 c 0
 537 484 532 535 520 578 c 0
 492 686 426 766 294 766 c 0
 233 766 178 746 140 721 c 1
352 426 m 0
 396 408 426 372 442 328 c 1
 434 254 411 185 378 136 c 0
 350 96 310 56 248 56 c 0
 230 56 212 58 197 66 c 0
 151 88 126 140 126 208 c 0
 126 273 148 329 178 367 c 0
 205 402 246 434 304 434 c 0
 322 434 338 432 352 426 c 0
EndSplineSet
EndChar

StartChar: percent
Encoding: 37 37 229
Width: 992
VWidth: 0
Flags: HW
LayerCount: 2
UndoRedoHistory
Layer: 0
Undoes
EndUndoes
Redoes
EndRedoes
EndUndoRedoHistory
UndoRedoHistory
Layer: 1
Undoes
EndUndoes
Redoes
EndRedoes
EndUndoRedoHistory
Fore
SplineSet
672 718 m 1
 220 -2 l 1
 297 -2 l 1
 750 718 l 1
 672 718 l 1
188 709 m 0
 126 681 84 620 84 532 c 0
 84 506 88 481 96 458 c 0
 118 392 172 343 260 343 c 0
 288 343 312 348 334 358 c 0
 396 386 438 446 438 534 c 0
 438 647 377 724 263 724 c 0
 235 724 210 719 188 709 c 0
309 657 m 0
 347 637 367 592 367 534 c 0
 367 461 335 400 262 400 c 0
 188 400 156 458 156 532 c 0
 156 606 188 668 262 668 c 0
 280 668 296 664 309 657 c 0
653 352 m 0
 591 324 548 264 548 176 c 0
 548 150 552 124 560 101 c 0
 583 35 636 -14 724 -14 c 0
 752 -14 776 -8 798 2 c 0
 860 30 903 90 903 178 c 0
 903 291 842 368 728 368 c 0
 700 368 675 362 653 352 c 0
831 178 m 0
 831 105 800 43 726 43 c 0
 708 43 692 47 679 54 c 0
 641 74 620 117 620 175 c 0
 620 249 653 311 727 311 c 0
 800 311 831 252 831 178 c 0
EndSplineSet
EndChar

StartChar: period
Encoding: 46 46 230
Width: 270
VWidth: 0
Flags: HW
LayerCount: 2
UndoRedoHistory
Layer: 0
Undoes
EndUndoes
Redoes
EndRedoes
EndUndoRedoHistory
UndoRedoHistory
Layer: 1
Undoes
EndUndoes
Redoes
EndRedoes
EndUndoRedoHistory
Fore
SplineSet
43 82 m 0
 43 34 78 0 126 0 c 0
 174 0 208 33 208 80 c 0
 208 128 174 162 126 162 c 0
 78 162 43 128 43 82 c 0
EndSplineSet
EndChar

StartChar: periodcentered
Encoding: 183 183 231
Width: 222
VWidth: 0
Flags: HW
LayerCount: 2
UndoRedoHistory
Layer: 0
Undoes
EndUndoes
Redoes
EndRedoes
EndUndoRedoHistory
UndoRedoHistory
Layer: 1
Undoes
EndUndoes
Redoes
EndRedoes
EndUndoRedoHistory
Fore
SplineSet
38 362 m 1
 38 256 l 1
 146 256 l 1
 146 362 l 1
 38 362 l 1
EndSplineSet
EndChar

StartChar: perthousand
Encoding: 8240 8240 232
Width: 1193
VWidth: 0
Flags: HW
LayerCount: 2
UndoRedoHistory
Layer: 0
Undoes
EndUndoes
Redoes
EndRedoes
EndUndoRedoHistory
UndoRedoHistory
Layer: 1
Undoes
EndUndoes
Redoes
EndRedoes
EndUndoRedoHistory
Fore
SplineSet
592 718 m 1
 122 -10 l 1
 199 -10 l 1
 666 718 l 1
 592 718 l 1
684 164 m 0
 684 98 654 43 588 43 c 0
 520 43 490 96 490 164 c 0
 490 230 521 284 587 284 c 0
 655 284 684 232 684 164 c 0
515 327 m 0
 455 302 418 247 418 164 c 0
 418 56 477 -14 586 -14 c 0
 613 -14 637 -9 658 0 c 0
 717 25 756 80 756 162 c 0
 756 272 698 340 588 340 c 0
 560 340 536 336 515 327 c 0
134 710 m 0
 75 686 36 630 36 548 c 0
 36 440 96 370 205 370 c 0
 231 370 255 374 276 383 c 0
 334 407 374 464 374 546 c 0
 374 656 316 724 206 724 c 0
 179 724 155 719 134 710 c 0
302 546 m 0
 302 481 273 426 207 426 c 0
 139 426 110 480 110 548 c 0
 110 614 140 668 206 668 c 0
 273 668 302 614 302 546 c 0
909 327 m 0
 849 302 812 247 812 164 c 0
 812 56 872 -14 980 -14 c 0
 1007 -14 1031 -9 1052 0 c 0
 1110 24 1150 80 1150 162 c 0
 1150 272 1092 340 982 340 c 0
 954 340 930 336 909 327 c 0
1078 164 m 0
 1078 98 1048 43 982 43 c 0
 914 43 884 96 884 164 c 0
 884 230 915 284 981 284 c 0
 1048 284 1078 231 1078 164 c 0
EndSplineSet
EndChar

StartChar: pi
Encoding: 960 960 233
Width: 644
VWidth: 0
Flags: HW
LayerCount: 2
UndoRedoHistory
Layer: 0
Undoes
EndUndoes
Redoes
EndRedoes
EndUndoRedoHistory
UndoRedoHistory
Layer: 1
Undoes
EndUndoes
Redoes
EndRedoes
EndUndoRedoHistory
Fore
SplineSet
184 520 m 2
 113 520 48 518 8 488 c 1
 17 423 l 1
 55 443 98 452 156 454 c 1
 154 370 148 284 138 206 c 0
 128 132 116 52 86 0 c 1
 170 0 l 1
 176 10 182 26 187 44 c 0
 219 168 229 310 240 454 c 1
 426 454 l 1
 426 140 l 2
 426 52 444 -4 530 -4 c 0
 554 -4 577 -1 599 3 c 1
 594 17 592 32 592 50 c 0
 592 55 593 60 593 65 c 2
 594 80 l 1
 580 76 566 74 554 74 c 0
 512 74 505 103 505 144 c 2
 505 454 l 1
 607 454 l 1
 607 520 l 1
 184 520 l 2
EndSplineSet
EndChar

StartChar: plus
Encoding: 43 43 234
Width: 729
VWidth: 0
Flags: HW
LayerCount: 2
UndoRedoHistory
Layer: 0
Undoes
EndUndoes
Redoes
EndRedoes
EndUndoRedoHistory
UndoRedoHistory
Layer: 1
Undoes
EndUndoes
Redoes
EndRedoes
EndUndoRedoHistory
Fore
SplineSet
324 524 m 1
 324 312 l 1
 99 312 l 1
 99 242 l 1
 323 242 l 1
 323 31 l 1
 398 31 l 1
 398 242 l 1
 623 242 l 1
 623 312 l 1
 398 312 l 1
 398 524 l 1
 324 524 l 1
EndSplineSet
EndChar

StartChar: plusminus
Encoding: 177 177 235
Width: 729
VWidth: 0
Flags: HW
LayerCount: 2
UndoRedoHistory
Layer: 0
Undoes
EndUndoes
Redoes
EndRedoes
EndUndoRedoHistory
UndoRedoHistory
Layer: 1
Undoes
EndUndoes
Redoes
EndRedoes
EndUndoRedoHistory
Fore
SplineSet
322 554 m 1
 322 366 l 1
 94 366 l 1
 100 298 l 1
 324 298 l 1
 324 112 l 1
 399 112 l 1
 399 298 l 1
 622 298 l 1
 622 366 l 1
 397 366 l 1
 397 554 l 1
 322 554 l 1
100 69 m 1
 100 0 l 1
 624 0 l 1
 624 69 l 1
 100 69 l 1
EndSplineSet
EndChar

StartChar: product
Encoding: 8719 8719 236
Width: 784
VWidth: 0
Flags: HW
LayerCount: 2
UndoRedoHistory
Layer: 0
Undoes
EndUndoes
Redoes
EndRedoes
EndUndoRedoHistory
UndoRedoHistory
Layer: 1
Undoes
EndUndoes
Redoes
EndRedoes
EndUndoRedoHistory
Fore
SplineSet
55 712 m 1
 63 639 l 1
 126 639 l 1
 126 -164 l 1
 213 -164 l 1
 213 639 l 1
 574 639 l 1
 574 -164 l 1
 664 -164 l 1
 664 639 l 1
 720 639 l 1
 728 712 l 1
 55 712 l 1
EndSplineSet
EndChar

StartChar: q
Encoding: 113 113 237
Width: 617
VWidth: 0
Flags: HW
LayerCount: 2
UndoRedoHistory
Layer: 0
Undoes
EndUndoes
Redoes
EndRedoes
EndUndoRedoHistory
UndoRedoHistory
Layer: 1
Undoes
EndUndoes
Redoes
EndRedoes
EndUndoRedoHistory
Fore
SplineSet
45 162 m 0
 45 37 117 -56 242 -56 c 0
 302 -56 350 -33 382 6 c 1
 382 -222 l 1
 430 -270 l 1
 450 -260 569 -196 584 -188 c 1
 554 -138 l 1
 554 -138 466 -186 450 -194 c 1
 450 289 l 2
 450 332 456 364 458 378 c 1
 388 378 l 1
 382 320 l 1
 358 360 326 386 248 386 c 0
 120 386 45 290 45 162 c 0
382 178 m 2
 382 78 l 1
 361 41 306 1 250 1 c 0
 158 1 116 71 116 163 c 0
 116 257 156 328 250 328 c 0
 338 328 382 267 382 178 c 2
EndSplineSet
EndChar

StartChar: question
Encoding: 63 63 238
Width: 516
VWidth: 0
Flags: HW
LayerCount: 2
UndoRedoHistory
Layer: 0
Undoes
EndUndoes
Redoes
EndRedoes
EndUndoRedoHistory
UndoRedoHistory
Layer: 1
Undoes
EndUndoes
Redoes
EndRedoes
EndUndoRedoHistory
Fore
SplineSet
92 706 m 1
 92 634 l 1
 128 654 170 668 222 668 c 0
 298 668 365 638 365 562 c 0
 365 542 361 524 351 507 c 0
 320 452 265 416 223 370 c 0
 199 344 173 311 173 265 c 0
 173 240 176 208 178 184 c 1
 260 184 l 1
 256 209 l 2
 254 222 252 240 252 256 c 0
 252 272 256 288 266 304 c 0
 300 359 357 401 398 451 c 0
 422 481 450 516 450 566 c 0
 450 595 444 620 433 642 c 0
 400 706 328 739 232 739 c 0
 179 739 132 726 92 706 c 1
164 100 m 1
 164 -6 l 1
 273 -6 l 1
 273 100 l 1
 164 100 l 1
EndSplineSet
EndChar

StartChar: questiondown
Encoding: 191 191 239
Width: 516
VWidth: 0
Flags: HW
LayerCount: 2
UndoRedoHistory
Layer: 0
Undoes
EndUndoes
Redoes
EndRedoes
EndUndoRedoHistory
UndoRedoHistory
Layer: 1
Undoes
EndUndoes
Redoes
EndRedoes
EndUndoRedoHistory
Fore
SplineSet
281 550 m 1
 286 524 l 2
 288 511 290 493 290 477 c 0
 290 461 285 446 275 430 c 0
 241 375 184 332 143 282 c 0
 119 252 92 217 92 167 c 0
 92 138 97 114 108 92 c 0
 141 28 213 -6 309 -6 c 0
 362 -6 410 7 450 27 c 1
 450 100 l 1
 414 80 371 66 319 66 c 0
 243 66 176 95 176 171 c 0
 176 191 180 209 190 226 c 0
 221 281 276 318 318 364 c 0
 342 390 368 422 368 468 c 0
 368 493 365 526 363 550 c 1
 281 550 l 1
268 739 m 1
 268 634 l 1
 376 634 l 1
 376 739 l 1
 268 739 l 1
EndSplineSet
EndChar

StartChar: quotedbl
Encoding: 34 34 240
Width: 360
VWidth: 0
Flags: HW
LayerCount: 2
UndoRedoHistory
Layer: 0
Undoes
EndUndoes
Redoes
EndRedoes
EndUndoRedoHistory
UndoRedoHistory
Layer: 1
Undoes
EndUndoes
Redoes
EndRedoes
EndUndoRedoHistory
Fore
SplineSet
57 726 m 1
 75 494 l 1
 140 494 l 1
 140 726 l 1
 57 726 l 1
202 726 m 1
 220 494 l 1
 284 494 l 1
 284 726 l 1
 202 726 l 1
EndSplineSet
EndChar

StartChar: quotedblbase
Encoding: 8222 8222 241
Width: 512
VWidth: 0
Flags: HW
LayerCount: 2
UndoRedoHistory
Layer: 0
Undoes
EndUndoes
Redoes
EndRedoes
EndUndoRedoHistory
UndoRedoHistory
Layer: 1
Undoes
EndUndoes
Redoes
EndRedoes
EndUndoRedoHistory
Fore
SplineSet
320 100 m 1
 268 -119 l 1
 335 -119 l 1
 412 100 l 1
 320 100 l 1
142 100 m 1
 89 -119 l 1
 156 -119 l 1
 232 100 l 1
 142 100 l 1
EndSplineSet
EndChar

StartChar: quotedblleft
Encoding: 8220 8220 242
Width: 512
VWidth: 0
Flags: HW
LayerCount: 2
UndoRedoHistory
Layer: 0
Undoes
EndUndoes
Redoes
EndRedoes
EndUndoRedoHistory
UndoRedoHistory
Layer: 1
Undoes
EndUndoes
Redoes
EndRedoes
EndUndoRedoHistory
Fore
SplineSet
341 732 m 1
 264 512 l 1
 356 512 l 1
 408 732 l 1
 341 732 l 1
166 732 m 1
 90 512 l 1
 180 512 l 1
 233 732 l 1
 166 732 l 1
EndSplineSet
EndChar

StartChar: quotedblright
Encoding: 8221 8221 243
Width: 512
VWidth: 0
Flags: HW
LayerCount: 2
UndoRedoHistory
Layer: 0
Undoes
EndUndoes
Redoes
EndRedoes
EndUndoRedoHistory
UndoRedoHistory
Layer: 1
Undoes
EndUndoes
Redoes
EndRedoes
EndUndoRedoHistory
Fore
SplineSet
320 732 m 1
 267 512 l 1
 334 512 l 1
 410 732 l 1
 320 732 l 1
156 732 m 1
 104 512 l 1
 170 512 l 1
 247 732 l 1
 156 732 l 1
EndSplineSet
EndChar

StartChar: quoteleft
Encoding: 8216 8216 244
Width: 276
VWidth: 0
Flags: HW
LayerCount: 2
UndoRedoHistory
Layer: 0
Undoes
EndUndoes
Redoes
EndRedoes
EndUndoRedoHistory
UndoRedoHistory
Layer: 1
Undoes
EndUndoes
Redoes
EndRedoes
EndUndoRedoHistory
Fore
SplineSet
142 732 m 1
 65 512 l 1
 156 512 l 1
 208 732 l 1
 142 732 l 1
EndSplineSet
EndChar

StartChar: quoteright
Encoding: 8217 8217 245
Width: 276
VWidth: 0
Flags: HW
LayerCount: 2
UndoRedoHistory
Layer: 0
Undoes
EndUndoes
Redoes
EndRedoes
EndUndoRedoHistory
UndoRedoHistory
Layer: 1
Undoes
EndUndoes
Redoes
EndRedoes
EndUndoRedoHistory
Fore
SplineSet
122 732 m 1
 70 512 l 1
 136 512 l 1
 213 732 l 1
 122 732 l 1
EndSplineSet
EndChar

StartChar: quotesinglbase
Encoding: 8218 8218 246
Width: 276
VWidth: 0
Flags: HW
LayerCount: 2
UndoRedoHistory
Layer: 0
Undoes
EndUndoes
Redoes
EndRedoes
EndUndoRedoHistory
UndoRedoHistory
Layer: 1
Undoes
EndUndoes
Redoes
EndRedoes
EndUndoRedoHistory
Fore
SplineSet
116 100 m 1
 62 -119 l 1
 129 -119 l 1
 206 100 l 1
 116 100 l 1
EndSplineSet
EndChar

StartChar: quotesingle
Encoding: 39 39 247
Width: 277
VWidth: 0
Flags: HW
LayerCount: 2
UndoRedoHistory
Layer: 0
Undoes
EndUndoes
Redoes
EndRedoes
EndUndoRedoHistory
UndoRedoHistory
Layer: 1
Undoes
EndUndoes
Redoes
EndRedoes
EndUndoRedoHistory
Fore
SplineSet
88 726 m 1
 106 494 l 1
 171 494 l 1
 171 726 l 1
 88 726 l 1
EndSplineSet
EndChar

StartChar: r
Encoding: 114 114 248
Width: 377
VWidth: 0
Flags: HW
LayerCount: 2
UndoRedoHistory
Layer: 0
Undoes
EndUndoes
Redoes
EndRedoes
EndUndoRedoHistory
UndoRedoHistory
Layer: 1
Undoes
EndUndoes
Redoes
EndRedoes
EndUndoRedoHistory
Fore
SplineSet
5 386 m 1
 21 365 48 344 48 260 c 2
 48 0 l 1
 154 0 l 1
 154 270 l 1
 148 328 l 1
 148 368 132 400 107 424 c 1
 5 386 l 1
144 358 m 1
 152 208 l 2
 152 206 150 336 262 336 c 0
 277 336 294 335 312 330 c 1
 320 423 l 1
 305 427 290 431 256 431 c 0
 208 431 142 402 144 358 c 1
166 0 m 0
166 0 m 0
EndSplineSet
EndChar

StartChar: radical
Encoding: 8730 8730 249
Width: 657
VWidth: 0
Flags: HW
LayerCount: 2
UndoRedoHistory
Layer: 0
Undoes
EndUndoes
Redoes
EndRedoes
EndUndoRedoHistory
UndoRedoHistory
Layer: 1
Undoes
EndUndoes
Redoes
EndRedoes
EndUndoRedoHistory
Fore
SplineSet
541 798 m 1
 354 108 l 1
 334 20 l 1
 306 107 l 1
 191 412 l 1
 44 387 l 1
 54 331 l 1
 140 345 l 1
 306 -76 l 1
 373 -76 l 1
 606 798 l 1
 541 798 l 1
EndSplineSet
EndChar

StartChar: rcaron
Encoding: 345 345 250
Width: 397
VWidth: 0
Flags: HW
LayerCount: 2
UndoRedoHistory
Layer: 0
Undoes
EndUndoes
Redoes
EndRedoes
EndUndoRedoHistory
UndoRedoHistory
Layer: 1
Undoes
EndUndoes
Redoes
EndRedoes
EndUndoRedoHistory
Fore
SplineSet
173 436 m 1
 160 513 l 1
 78 500 l 1
 81 477 91 431 91 390 c 2
 91 0 l 1
 173 0 l 1
 173 284 l 2
 173 402 235 454 308 454 c 0
 350 454 372 445 380 442 c 1
 388 514 l 1
 370 519 352 524 310 524 c 0
 246 524 197 484 173 436 c 1
303 748 m 1
 219 640 l 1
 137 748 l 1
 64 748 l 1
 183 586 l 1
 261 586 l 1
 380 748 l 1
 303 748 l 1
EndSplineSet
EndChar

StartChar: rcommaaccent
Encoding: 343 343 251
Width: 397
VWidth: 0
Flags: HW
LayerCount: 2
UndoRedoHistory
Layer: 0
Undoes
EndUndoes
Redoes
EndRedoes
EndUndoRedoHistory
UndoRedoHistory
Layer: 1
Undoes
EndUndoes
Redoes
EndRedoes
EndUndoRedoHistory
Fore
SplineSet
173 436 m 1
 160 513 l 1
 78 500 l 1
 81 477 91 431 91 390 c 2
 91 0 l 1
 173 0 l 1
 173 284 l 2
 173 402 235 454 308 454 c 0
 350 454 372 445 380 442 c 1
 388 514 l 1
 370 519 352 524 310 524 c 0
 246 524 197 484 173 436 c 1
179 -81 m 1
 126 -312 l 1
 191 -312 l 1
 272 -81 l 1
 179 -81 l 1
EndSplineSet
EndChar

StartChar: registered
Encoding: 174 174 252
Width: 914
VWidth: 0
Flags: HW
LayerCount: 2
UndoRedoHistory
Layer: 0
Undoes
EndUndoes
Redoes
EndRedoes
EndUndoRedoHistory
UndoRedoHistory
Layer: 1
Undoes
EndUndoes
Redoes
EndRedoes
EndUndoRedoHistory
Fore
SplineSet
170 630 m 0
 106 570 52 483 52 363 c 0
 52 329 56 295 66 263 c 0
 86 195 123 140 170 96 c 0
 236 34 331 -16 457 -16 c 0
 581 -16 674 34 740 96 c 0
 804 156 858 242 858 362 c 0
 858 396 854 430 844 462 c 0
 824 530 786 585 740 629 c 0
 674 691 580 742 454 742 c 0
 330 742 236 692 170 630 c 0
697 590 m 0
 751 538 795 462 795 362 c 0
 795 260 752 186 698 135 c 0
 642 83 562 42 456 42 c 0
 352 42 269 82 213 135 c 0
 159 187 115 264 115 364 c 0
 115 464 159 539 213 591 c 0
 269 643 351 683 454 683 c 0
 558 683 641 642 697 590 c 0
298 596 m 1
 298 136 l 1
 372 136 l 1
 372 332 l 1
 441 332 l 1
 471 312 493 278 514 242 c 2
 576 136 l 1
 660 136 l 1
 644 163 630 187 616 209 c 0
 586 257 556 304 518 340 c 1
 591 350 650 388 650 468 c 0
 650 510 634 541 598 563 c 0
 562 585 508 596 435 596 c 2
 298 596 l 1
573 460 m 0
 573 392 503 392 434 392 c 2
 372 392 l 1
 371 536 l 1
 433 536 l 2
 509 536 573 536 573 460 c 0
EndSplineSet
EndChar

StartChar: ring
Encoding: 730 730 253
Width: 302
VWidth: 0
Flags: HW
LayerCount: 2
UndoRedoHistory
Layer: 0
Undoes
EndUndoes
Redoes
EndRedoes
EndUndoRedoHistory
UndoRedoHistory
Layer: 1
Undoes
EndUndoes
Redoes
EndRedoes
EndUndoRedoHistory
Fore
SplineSet
109 758 m 0
 75 745 45 716 45 670 c 0
 45 656 47 644 53 632 c 0
 69 600 102 574 150 574 c 0
 164 574 178 577 190 582 c 0
 224 595 255 624 255 670 c 0
 255 683 253 695 247 707 c 0
 232 740 198 765 150 765 c 0
 136 765 121 763 109 758 c 0
205 670 m 0
 205 640 180 618 150 618 c 0
 118 618 94 638 94 670 c 0
 94 700 120 722 150 722 c 0
 181 722 205 701 205 670 c 0
150 0 m 0
EndSplineSet
EndChar

StartChar: s
Encoding: 115 115 254
Width: 453
VWidth: 0
Flags: HW
LayerCount: 2
UndoRedoHistory
Layer: 0
Undoes
EndUndoes
Redoes
EndRedoes
EndUndoRedoHistory
UndoRedoHistory
Layer: 1
Undoes
EndUndoes
Redoes
EndRedoes
EndUndoRedoHistory
Fore
SplineSet
77 304 m 0
 77 242 106 209 202 178 c 0
 277 154 298 148 298 116 c 0
 298 92 283 70 237 70 c 0
 199 70 150 84 104 106 c 1
 82 32 l 1
 112 9 179 -11 237 -11 c 0
 342 -11 392 44 392 128 c 0
 392 198 356 226 257 256 c 0
 195 274 176 288 176 312 c 0
 176 338 191 352 233 352 c 0
 269 352 315 342 354 322 c 1
 372 398 l 1
 342 415 279 431 227 431 c 0
 107 431 77 358 77 304 c 0
227 0 m 0
227 0 m 0
EndSplineSet
EndChar

StartChar: s.alt
Encoding: 65543 -1 255
Width: 500
VWidth: 0
Flags: HW
LayerCount: 2
UndoRedoHistory
Layer: 0
Undoes
EndUndoes
Redoes
EndRedoes
EndUndoRedoHistory
UndoRedoHistory
Layer: 1
Undoes
EndUndoes
Redoes
EndRedoes
EndUndoRedoHistory
Fore
SplineSet
57 386 m 0
 57 286 142 256 224 232 c 0
 278 216 370 202 370 136 c 0
 370 75 322 56 264 56 c 0
 198 56 118 86 80 114 c 1
 57 45 l 1
 110 13 198 -13 276 -13 c 0
 370 -13 451 26 451 142 c 0
 451 246 355 274 275 298 c 0
 227 312 142 327 142 387 c 0
 142 441 190 458 246 458 c 0
 302 458 366 440 394 422 c 1
 417 483 l 1
 368 513 306 528 247 528 c 0
 147 528 57 484 57 386 c 0
250 0 m 0
250 0 m 0
EndSplineSet
EndChar

StartChar: sacute
Encoding: 347 347 256
Width: 453
VWidth: 0
Flags: HW
LayerCount: 2
UndoRedoHistory
Layer: 0
Undoes
EndUndoes
Redoes
EndRedoes
EndUndoRedoHistory
UndoRedoHistory
Layer: 1
Undoes
EndUndoes
Redoes
EndRedoes
EndUndoRedoHistory
Fore
SplineSet
54 386 m 0
 54 306 96 266 204 232 c 0
 300 202 326 180 326 134 c 0
 326 63 276 58 222 58 c 0
 160 58 100 80 64 111 c 1
 54 36 l 1
 92 8 157 -11 228 -11 c 0
 292 -11 406 8 406 142 c 0
 406 222 362 260 250 298 c 0
 164 327 136 345 136 387 c 0
 136 431 167 454 225 454 c 0
 295 454 337 430 366 416 c 1
 388 484 l 1
 352 504 289 524 226 524 c 0
 120 524 54 474 54 386 c 0
328 749 m 1
 214 589 l 1
 280 589 l 1
 434 749 l 1
 328 749 l 1
EndSplineSet
EndChar

StartChar: scaron
Encoding: 353 353 257
Width: 453
VWidth: 0
Flags: HW
LayerCount: 2
UndoRedoHistory
Layer: 0
Undoes
EndUndoes
Redoes
EndRedoes
EndUndoRedoHistory
UndoRedoHistory
Layer: 1
Undoes
EndUndoes
Redoes
EndRedoes
EndUndoRedoHistory
Fore
SplineSet
54 386 m 0
 54 306 96 266 204 232 c 0
 300 202 326 180 326 134 c 0
 326 63 276 58 222 58 c 0
 160 58 100 80 64 111 c 1
 54 36 l 1
 92 8 157 -11 228 -11 c 0
 292 -11 406 8 406 142 c 0
 406 222 362 260 250 298 c 0
 164 327 136 345 136 387 c 0
 136 431 167 454 225 454 c 0
 295 454 337 430 366 416 c 1
 388 484 l 1
 352 504 289 524 226 524 c 0
 120 524 54 474 54 386 c 0
328 750 m 1
 244 643 l 1
 162 750 l 1
 89 750 l 1
 208 589 l 1
 286 589 l 1
 406 750 l 1
 328 750 l 1
EndSplineSet
EndChar

StartChar: scommaaccent
Encoding: 537 537 258
Width: 453
VWidth: 0
Flags: HW
LayerCount: 2
UndoRedoHistory
Layer: 0
Undoes
EndUndoes
Redoes
EndRedoes
EndUndoRedoHistory
UndoRedoHistory
Layer: 1
Undoes
EndUndoes
Redoes
EndRedoes
EndUndoRedoHistory
Fore
SplineSet
54 386 m 0
 54 306 96 266 204 232 c 0
 300 202 326 180 326 134 c 0
 326 63 276 58 222 58 c 0
 160 58 100 80 64 111 c 1
 54 36 l 1
 92 8 157 -11 228 -11 c 0
 292 -11 406 8 406 142 c 0
 406 222 362 260 250 298 c 0
 164 327 136 345 136 387 c 0
 136 431 167 454 225 454 c 0
 295 454 337 430 366 416 c 1
 388 484 l 1
 352 504 289 524 226 524 c 0
 120 524 54 474 54 386 c 0
208 -81 m 1
 154 -312 l 1
 220 -312 l 1
 301 -81 l 1
 208 -81 l 1
EndSplineSet
EndChar

StartChar: section
Encoding: 167 167 259
Width: 548
VWidth: 0
Flags: HW
LayerCount: 2
UndoRedoHistory
Layer: 0
Undoes
EndUndoes
Redoes
EndRedoes
EndUndoRedoHistory
UndoRedoHistory
Layer: 1
Undoes
EndUndoes
Redoes
EndRedoes
EndUndoRedoHistory
Fore
SplineSet
110 608 m 0
 110 544 145 514 187 488 c 1
 143 466 92 429 92 364 c 0
 92 348 95 334 101 320 c 0
 120 274 163 247 210 227 c 2
 252 209 l 2
 268 202 284 196 297 190 c 0
 326 176 358 162 358 122 c 0
 358 111 356 101 350 91 c 0
 332 59 288 44 238 44 c 0
 186 44 147 58 105 76 c 1
 106 2 l 1
 144 -14 190 -24 241 -24 c 0
 297 -24 348 -9 382 15 c 0
 415 38 444 73 444 126 c 0
 444 189 404 218 362 240 c 1
 404 266 456 302 456 368 c 0
 456 386 451 402 443 416 c 0
 406 478 318 500 253 536 c 0
 224 552 196 570 196 610 c 0
 196 664 250 678 304 678 c 0
 346 678 387 666 417 652 c 1
 416 726 l 1
 378 738 348 746 302 746 c 0
 202 746 110 708 110 608 c 0
366 362 m 0
 366 352 364 342 360 334 c 0
 346 308 320 290 296 274 c 1
 279 281 263 288 249 294 c 0
 217 308 181 326 181 370 c 0
 181 415 218 440 248 456 c 1
 288 434 366 424 366 362 c 0
EndSplineSet
EndChar

StartChar: semicolon
Encoding: 59 59 260
Width: 270
VWidth: 0
Flags: HW
LayerCount: 2
UndoRedoHistory
Layer: 0
Undoes
EndUndoes
Redoes
EndRedoes
EndUndoRedoHistory
UndoRedoHistory
Layer: 1
Undoes
EndUndoes
Redoes
EndRedoes
EndUndoRedoHistory
Fore
SplineSet
103 104 m 1
 50 -128 l 1
 116 -128 l 1
 197 104 l 1
 103 104 l 1
103 526 m 1
 80 420 l 1
 188 420 l 1
 188 526 l 1
 103 526 l 1
EndSplineSet
EndChar

StartChar: seven
Encoding: 55 55 261
Width: 598
VWidth: 0
Flags: HW
LayerCount: 2
UndoRedoHistory
Layer: 0
Undoes
EndUndoes
Redoes
EndRedoes
EndUndoRedoHistory
UndoRedoHistory
Layer: 1
Undoes
EndUndoes
Redoes
EndRedoes
EndUndoRedoHistory
Fore
SplineSet
58 710 m 1
 58 638 l 1
 448 638 l 1
 158 0 l 1
 250 0 l 1
 544 664 l 1
 544 710 l 1
 58 710 l 1
EndSplineSet
EndChar

StartChar: six
Encoding: 54 54 262
Width: 624
VWidth: 0
Flags: HW
LayerCount: 2
UndoRedoHistory
Layer: 0
Undoes
EndUndoes
Redoes
EndRedoes
EndUndoRedoHistory
UndoRedoHistory
Layer: 1
Undoes
EndUndoes
Redoes
EndRedoes
EndUndoRedoHistory
Fore
SplineSet
64 250 m 0
 74 120 142 -11 320 -11 c 0
 464 -11 572 89 572 233 c 0
 572 369 486 478 332 478 c 0
 277 478 182 451 150 390 c 1
 180 526 279 645 455 669 c 1
 437 742 l 1
 131 696 50 444 64 250 c 0
488 230 m 0
 488 128 427 64 320 64 c 0
 202 64 147 146 147 234 c 0
 147 334 216 410 322 410 c 0
 449 410 488 316 488 230 c 0
EndSplineSet
EndChar

StartChar: slash
Encoding: 47 47 263
Width: 358
VWidth: 0
Flags: HW
LayerCount: 2
UndoRedoHistory
Layer: 0
Undoes
EndUndoes
Redoes
EndRedoes
EndUndoRedoHistory
UndoRedoHistory
Layer: 1
Undoes
EndUndoes
Redoes
EndRedoes
EndUndoRedoHistory
Fore
SplineSet
295 726 m 1
 -24 -108 l 1
 58 -108 l 1
 378 726 l 1
 295 726 l 1
EndSplineSet
EndChar

StartChar: sterling
Encoding: 163 163 265
Width: 594
VWidth: 0
Flags: HW
LayerCount: 2
UndoRedoHistory
Layer: 0
Undoes
EndUndoes
Redoes
EndRedoes
EndUndoRedoHistory
UndoRedoHistory
Layer: 1
Undoes
EndUndoes
Redoes
EndRedoes
EndUndoRedoHistory
Fore
SplineSet
147 430 m 0
 147 425 148 421 148 416 c 1
 57 416 l 1
 57 345 l 1
 148 345 l 1
 148 220 l 2
 148 136 109 99 57 69 c 1
 58 0 l 1
 540 0 l 1
 540 70 l 1
 185 70 l 1
 193 76 200 85 206 97 c 0
 234 153 234 238 234 320 c 2
 234 345 l 1
 399 345 l 1
 399 416 l 1
 233 416 l 1
 232 474 l 1
 232 578 264 654 368 654 c 0
 424 654 470 640 505 618 c 1
 531 678 l 1
 493 708 438 724 366 724 c 0
 190 724 147 605 147 430 c 0
EndSplineSet
EndChar

StartChar: summation
Encoding: 8721 8721 266
Width: 632
VWidth: 0
Flags: HW
LayerCount: 2
UndoRedoHistory
Layer: 0
Undoes
EndUndoes
Redoes
EndRedoes
EndUndoRedoHistory
UndoRedoHistory
Layer: 1
Undoes
EndUndoes
Redoes
EndRedoes
EndUndoRedoHistory
Fore
SplineSet
40 712 m 1
 40 664 l 1
 348 276 l 1
 28 -120 l 1
 28 -164 l 1
 610 -164 l 1
 610 -90 l 1
 147 -90 l 1
 449 280 l 1
 162 640 l 1
 588 640 l 1
 588 712 l 1
 40 712 l 1
EndSplineSet
EndChar

StartChar: t
Encoding: 116 116 267
Width: 426
VWidth: 0
Flags: HW
LayerCount: 2
UndoRedoHistory
Layer: 0
Undoes
EndUndoes
Redoes
EndRedoes
EndUndoRedoHistory
UndoRedoHistory
Layer: 1
Undoes
EndUndoes
Redoes
EndRedoes
EndUndoRedoHistory
Fore
SplineSet
92 555 m 1
 92 124 l 2
 92 31 154 -9 238 -9 c 0
 270 -9 306 -2 343 8 c 1
 332 88 l 1
 312 82 281 77 261 77 c 0
 220 77 196 98 196 146 c 2
 196 568 l 1
 92 555 l 1
12 422 m 1
 12 347 l 1
 314 347 l 1
 314 422 l 1
 12 422 l 1
213 0 m 0
213 0 m 0
EndSplineSet
EndChar

StartChar: thorn
Encoding: 254 254 268
Width: 619
VWidth: 0
Flags: HW
LayerCount: 2
UndoRedoHistory
Layer: 0
Undoes
EndUndoes
Redoes
EndRedoes
EndUndoRedoHistory
UndoRedoHistory
Layer: 1
Undoes
EndUndoes
Redoes
EndRedoes
EndUndoRedoHistory
Fore
SplineSet
79 728 m 1
 79 -214 l 1
 162 -214 l 1
 162 68 l 1
 205 16 262 -12 334 -12 c 0
 374 -12 407 -4 437 11 c 0
 519 53 570 142 570 264 c 0
 570 300 565 332 555 364 c 0
 527 458 456 526 334 526 c 0
 254 526 199 491 162 441 c 1
 162 728 l 1
 79 728 l 1
482 260 m 0
 482 148 435 54 322 54 c 0
 296 54 273 59 253 69 c 0
 195 97 162 161 162 247 c 0
 162 366 205 458 325 458 c 0
 437 458 482 372 482 260 c 0
EndSplineSet
EndChar

StartChar: three
Encoding: 51 51 269
Width: 595
VWidth: 0
Flags: HW
LayerCount: 2
UndoRedoHistory
Layer: 0
Undoes
EndUndoes
Redoes
EndRedoes
EndUndoRedoHistory
UndoRedoHistory
Layer: 1
Undoes
EndUndoes
Redoes
EndRedoes
EndUndoRedoHistory
Fore
SplineSet
60 608 m 1
 110 564 l 1
 142 618 192 653 272 653 c 0
 352 653 413 621 413 542 c 0
 413 434 332 406 223 406 c 2
 192 406 l 1
 192 335 l 1
 231 336 l 1
 231 336 l 1
 343 339 436 308 436 198 c 0
 436 106 357 60 264 60 c 0
 178 60 120 100 96 162 c 1
 54 112 l 1
 72 28 158 -11 260 -11 c 0
 398 -11 524 58 524 196 c 0
 524 302 450 355 360 373 c 1
 438 395 505 445 505 543 c 0
 505 663 397 724 275 724 c 0
 173 724 90 682 60 608 c 1
EndSplineSet
EndChar

StartChar: threequarters
Encoding: 190 190 270
Width: 1227
VWidth: 0
Flags: HW
LayerCount: 2
UndoRedoHistory
Layer: 0
Undoes
EndUndoes
Redoes
EndRedoes
EndUndoRedoHistory
UndoRedoHistory
Layer: 1
Undoes
EndUndoes
Redoes
EndRedoes
EndUndoRedoHistory
Fore
SplineSet
284 718 m 1
 -168 0 l 1
 -93 0 l 1
 358 718 l 1
 284 718 l 1
302 670 m 1
 330 622 l 1
 354 642 385 661 426 661 c 0
 466 661 497 645 497 605 c 0
 497 555 448 544 398 544 c 2
 374 544 l 1
 374 485 l 1
 387 485 l 2
 391 485 398 486 402 486 c 0
 458 486 510 474 510 418 c 0
 510 372 469 350 422 350 c 0
 390 350 360 364 332 390 c 1
 302 342 l 1
 330 314 370 293 424 293 c 0
 444 293 464 296 482 302 c 0
 531 318 574 354 574 417 c 0
 574 469 547 500 510 516 c 1
 541 532 564 562 564 606 c 0
 564 624 560 641 552 655 c 0
 531 694 488 720 428 720 c 0
 376 720 330 697 302 670 c 1
951 706 m 1
 768 447 l 1
 768 402 l 1
 957 402 l 1
 957 308 l 1
 1017 308 l 1
 1017 402 l 1
 1078 402 l 1
 1072 455 l 1
 1018 455 l 1
 1018 706 l 1
 951 706 l 1
957 455 m 1
 838 455 l 1
 957 622 l 1
 957 455 l 1
EndSplineSet
EndChar

StartChar: tilde
Encoding: 732 732 271
Width: 331
VWidth: 0
Flags: HW
LayerCount: 2
UndoRedoHistory
Layer: 0
Undoes
EndUndoes
Redoes
EndRedoes
EndUndoRedoHistory
UndoRedoHistory
Layer: 1
Undoes
EndUndoes
Redoes
EndRedoes
EndUndoRedoHistory
Fore
SplineSet
275 718 m 1
 271 692 258 672 232 672 c 0
 222 672 212 674 202 678 c 0
 173 688 144 706 106 706 c 0
 44 706 12 660 7 602 c 1
 60 602 l 1
 64 630 78 644 105 644 c 0
 153 644 184 610 232 610 c 0
 294 610 323 662 329 718 c 1
 275 718 l 1
168 0 m 0
EndSplineSet
EndChar

StartChar: trademark
Encoding: 8482 8482 272
Width: 934
VWidth: 0
Flags: HW
LayerCount: 2
UndoRedoHistory
Layer: 0
Undoes
EndUndoes
Redoes
EndRedoes
EndUndoRedoHistory
UndoRedoHistory
Layer: 1
Undoes
EndUndoes
Redoes
EndRedoes
EndUndoRedoHistory
Fore
SplineSet
748 726 m 1
 622 450 l 1
 504 726 l 1
 410 726 l 1
 410 343 l 1
 470 343 l 1
 470 640 l 1
 600 343 l 1
 640 343 l 1
 776 640 l 1
 776 343 l 1
 838 343 l 1
 838 726 l 1
 748 726 l 1
35 726 m 1
 35 675 l 1
 162 675 l 1
 162 343 l 1
 224 343 l 1
 224 675 l 1
 354 675 l 1
 354 726 l 1
 35 726 l 1
EndSplineSet
EndChar

StartChar: two
Encoding: 50 50 273
Width: 624
VWidth: 0
Flags: HW
LayerCount: 2
UndoRedoHistory
Layer: 0
Undoes
EndUndoes
Redoes
EndRedoes
EndUndoRedoHistory
UndoRedoHistory
Layer: 1
Undoes
EndUndoes
Redoes
EndRedoes
EndUndoRedoHistory
Fore
SplineSet
66 588 m 1
 115 539 l 1
 143 602 197 654 286 654 c 0
 365 654 428 614 428 536 c 0
 428 443 344 363 292 308 c 0
 216 228 127 149 49 74 c 1
 50 0 l 1
 518 0 l 1
 518 72 l 1
 152 72 l 1
 203 119 261 171 312 221 c 0
 387 295 516 403 516 539 c 0
 516 661 416 724 292 724 c 0
 178 724 97 672 66 588 c 1
EndSplineSet
EndChar

StartChar: u
Encoding: 117 117 274
Width: 639
VWidth: 0
Flags: HW
LayerCount: 2
UndoRedoHistory
Layer: 0
Undoes
EndUndoes
Redoes
EndRedoes
EndUndoRedoHistory
UndoRedoHistory
Layer: 1
Undoes
EndUndoes
Redoes
EndRedoes
EndUndoRedoHistory
Fore
SplineSet
410 422 m 1
 410 200 l 2
 410 122 360 70 286 70 c 0
 244 70 216 106 218 160 c 2
 220 244 l 2
 224 374 204 422 204 422 c 1
 98 411 l 1
 98 411 118 358 114 238 c 1
 112 149 l 1
 109 53 175 -11 275 -11 c 0
 336 -11 396 20 424 66 c 1
 434 25 487 -4 556 -4 c 1
 571 88 l 1
 537 88 516 114 516 150 c 2
 516 422 l 1
 410 422 l 1
584 5 m 0
344 0 m 0
EndSplineSet
EndChar

StartChar: u.alt
Encoding: 65544 -1 275
Width: 607
VWidth: 0
Flags: HW
LayerCount: 2
UndoRedoHistory
Layer: 0
Undoes
EndUndoes
Redoes
EndRedoes
EndUndoRedoHistory
UndoRedoHistory
Layer: 1
Undoes
EndUndoes
Redoes
EndRedoes
EndUndoRedoHistory
Fore
SplineSet
428 513 m 1
 428 209 l 2
 428 111 350 59 278 59 c 0
 218 59 162 92 162 190 c 2
 162 298 l 2
 162 456 142 513 142 513 c 1
 60 513 l 1
 60 513 80 435 80 291 c 2
 80 190 l 2
 80 48 168 -12 265 -12 c 0
 344 -12 403 20 444 78 c 1
 458 22 508 -2 556 -2 c 1
 573 70 l 1
 547 70 511 85 511 143 c 2
 511 513 l 1
 428 513 l 1
546 5 m 0
304 0 m 0
EndSplineSet
EndChar

StartChar: underscore
Encoding: 95 95 280
Width: 498
VWidth: 0
Flags: HW
LayerCount: 2
UndoRedoHistory
Layer: 0
Undoes
EndUndoes
Redoes
EndRedoes
EndUndoRedoHistory
UndoRedoHistory
Layer: 1
Undoes
EndUndoes
Redoes
EndRedoes
EndUndoRedoHistory
Fore
SplineSet
-2 -72 m 1
 -2 -136 l 1
 499 -136 l 1
 499 -72 l 1
 -2 -72 l 1
EndSplineSet
EndChar

StartChar: uni00B2
Encoding: 178 178 283
Width: 595
VWidth: 0
Flags: HW
LayerCount: 2
UndoRedoHistory
Layer: 0
Undoes
EndUndoes
Redoes
EndRedoes
EndUndoRedoHistory
UndoRedoHistory
Layer: 1
Undoes
EndUndoes
Redoes
EndRedoes
EndUndoRedoHistory
Fore
SplineSet
146 635 m 1
 188 596 l 1
 204 631 232 662 280 662 c 0
 320 662 350 644 350 606 c 0
 350 592 345 576 335 559 c 0
 325 542 310 523 292 503 c 0
 248 454 195 406 142 358 c 1
 142 302 l 1
 414 302 l 1
 414 361 l 1
 232 361 l 1
 278 401 325 440 362 484 c 0
 389 516 415 554 415 606 c 0
 415 624 411 640 405 654 c 0
 385 694 343 720 284 720 c 0
 215 720 168 685 146 635 c 1
EndSplineSet
EndChar

StartChar: uni00B3
Encoding: 179 179 284
Width: 595
VWidth: 0
Flags: HW
LayerCount: 2
UndoRedoHistory
Layer: 0
Undoes
EndUndoes
Redoes
EndRedoes
EndUndoRedoHistory
UndoRedoHistory
Layer: 1
Undoes
EndUndoes
Redoes
EndRedoes
EndUndoRedoHistory
Fore
SplineSet
118 670 m 1
 146 622 l 1
 170 642 201 661 242 661 c 0
 282 661 313 645 313 605 c 0
 313 555 264 544 214 544 c 2
 190 544 l 1
 190 485 l 1
 203 485 l 2
 207 485 214 486 218 486 c 0
 274 486 326 474 326 418 c 0
 326 372 285 350 238 350 c 0
 206 350 176 364 148 390 c 1
 118 342 l 1
 146 314 186 293 240 293 c 0
 260 293 280 296 298 302 c 0
 347 318 390 354 390 417 c 0
 390 469 363 500 326 516 c 1
 357 532 380 562 380 606 c 0
 380 624 376 641 368 655 c 0
 347 694 304 720 244 720 c 0
 192 720 146 697 118 670 c 1
EndSplineSet
EndChar

StartChar: uni00B9
Encoding: 185 185 285
Width: 595
VWidth: 0
Flags: HW
LayerCount: 2
UndoRedoHistory
Layer: 0
Undoes
EndUndoes
Redoes
EndRedoes
EndUndoRedoHistory
UndoRedoHistory
Layer: 1
Undoes
EndUndoes
Redoes
EndRedoes
EndUndoRedoHistory
Fore
SplineSet
204 706 m 1
 178 690 154 676 120 666 c 1
 120 602 l 1
 145 612 174 624 196 636 c 1
 196 584 l 2
 196 558 196 534 196 504 c 2
 196 362 l 1
 135 362 l 1
 135 302 l 1
 318 302 l 1
 318 360 l 1
 256 360 l 1
 256 714 l 1
 204 706 l 1
EndSplineSet
EndChar

StartChar: uni0200
Encoding: 512 512 286
Width: 712
VWidth: 0
Flags: HW
LayerCount: 2
UndoRedoHistory
Layer: 0
Undoes
EndUndoes
Redoes
EndRedoes
EndUndoRedoHistory
UndoRedoHistory
Layer: 1
Undoes
EndUndoes
Redoes
EndRedoes
EndUndoRedoHistory
Fore
SplineSet
308 728 m 1
 6 0 l 1
 100 0 l 1
 178 198 l 1
 526 198 l 1
 608 0 l 1
 704 0 l 1
 401 728 l 1
 308 728 l 1
380 575 m 1
 497 272 l 1
 205 272 l 1
 328 574 l 1
 336 595 346 626 354 649 c 1
 361 626 371 596 380 575 c 1
124 958 m 1
 262 802 l 1
 322 802 l 1
 212 958 l 1
 124 958 l 1
260 958 m 1
 397 802 l 1
 456 802 l 1
 348 958 l 1
 260 958 l 1
EndSplineSet
EndChar

StartChar: uni0201
Encoding: 513 513 287
Width: 609
VWidth: 0
Flags: HW
LayerCount: 2
UndoRedoHistory
Layer: 0
Undoes
EndUndoes
Redoes
EndRedoes
EndUndoRedoHistory
UndoRedoHistory
Layer: 1
Undoes
EndUndoes
Redoes
EndRedoes
EndUndoRedoHistory
Fore
SplineSet
57 219 m 0
 57 81 140 -11 260 -11 c 0
 321 -11 394 7 440 83 c 1
 454 23 512 -2 556 -2 c 1
 574 70 l 1
 548 70 511 85 511 143 c 2
 511 481 l 1
 459 512 398 524 336 524 c 0
 170 524 57 403 57 219 c 0
429 436 m 1
 429 202 l 2
 429 114 351 58 272 58 c 0
 194 58 142 124 142 224 c 0
 142 362 219 454 334 454 c 0
 362 454 401 450 429 436 c 1
90 744 m 1
 228 587 l 1
 288 587 l 1
 178 744 l 1
 90 744 l 1
224 744 m 1
 362 587 l 1
 421 587 l 1
 312 744 l 1
 224 744 l 1
EndSplineSet
EndChar

StartChar: uni0202
Encoding: 514 514 288
Width: 712
VWidth: 0
Flags: HW
LayerCount: 2
UndoRedoHistory
Layer: 0
Undoes
EndUndoes
Redoes
EndRedoes
EndUndoRedoHistory
UndoRedoHistory
Layer: 1
Undoes
EndUndoes
Redoes
EndRedoes
EndUndoRedoHistory
Fore
SplineSet
308 728 m 1
 6 0 l 1
 100 0 l 1
 178 198 l 1
 526 198 l 1
 608 0 l 1
 704 0 l 1
 401 728 l 1
 308 728 l 1
380 575 m 1
 497 272 l 1
 205 272 l 1
 328 574 l 1
 336 595 346 626 354 649 c 1
 361 626 371 596 380 575 c 1
214 824 m 1
 257 824 l 1
 265 868 301 888 352 888 c 0
 403 888 442 866 452 824 c 1
 496 824 l 1
 490 901 439 942 356 942 c 0
 270 942 220 904 214 824 c 1
EndSplineSet
EndChar

StartChar: uni0203
Encoding: 515 515 289
Width: 609
VWidth: 0
Flags: HW
LayerCount: 2
UndoRedoHistory
Layer: 0
Undoes
EndUndoes
Redoes
EndRedoes
EndUndoRedoHistory
UndoRedoHistory
Layer: 1
Undoes
EndUndoes
Redoes
EndRedoes
EndUndoRedoHistory
Fore
SplineSet
57 219 m 0
 57 81 140 -11 260 -11 c 0
 321 -11 394 7 440 83 c 1
 454 23 512 -2 556 -2 c 1
 574 70 l 1
 548 70 511 85 511 143 c 2
 511 481 l 1
 459 512 398 524 336 524 c 0
 170 524 57 403 57 219 c 0
429 436 m 1
 429 202 l 2
 429 114 351 58 272 58 c 0
 194 58 142 124 142 224 c 0
 142 362 219 454 334 454 c 0
 362 454 401 450 429 436 c 1
178 609 m 1
 222 609 l 1
 230 653 266 674 317 674 c 0
 368 674 408 651 418 609 c 1
 460 609 l 1
 454 686 403 727 320 727 c 0
 234 727 184 689 178 609 c 1
EndSplineSet
EndChar

StartChar: uni0204
Encoding: 516 516 290
Width: 606
VWidth: 0
Flags: HW
LayerCount: 2
UndoRedoHistory
Layer: 0
Undoes
EndUndoes
Redoes
EndRedoes
EndUndoRedoHistory
UndoRedoHistory
Layer: 1
Undoes
EndUndoes
Redoes
EndRedoes
EndUndoRedoHistory
Fore
SplineSet
100 728 m 1
 100 0 l 1
 558 0 l 1
 558 74 l 1
 186 74 l 1
 186 336 l 1
 514 336 l 1
 514 410 l 1
 186 410 l 1
 186 654 l 1
 534 654 l 1
 534 728 l 1
 100 728 l 1
102 958 m 1
 240 802 l 1
 300 802 l 1
 190 958 l 1
 102 958 l 1
238 958 m 1
 375 802 l 1
 434 802 l 1
 326 958 l 1
 238 958 l 1
EndSplineSet
EndChar

StartChar: uni0205
Encoding: 517 517 291
Width: 537
VWidth: 0
Flags: HW
LayerCount: 2
UndoRedoHistory
Layer: 0
Undoes
EndUndoes
Redoes
EndRedoes
EndUndoRedoHistory
UndoRedoHistory
Layer: 1
Undoes
EndUndoes
Redoes
EndRedoes
EndUndoRedoHistory
Fore
SplineSet
45 258 m 0
 45 94 146 -11 298 -11 c 0
 378 -11 454 21 504 73 c 1
 463 126 l 1
 429 88 368 58 298 58 c 0
 224 58 162 110 142 186 c 1
 325 213 471 254 471 376 c 0
 471 460 402 524 294 524 c 0
 130 524 45 398 45 258 c 0
390 378 m 0
 390 298 279 267 136 245 c 1
 135 253 135 263 135 270 c 0
 135 394 211 454 294 454 c 0
 354 454 390 424 390 378 c 0
51 744 m 1
 189 587 l 1
 249 587 l 1
 139 744 l 1
 51 744 l 1
186 744 m 1
 324 587 l 1
 382 587 l 1
 274 744 l 1
 186 744 l 1
EndSplineSet
EndChar

StartChar: uni0206
Encoding: 518 518 292
Width: 606
VWidth: 0
Flags: HW
LayerCount: 2
UndoRedoHistory
Layer: 0
Undoes
EndUndoes
Redoes
EndRedoes
EndUndoRedoHistory
UndoRedoHistory
Layer: 1
Undoes
EndUndoes
Redoes
EndRedoes
EndUndoRedoHistory
Fore
SplineSet
100 728 m 1
 100 0 l 1
 558 0 l 1
 558 74 l 1
 186 74 l 1
 186 336 l 1
 514 336 l 1
 514 410 l 1
 186 410 l 1
 186 654 l 1
 534 654 l 1
 534 728 l 1
 100 728 l 1
192 824 m 1
 235 824 l 1
 243 868 279 888 330 888 c 0
 381 888 420 866 430 824 c 1
 474 824 l 1
 468 901 417 942 334 942 c 0
 248 942 198 904 192 824 c 1
EndSplineSet
EndChar

StartChar: uni0207
Encoding: 519 519 293
Width: 537
VWidth: 0
Flags: HW
LayerCount: 2
UndoRedoHistory
Layer: 0
Undoes
EndUndoes
Redoes
EndRedoes
EndUndoRedoHistory
UndoRedoHistory
Layer: 1
Undoes
EndUndoes
Redoes
EndRedoes
EndUndoRedoHistory
Fore
SplineSet
45 258 m 0
 45 94 146 -11 298 -11 c 0
 378 -11 454 21 504 73 c 1
 463 126 l 1
 429 88 368 58 298 58 c 0
 224 58 162 110 142 186 c 1
 325 213 471 254 471 376 c 0
 471 460 402 524 294 524 c 0
 130 524 45 398 45 258 c 0
390 378 m 0
 390 298 279 267 136 245 c 1
 135 253 135 263 135 270 c 0
 135 394 211 454 294 454 c 0
 354 454 390 424 390 378 c 0
140 609 m 1
 184 609 l 1
 192 653 227 674 278 674 c 0
 329 674 369 651 379 609 c 1
 422 609 l 1
 416 686 365 727 282 727 c 0
 196 727 146 689 140 609 c 1
EndSplineSet
EndChar

StartChar: uni0208
Encoding: 520 520 294
Width: 295
VWidth: 0
Flags: HW
LayerCount: 2
UndoRedoHistory
Layer: 0
Undoes
EndUndoes
Redoes
EndRedoes
EndUndoRedoHistory
UndoRedoHistory
Layer: 1
Undoes
EndUndoes
Redoes
EndRedoes
EndUndoRedoHistory
Fore
SplineSet
105 728 m 1
 105 0 l 1
 191 0 l 1
 191 728 l 1
 105 728 l 1
-84 958 m 1
 54 802 l 1
 114 802 l 1
 4 958 l 1
 -84 958 l 1
51 958 m 1
 188 802 l 1
 248 802 l 1
 139 958 l 1
 51 958 l 1
EndSplineSet
EndChar

StartChar: uni0209
Encoding: 521 521 295
Width: 251
VWidth: 0
Flags: HW
LayerCount: 2
UndoRedoHistory
Layer: 0
Undoes
EndUndoes
Redoes
EndRedoes
EndUndoRedoHistory
UndoRedoHistory
Layer: 1
Undoes
EndUndoes
Redoes
EndRedoes
EndUndoRedoHistory
Fore
SplineSet
84 513 m 1
 84 139 l 2
 84 33 146 -2 217 -2 c 0
 241 -2 275 5 300 15 c 1
 290 70 l 1
 272 64 243 59 228 59 c 0
 194 59 166 72 166 142 c 2
 166 513 l 1
 84 513 l 1
-106 744 m 1
 32 587 l 1
 92 587 l 1
 -18 744 l 1
 -106 744 l 1
29 744 m 1
 166 587 l 1
 226 587 l 1
 117 744 l 1
 29 744 l 1
EndSplineSet
EndChar

StartChar: uni020A
Encoding: 522 522 296
Width: 295
VWidth: 0
Flags: HW
LayerCount: 2
UndoRedoHistory
Layer: 0
Undoes
EndUndoes
Redoes
EndRedoes
EndUndoRedoHistory
UndoRedoHistory
Layer: 1
Undoes
EndUndoes
Redoes
EndRedoes
EndUndoRedoHistory
Fore
SplineSet
105 728 m 1
 105 0 l 1
 191 0 l 1
 191 728 l 1
 105 728 l 1
5 824 m 1
 48 824 l 1
 56 868 93 888 144 888 c 0
 195 888 234 866 244 824 c 1
 287 824 l 1
 281 901 230 942 147 942 c 0
 61 942 11 904 5 824 c 1
EndSplineSet
EndChar

StartChar: uni020B
Encoding: 523 523 297
Width: 251
VWidth: 0
Flags: HW
LayerCount: 2
UndoRedoHistory
Layer: 0
Undoes
EndUndoes
Redoes
EndRedoes
EndUndoRedoHistory
UndoRedoHistory
Layer: 1
Undoes
EndUndoes
Redoes
EndRedoes
EndUndoRedoHistory
Fore
SplineSet
84 513 m 1
 84 139 l 2
 84 33 146 -2 217 -2 c 0
 241 -2 275 5 300 15 c 1
 290 70 l 1
 272 64 243 59 228 59 c 0
 194 59 166 72 166 142 c 2
 166 513 l 1
 84 513 l 1
-17 609 m 1
 26 609 l 1
 34 653 71 674 122 674 c 0
 173 674 212 651 222 609 c 1
 265 609 l 1
 259 686 208 727 125 727 c 0
 39 727 -11 689 -17 609 c 1
EndSplineSet
EndChar

StartChar: uni020C
Encoding: 524 524 298
Width: 831
VWidth: 0
Flags: HW
LayerCount: 2
UndoRedoHistory
Layer: 0
Undoes
EndUndoes
Redoes
EndRedoes
EndUndoRedoHistory
UndoRedoHistory
Layer: 1
Undoes
EndUndoes
Redoes
EndRedoes
EndUndoRedoHistory
Fore
SplineSet
58 365 m 0
 58 109 216 -11 417 -11 c 0
 652 -11 773 169 773 365 c 0
 773 621 617 742 417 742 c 0
 180 742 58 561 58 365 c 0
679 364 m 0
 679 164 553 62 417 62 c 0
 235 62 150 194 150 364 c 0
 150 564 278 667 417 667 c 0
 595 667 679 534 679 364 c 0
184 958 m 1
 322 802 l 1
 382 802 l 1
 272 958 l 1
 184 958 l 1
318 958 m 1
 456 802 l 1
 515 802 l 1
 406 958 l 1
 318 958 l 1
EndSplineSet
EndChar

StartChar: uni020D
Encoding: 525 525 299
Width: 615
VWidth: 0
Flags: HW
LayerCount: 2
UndoRedoHistory
Layer: 0
Undoes
EndUndoes
Redoes
EndRedoes
EndUndoRedoHistory
UndoRedoHistory
Layer: 1
Undoes
EndUndoes
Redoes
EndRedoes
EndUndoRedoHistory
Fore
SplineSet
45 256 m 0
 45 106 131 -11 310 -11 c 0
 452 -11 570 70 570 256 c 0
 570 406 487 524 310 524 c 0
 166 524 45 443 45 256 c 0
485 256 m 0
 485 149 430 58 310 58 c 0
 210 58 130 120 130 254 c 0
 130 363 188 454 310 454 c 0
 408 454 485 392 485 256 c 0
78 744 m 1
 216 587 l 1
 276 587 l 1
 166 744 l 1
 78 744 l 1
212 744 m 1
 350 587 l 1
 409 587 l 1
 300 744 l 1
 212 744 l 1
EndSplineSet
EndChar

StartChar: uni020E
Encoding: 526 526 300
Width: 831
VWidth: 0
Flags: HW
LayerCount: 2
UndoRedoHistory
Layer: 0
Undoes
EndUndoes
Redoes
EndRedoes
EndUndoRedoHistory
UndoRedoHistory
Layer: 1
Undoes
EndUndoes
Redoes
EndRedoes
EndUndoRedoHistory
Fore
SplineSet
58 365 m 0
 58 109 216 -11 417 -11 c 0
 652 -11 773 169 773 365 c 0
 773 621 617 742 417 742 c 0
 180 742 58 561 58 365 c 0
679 364 m 0
 679 164 553 62 417 62 c 0
 235 62 150 194 150 364 c 0
 150 564 278 667 417 667 c 0
 595 667 679 534 679 364 c 0
272 824 m 1
 316 824 l 1
 324 868 360 888 411 888 c 0
 462 888 502 866 512 824 c 1
 554 824 l 1
 548 901 497 942 414 942 c 0
 328 942 278 904 272 824 c 1
EndSplineSet
EndChar

StartChar: uni020F
Encoding: 527 527 301
Width: 615
VWidth: 0
Flags: HW
LayerCount: 2
UndoRedoHistory
Layer: 0
Undoes
EndUndoes
Redoes
EndRedoes
EndUndoRedoHistory
UndoRedoHistory
Layer: 1
Undoes
EndUndoes
Redoes
EndRedoes
EndUndoRedoHistory
Fore
SplineSet
45 256 m 0
 45 106 131 -11 310 -11 c 0
 452 -11 570 70 570 256 c 0
 570 406 487 524 310 524 c 0
 166 524 45 443 45 256 c 0
485 256 m 0
 485 149 430 58 310 58 c 0
 210 58 130 120 130 254 c 0
 130 363 188 454 310 454 c 0
 408 454 485 392 485 256 c 0
166 609 m 1
 210 609 l 1
 218 653 254 674 305 674 c 0
 356 674 396 651 406 609 c 1
 448 609 l 1
 442 686 391 727 308 727 c 0
 222 727 172 689 166 609 c 1
EndSplineSet
EndChar

StartChar: uni0210
Encoding: 528 528 302
Width: 686
VWidth: 0
Flags: HW
LayerCount: 2
UndoRedoHistory
Layer: 0
Undoes
EndUndoes
Redoes
EndRedoes
EndUndoRedoHistory
UndoRedoHistory
Layer: 1
Undoes
EndUndoes
Redoes
EndRedoes
EndUndoRedoHistory
Fore
SplineSet
100 728 m 1
 100 0 l 1
 186 0 l 1
 186 326 l 1
 321 326 l 2
 419 326 444 282 470 210 c 2
 547 0 l 1
 641 0 l 1
 560 205 l 2
 533 273 510 336 442 358 c 1
 525 380 597 433 597 537 c 0
 597 705 446 728 278 728 c 2
 100 728 l 1
506 529 m 0
 506 429 417 400 319 400 c 2
 186 400 l 1
 186 654 l 1
 324 654 l 2
 426 654 506 631 506 529 c 0
110 958 m 1
 248 802 l 1
 308 802 l 1
 198 958 l 1
 110 958 l 1
246 958 m 1
 383 802 l 1
 442 802 l 1
 334 958 l 1
 246 958 l 1
EndSplineSet
EndChar

StartChar: uni0211
Encoding: 529 529 303
Width: 397
VWidth: 0
Flags: HW
LayerCount: 2
UndoRedoHistory
Layer: 0
Undoes
EndUndoes
Redoes
EndRedoes
EndUndoRedoHistory
UndoRedoHistory
Layer: 1
Undoes
EndUndoes
Redoes
EndRedoes
EndUndoRedoHistory
Fore
SplineSet
173 436 m 1
 160 513 l 1
 78 500 l 1
 81 477 91 431 91 390 c 2
 91 0 l 1
 173 0 l 1
 173 284 l 2
 173 402 235 454 308 454 c 0
 350 454 372 445 380 442 c 1
 388 514 l 1
 370 519 352 524 310 524 c 0
 246 524 197 484 173 436 c 1
12 744 m 1
 150 587 l 1
 210 587 l 1
 100 744 l 1
 12 744 l 1
147 744 m 1
 284 587 l 1
 344 587 l 1
 235 744 l 1
 147 744 l 1
EndSplineSet
EndChar

StartChar: uni0212
Encoding: 530 530 304
Width: 686
VWidth: 0
Flags: HW
LayerCount: 2
UndoRedoHistory
Layer: 0
Undoes
EndUndoes
Redoes
EndRedoes
EndUndoRedoHistory
UndoRedoHistory
Layer: 1
Undoes
EndUndoes
Redoes
EndRedoes
EndUndoRedoHistory
Fore
SplineSet
100 728 m 1
 100 0 l 1
 186 0 l 1
 186 326 l 1
 321 326 l 2
 419 326 444 282 470 210 c 2
 547 0 l 1
 641 0 l 1
 560 205 l 2
 533 273 510 336 442 358 c 1
 525 380 597 433 597 537 c 0
 597 705 446 728 278 728 c 2
 100 728 l 1
506 529 m 0
 506 429 417 400 319 400 c 2
 186 400 l 1
 186 654 l 1
 324 654 l 2
 426 654 506 631 506 529 c 0
200 824 m 1
 243 824 l 1
 251 868 287 888 338 888 c 0
 389 888 428 866 438 824 c 1
 482 824 l 1
 476 901 425 942 342 942 c 0
 256 942 206 904 200 824 c 1
EndSplineSet
EndChar

StartChar: uni0213
Encoding: 531 531 305
Width: 397
VWidth: 0
Flags: HW
LayerCount: 2
UndoRedoHistory
Layer: 0
Undoes
EndUndoes
Redoes
EndRedoes
EndUndoRedoHistory
UndoRedoHistory
Layer: 1
Undoes
EndUndoes
Redoes
EndRedoes
EndUndoRedoHistory
Fore
SplineSet
173 436 m 1
 160 513 l 1
 78 500 l 1
 81 477 91 431 91 390 c 2
 91 0 l 1
 173 0 l 1
 173 284 l 2
 173 402 235 454 308 454 c 0
 350 454 372 445 380 442 c 1
 388 514 l 1
 370 519 352 524 310 524 c 0
 246 524 197 484 173 436 c 1
101 609 m 1
 144 609 l 1
 152 653 189 674 240 674 c 0
 291 674 330 651 340 609 c 1
 383 609 l 1
 377 686 326 727 243 727 c 0
 157 727 107 689 101 609 c 1
EndSplineSet
EndChar

StartChar: uni0214
Encoding: 532 532 306
Width: 766
VWidth: 0
Flags: HW
LayerCount: 2
UndoRedoHistory
Layer: 0
Undoes
EndUndoes
Redoes
EndRedoes
EndUndoRedoHistory
UndoRedoHistory
Layer: 1
Undoes
EndUndoes
Redoes
EndRedoes
EndUndoRedoHistory
Fore
SplineSet
582 728 m 1
 582 270 l 2
 582 140 513 62 387 62 c 0
 251 62 182 130 182 273 c 2
 182 728 l 1
 96 728 l 1
 96 270 l 2
 96 78 196 -11 388 -11 c 0
 569 -11 667 96 668 276 c 1
 668 728 l 1
 582 728 l 1
151 958 m 1
 289 802 l 1
 349 802 l 1
 239 958 l 1
 151 958 l 1
286 958 m 1
 424 802 l 1
 482 802 l 1
 374 958 l 1
 286 958 l 1
EndSplineSet
EndChar

StartChar: uni0215
Encoding: 533 533 307
Width: 600
VWidth: 0
Flags: HW
LayerCount: 2
UndoRedoHistory
Layer: 0
Undoes
EndUndoes
Redoes
EndRedoes
EndUndoRedoHistory
UndoRedoHistory
Layer: 1
Undoes
EndUndoes
Redoes
EndRedoes
EndUndoRedoHistory
Fore
SplineSet
428 513 m 1
 428 214 l 2
 428 116 358 58 276 58 c 0
 216 58 156 84 158 182 c 2
 160 298 l 2
 164 456 141 513 141 513 c 1
 58 500 l 1
 58 500 82 435 78 291 c 1
 75 182 l 2
 71 40 167 -11 264 -11 c 0
 343 -11 405 20 443 82 c 1
 457 26 511 -2 559 -2 c 1
 576 70 l 1
 550 70 510 85 510 143 c 2
 510 513 l 1
 428 513 l 1
70 744 m 1
 208 587 l 1
 268 587 l 1
 158 744 l 1
 70 744 l 1
206 744 m 1
 343 587 l 1
 402 587 l 1
 294 744 l 1
 206 744 l 1
EndSplineSet
EndChar

StartChar: uni0216
Encoding: 534 534 308
Width: 766
VWidth: 0
Flags: HW
LayerCount: 2
UndoRedoHistory
Layer: 0
Undoes
EndUndoes
Redoes
EndRedoes
EndUndoRedoHistory
UndoRedoHistory
Layer: 1
Undoes
EndUndoes
Redoes
EndRedoes
EndUndoRedoHistory
Fore
SplineSet
582 728 m 1
 582 270 l 2
 582 140 513 62 387 62 c 0
 251 62 182 130 182 273 c 2
 182 728 l 1
 96 728 l 1
 96 270 l 2
 96 78 196 -11 388 -11 c 0
 569 -11 667 96 668 276 c 1
 668 728 l 1
 582 728 l 1
240 824 m 1
 284 824 l 1
 292 868 327 888 378 888 c 0
 429 888 469 866 479 824 c 1
 522 824 l 1
 516 901 465 942 382 942 c 0
 296 942 246 904 240 824 c 1
EndSplineSet
EndChar

StartChar: uni0217
Encoding: 535 535 309
Width: 600
VWidth: 0
Flags: HW
LayerCount: 2
UndoRedoHistory
Layer: 0
Undoes
EndUndoes
Redoes
EndRedoes
EndUndoRedoHistory
UndoRedoHistory
Layer: 1
Undoes
EndUndoes
Redoes
EndRedoes
EndUndoRedoHistory
Fore
SplineSet
428 513 m 1
 428 214 l 2
 428 116 358 58 276 58 c 0
 216 58 156 84 158 182 c 2
 160 298 l 2
 164 456 141 513 141 513 c 1
 58 500 l 1
 58 500 82 435 78 291 c 1
 75 182 l 2
 71 40 167 -11 264 -11 c 0
 343 -11 405 20 443 82 c 1
 457 26 511 -2 559 -2 c 1
 576 70 l 1
 550 70 510 85 510 143 c 2
 510 513 l 1
 428 513 l 1
160 609 m 1
 203 609 l 1
 211 653 247 674 298 674 c 0
 349 674 388 651 398 609 c 1
 442 609 l 1
 436 686 385 727 302 727 c 0
 216 727 166 689 160 609 c 1
EndSplineSet
EndChar

StartChar: uni021A
Encoding: 538 538 310
Width: 587
VWidth: 0
Flags: HW
LayerCount: 2
UndoRedoHistory
Layer: 0
Undoes
EndUndoes
Redoes
EndRedoes
EndUndoRedoHistory
UndoRedoHistory
Layer: 1
Undoes
EndUndoes
Redoes
EndRedoes
EndUndoRedoHistory
Fore
SplineSet
16 728 m 1
 16 654 l 1
 250 654 l 1
 250 0 l 1
 336 0 l 1
 336 654 l 1
 572 654 l 1
 572 728 l 1
 16 728 l 1
274 -81 m 1
 220 -312 l 1
 286 -312 l 1
 367 -81 l 1
 274 -81 l 1
EndSplineSet
EndChar

StartChar: uni021B
Encoding: 539 539 311
Width: 410
VWidth: 0
Flags: HW
LayerCount: 2
UndoRedoHistory
Layer: 0
Undoes
EndUndoes
Redoes
EndRedoes
EndUndoRedoHistory
UndoRedoHistory
Layer: 1
Undoes
EndUndoes
Redoes
EndRedoes
EndUndoRedoHistory
Fore
SplineSet
116 649 m 1
 116 513 l 1
 12 513 l 1
 12 460 l 1
 114 460 l 1
 114 150 l 2
 114 42 164 -4 280 -4 c 0
 308 -4 364 7 396 18 c 1
 386 76 l 1
 362 67 313 56 290 56 c 0
 225 56 196 84 196 146 c 2
 196 460 l 1
 364 460 l 1
 364 513 l 1
 196 513 l 1
 196 672 l 1
 116 649 l 1
257 -81 m 1
 204 -312 l 1
 269 -312 l 1
 350 -81 l 1
 257 -81 l 1
EndSplineSet
EndChar

StartChar: uni0237
Encoding: 567 567 312
Width: 251
VWidth: 0
Flags: HW
LayerCount: 2
UndoRedoHistory
Layer: 0
Undoes
EndUndoes
Redoes
EndRedoes
EndUndoRedoHistory
UndoRedoHistory
Layer: 1
Undoes
EndUndoes
Redoes
EndRedoes
EndUndoRedoHistory
Fore
SplineSet
88 513 m 1
 88 16 l 2
 88 -72 69 -142 -9 -142 c 0
 -24 -142 -36 -138 -51 -136 c 1
 -50 -208 l 1
 -31 -212 -12 -214 10 -214 c 0
 33 -214 53 -212 70 -204 c 0
 148 -170 170 -76 170 36 c 2
 170 513 l 1
 88 513 l 1
126 0 m 0
EndSplineSet
EndChar

StartChar: uni0307
Encoding: 775 775 313
Width: 262
VWidth: 0
Flags: HW
LayerCount: 2
UndoRedoHistory
Layer: 0
Undoes
EndUndoes
Redoes
EndRedoes
EndUndoRedoHistory
UndoRedoHistory
Layer: 1
Undoes
EndUndoes
Redoes
EndRedoes
EndUndoRedoHistory
Fore
SplineSet
92 704 m 1
 92 623 l 1
 172 623 l 1
 172 704 l 1
 92 704 l 1
132 0 m 0
EndSplineSet
EndChar

StartChar: uni0311
Encoding: 785 785 314
Width: 314
VWidth: 0
Flags: HW
LayerCount: 2
UndoRedoHistory
Layer: 0
Undoes
EndUndoes
Redoes
EndRedoes
EndUndoRedoHistory
UndoRedoHistory
Layer: 1
Undoes
EndUndoes
Redoes
EndRedoes
EndUndoRedoHistory
Fore
SplineSet
16 609 m 1
 60 609 l 1
 68 653 103 674 154 674 c 0
 205 674 245 651 255 609 c 1
 298 609 l 1
 292 686 241 727 158 727 c 0
 72 727 22 689 16 609 c 1
EndSplineSet
EndChar

StartChar: uni03A9
Encoding: 937 937 315
Width: 801
VWidth: 0
Flags: HW
LayerCount: 2
UndoRedoHistory
Layer: 0
Undoes
EndUndoes
Redoes
EndRedoes
EndUndoRedoHistory
UndoRedoHistory
Layer: 1
Undoes
EndUndoes
Redoes
EndRedoes
EndUndoRedoHistory
Fore
SplineSet
156 633 m 0
 98 579 57 497 57 388 c 0
 57 354 61 320 69 289 c 0
 93 193 148 120 218 68 c 1
 46 69 l 1
 52 0 l 1
 322 0 l 1
 321 60 l 1
 295 77 272 98 250 120 c 0
 193 180 146 266 146 380 c 0
 146 420 153 457 165 491 c 0
 199 584 278 654 402 654 c 0
 444 654 480 647 511 632 c 0
 597 590 652 502 652 377 c 0
 652 343 647 311 638 280 c 0
 610 184 549 110 474 60 c 1
 476 0 l 1
 737 0 l 1
 742 69 l 1
 578 68 l 1
 622 102 661 148 690 199 c 0
 718 249 740 310 740 386 c 0
 740 490 703 571 650 627 c 0
 596 684 512 724 404 724 c 0
 298 724 213 687 156 633 c 0
10 0 m 0
EndSplineSet
EndChar

StartChar: uni03BC
Encoding: 956 956 316
Width: 608
VWidth: 0
Flags: HW
LayerCount: 2
UndoRedoHistory
Layer: 0
Undoes
EndUndoes
Redoes
EndRedoes
EndUndoRedoHistory
UndoRedoHistory
Layer: 1
Undoes
EndUndoes
Redoes
EndRedoes
EndUndoRedoHistory
Fore
SplineSet
439 513 m 1
 439 218 l 2
 439 196 435 175 429 155 c 0
 410 98 365 54 289 54 c 0
 198 54 161 108 161 200 c 2
 161 513 l 1
 78 513 l 1
 78 -101 l 1
 161 -101 l 1
 161 16 l 1
 189 -1 224 -12 270 -12 c 0
 344 -12 401 16 439 68 c 1
 440 0 l 1
 526 0 l 1
 522 42 522 78 522 123 c 2
 522 513 l 1
 439 513 l 1
EndSplineSet
EndChar

StartChar: uni2074
Encoding: 8308 8308 317
Width: 448
VWidth: 0
Flags: HW
LayerCount: 2
UndoRedoHistory
Layer: 0
Undoes
EndUndoes
Redoes
EndRedoes
EndUndoRedoHistory
UndoRedoHistory
Layer: 1
Undoes
EndUndoes
Redoes
EndRedoes
EndUndoRedoHistory
Fore
SplineSet
172 706 m 1
 -11 447 l 1
 -11 402 l 1
 178 402 l 1
 178 308 l 1
 238 308 l 1
 238 402 l 1
 298 402 l 1
 294 455 l 1
 239 455 l 1
 239 706 l 1
 172 706 l 1
178 455 m 1
 58 455 l 1
 178 622 l 1
 178 455 l 1
EndSplineSet
EndChar

StartChar: uniF6C3
Encoding: 65545 -1 318
Width: 299
VWidth: 0
Flags: HW
LayerCount: 2
UndoRedoHistory
Layer: 0
Undoes
EndUndoes
Redoes
EndRedoes
EndUndoRedoHistory
UndoRedoHistory
Layer: 1
Undoes
EndUndoes
Redoes
EndRedoes
EndUndoRedoHistory
Fore
SplineSet
108 -70 m 1
 55 -302 l 1
 120 -302 l 1
 202 -70 l 1
 108 -70 l 1
EndSplineSet
EndChar

StartChar: uniFB01
Encoding: 64257 64257 319
Width: 602
VWidth: 0
Flags: HW
LayerCount: 2
UndoRedoHistory
Layer: 0
Undoes
EndUndoes
Redoes
EndRedoes
EndUndoRedoHistory
UndoRedoHistory
Layer: 1
Undoes
EndUndoes
Redoes
EndRedoes
EndUndoRedoHistory
Fore
SplineSet
124 569 m 2
 123 513 l 1
 22 513 l 1
 22 460 l 1
 123 460 l 1
 123 0 l 1
 206 0 l 1
 206 460 l 1
 434 460 l 1
 434 0 l 1
 517 0 l 1
 517 513 l 1
 206 513 l 1
 206 581 l 2
 206 649 218 690 286 690 c 0
 304 690 329 687 342 682 c 1
 340 746 l 1
 318 751 300 757 272 757 c 0
 160 757 126 679 124 569 c 2
438 731 m 1
 438 654 l 1
 515 654 l 1
 515 731 l 1
 438 731 l 1
EndSplineSet
EndChar

StartChar: uniFB02
Encoding: 64258 64258 320
Width: 692
VWidth: 0
Flags: HW
LayerCount: 2
UndoRedoHistory
Layer: 0
Undoes
EndUndoes
Redoes
EndRedoes
EndUndoRedoHistory
UndoRedoHistory
Layer: 1
Undoes
EndUndoes
Redoes
EndRedoes
EndUndoRedoHistory
Fore
SplineSet
126 585 m 2
 126 513 l 1
 26 513 l 1
 26 460 l 1
 126 460 l 1
 126 -17 l 2
 126 -97 95 -150 35 -164 c 1
 46 -224 l 1
 166 -208 208 -131 208 -6 c 2
 208 460 l 1
 332 460 l 1
 332 513 l 1
 208 513 l 1
 208 596 l 2
 208 672 234 704 292 704 c 0
 310 704 330 700 348 696 c 1
 360 750 l 1
 328 761 297 766 270 766 c 0
 169 766 126 711 126 585 c 2
434 748 m 1
 434 150 l 2
 434 63 482 -6 586 -6 c 0
 613 -6 654 0 694 12 c 1
 682 76 l 1
 658 68 628 62 604 62 c 0
 554 62 516 89 516 146 c 2
 516 763 l 1
 434 748 l 1
EndSplineSet
EndChar

StartChar: v
Encoding: 118 118 321
Width: 531
VWidth: 0
Flags: HW
LayerCount: 2
UndoRedoHistory
Layer: 0
Undoes
EndUndoes
Redoes
EndRedoes
EndUndoRedoHistory
UndoRedoHistory
Layer: 1
Undoes
EndUndoes
Redoes
EndRedoes
EndUndoRedoHistory
Fore
SplineSet
384 424 m 1
 290 206 l 2
 285 194 280 180 267 138 c 1
 261 160 251 186 243 206 c 2
 148 424 l 1
 40 424 l 1
 225 0 l 1
 311 0 l 1
 490 424 l 1
 384 424 l 1
EndSplineSet
EndChar

StartChar: w
Encoding: 119 119 322
Width: 867
VWidth: 0
Flags: HW
LayerCount: 2
UndoRedoHistory
Layer: 0
Undoes
EndUndoes
Redoes
EndRedoes
EndUndoRedoHistory
UndoRedoHistory
Layer: 1
Undoes
EndUndoes
Redoes
EndRedoes
EndUndoRedoHistory
Fore
SplineSet
86 424 m 1
 254 0 l 1
 340 0 l 1
 478 362 l 1
 500 420 407 458 379 379 c 2
 320 206 l 1
 315 194 308 180 296 138 c 1
 290 160 279 186 272 206 c 2
 194 424 l 1
 86 424 l 1
676 424 m 1
 600 206 l 1
 595 194 588 180 576 138 c 1
 569 160 559 186 552 206 c 2
 486 381 l 2
 458 455 365 424 393 354 c 1
 534 0 l 1
 620 0 l 1
 782 424 l 1
 676 424 l 1
424 0 m 0
EndSplineSet
EndChar

StartChar: x
Encoding: 120 120 323
Width: 543
VWidth: 0
Flags: HW
LayerCount: 2
UndoRedoHistory
Layer: 0
Undoes
EndUndoes
Redoes
EndRedoes
EndUndoRedoHistory
UndoRedoHistory
Layer: 1
Undoes
EndUndoes
Redoes
EndRedoes
EndUndoRedoHistory
Fore
SplineSet
354 424 m 1
 235 258 l 1
 116 424 l 1
 32 424 l 1
 190 212 l 1
 24 0 l 1
 102 0 l 1
 228 168 l 1
 350 0 l 1
 434 0 l 1
 272 214 l 1
 428 424 l 1
 354 424 l 1
EndSplineSet
EndChar

StartChar: y
Encoding: 121 121 324
Width: 612
VWidth: 0
Flags: HW
LayerCount: 2
UndoRedoHistory
Layer: 0
Undoes
EndUndoes
Redoes
EndRedoes
EndUndoRedoHistory
UndoRedoHistory
Layer: 1
Undoes
EndUndoes
Redoes
EndRedoes
EndUndoRedoHistory
Fore
SplineSet
402 422 m 1
 402 200 l 1
 403 122 352 70 278 70 c 0
 236 70 208 106 210 160 c 1
 212 244 l 1
 216 374 197 422 197 422 c 1
 91 411 l 1
 91 411 111 358 107 238 c 1
 104 149 l 2
 102 53 167 -11 267 -11 c 0
 328 -11 388 20 417 66 c 1
 427 25 508 114 508 150 c 2
 508 422 l 1
 402 422 l 1
404 122 m 1
 404 52 l 1
 403 -21 l 1
 403 -123 333 -140 254 -140 c 0
 214 -140 171 -130 134 -112 c 1
 114 -198 l 1
 164 -221 219 -233 273 -233 c 0
 398 -233 508 -172 508 -4 c 2
 508 150 l 1
 404 122 l 1
296 0 m 0
EndSplineSet
EndChar

StartChar: yacute
Encoding: 253 253 325
Width: 593
VWidth: 0
Flags: HW
LayerCount: 2
UndoRedoHistory
Layer: 0
Undoes
EndUndoes
Redoes
EndRedoes
EndUndoRedoHistory
UndoRedoHistory
Layer: 1
Undoes
EndUndoes
Redoes
EndRedoes
EndUndoRedoHistory
Fore
SplineSet
434 513 m 1
 434 248 l 2
 434 154 378 58 284 58 c 0
 216 58 159 108 159 199 c 1
 160 322 l 1
 160 462 141 513 141 513 c 1
 58 500 l 1
 58 500 78 442 78 314 c 1
 76 200 l 1
 72 86 144 -11 272 -11 c 0
 324 -11 399 11 434 72 c 1
 434 23 l 2
 434 -79 370 -164 260 -164 c 0
 220 -164 158 -150 108 -125 c 1
 99 -202 l 1
 145 -218 214 -232 267 -232 c 0
 399 -232 516 -142 516 34 c 2
 516 513 l 1
 434 513 l 1
380 746 m 1
 268 586 l 1
 332 586 l 1
 486 746 l 1
 380 746 l 1
EndSplineSet
EndChar

StartChar: ydieresis
Encoding: 255 255 326
Width: 593
VWidth: 0
Flags: HW
LayerCount: 2
UndoRedoHistory
Layer: 0
Undoes
EndUndoes
Redoes
EndRedoes
EndUndoRedoHistory
UndoRedoHistory
Layer: 1
Undoes
EndUndoes
Redoes
EndRedoes
EndUndoRedoHistory
Fore
SplineSet
434 513 m 1
 434 248 l 2
 434 154 378 58 284 58 c 0
 216 58 159 108 159 199 c 1
 160 322 l 1
 160 462 141 513 141 513 c 1
 58 500 l 1
 58 500 78 442 78 314 c 1
 76 200 l 1
 72 86 144 -11 272 -11 c 0
 324 -11 399 11 434 72 c 1
 434 23 l 2
 434 -79 370 -164 260 -164 c 0
 220 -164 158 -150 108 -125 c 1
 99 -202 l 1
 145 -218 214 -232 267 -232 c 0
 399 -232 516 -142 516 34 c 2
 516 513 l 1
 434 513 l 1
176 668 m 1
 176 586 l 1
 258 586 l 1
 258 668 l 1
 176 668 l 1
342 668 m 1
 342 586 l 1
 424 586 l 1
 424 668 l 1
 342 668 l 1
EndSplineSet
EndChar

StartChar: yen
Encoding: 165 165 327
Width: 594
VWidth: 0
Flags: HW
LayerCount: 2
UndoRedoHistory
Layer: 0
Undoes
EndUndoes
Redoes
EndRedoes
EndUndoRedoHistory
UndoRedoHistory
Layer: 1
Undoes
EndUndoes
Redoes
EndRedoes
EndUndoRedoHistory
Fore
SplineSet
486 710 m 1
 424 606 363 501 300 398 c 1
 240 504 178 606 116 710 c 1
 13 710 l 1
 236 358 l 1
 52 358 l 1
 52 287 l 1
 253 287 l 1
 253 212 l 1
 49 212 l 1
 54 142 l 1
 254 142 l 1
 254 0 l 1
 340 0 l 1
 340 142 l 1
 536 142 l 1
 536 212 l 1
 338 212 l 1
 338 287 l 1
 534 287 l 1
 534 358 l 1
 352 358 l 1
 580 710 l 1
 486 710 l 1
EndSplineSet
EndChar

StartChar: z
Encoding: 122 122 328
Width: 489
VWidth: 0
Flags: HW
LayerCount: 2
UndoRedoHistory
Layer: 0
Undoes
EndUndoes
Redoes
EndRedoes
EndUndoRedoHistory
UndoRedoHistory
Layer: 1
Undoes
EndUndoes
Redoes
EndRedoes
EndUndoRedoHistory
Fore
SplineSet
88 424 m 1
 88 351 l 1
 292 351 l 1
 76 66 l 1
 76 0 l 1
 424 0 l 1
 424 78 l 1
 203 78 l 1
 416 359 l 1
 416 424 l 1
 88 424 l 1
244 0 m 0
EndSplineSet
EndChar

StartChar: zacute
Encoding: 378 378 329
Width: 489
VWidth: 0
Flags: HW
LayerCount: 2
UndoRedoHistory
Layer: 0
Undoes
EndUndoes
Redoes
EndRedoes
EndUndoRedoHistory
UndoRedoHistory
Layer: 1
Undoes
EndUndoes
Redoes
EndRedoes
EndUndoRedoHistory
Fore
SplineSet
53 513 m 1
 53 446 l 1
 340 446 l 1
 40 44 l 1
 40 0 l 1
 460 0 l 1
 460 67 l 1
 152 67 l 1
 452 470 l 1
 452 513 l 1
 53 513 l 1
336 746 m 1
 222 586 l 1
 288 586 l 1
 442 746 l 1
 336 746 l 1
EndSplineSet
EndChar

StartChar: zcaron
Encoding: 382 382 330
Width: 489
VWidth: 0
Flags: HW
LayerCount: 2
UndoRedoHistory
Layer: 0
Undoes
EndUndoes
Redoes
EndRedoes
EndUndoRedoHistory
UndoRedoHistory
Layer: 1
Undoes
EndUndoes
Redoes
EndRedoes
EndUndoRedoHistory
Fore
SplineSet
53 513 m 1
 53 446 l 1
 340 446 l 1
 40 44 l 1
 40 0 l 1
 460 0 l 1
 460 67 l 1
 152 67 l 1
 452 470 l 1
 452 513 l 1
 53 513 l 1
336 748 m 1
 252 640 l 1
 170 748 l 1
 96 748 l 1
 216 586 l 1
 294 586 l 1
 413 748 l 1
 336 748 l 1
EndSplineSet
EndChar

StartChar: zdotaccent
Encoding: 380 380 331
Width: 489
VWidth: 0
Flags: HW
LayerCount: 2
UndoRedoHistory
Layer: 0
Undoes
EndUndoes
Redoes
EndRedoes
EndUndoRedoHistory
UndoRedoHistory
Layer: 1
Undoes
EndUndoes
Redoes
EndRedoes
EndUndoRedoHistory
Fore
SplineSet
53 513 m 1
 53 446 l 1
 340 446 l 1
 40 44 l 1
 40 0 l 1
 460 0 l 1
 460 67 l 1
 152 67 l 1
 452 470 l 1
 452 513 l 1
 53 513 l 1
215 668 m 1
 215 586 l 1
 295 586 l 1
 295 668 l 1
 215 668 l 1
EndSplineSet
EndChar

StartChar: zero
Encoding: 48 48 332
Width: 609
VWidth: 0
Flags: HW
LayerCount: 2
UndoRedoHistory
Layer: 0
Undoes
EndUndoes
Redoes
EndRedoes
EndUndoRedoHistory
UndoRedoHistory
Layer: 1
Undoes
EndUndoes
Redoes
EndRedoes
EndUndoRedoHistory
Fore
SplineSet
52 355 m 0
 52 159 110 -12 304 -12 c 0
 494 -12 558 163 558 355 c 0
 558 559 506 726 304 726 c 0
 112 726 52 551 52 355 c 0
466 355 m 0
 466 220 434 60 304 60 c 0
 162 60 141 211 141 355 c 0
 141 492 171 656 304 656 c 0
 446 656 466 498 466 355 c 0
EndSplineSet
EndChar
